STARTFONT 2.1
FONT -Adobe-Helvetica-Medium-O-Normal--25-180-100-100-P-130-ISO10646-1
SIZE 18 100 100
FONTBOUNDINGBOX 29 37 -1 -8
COMMENT $Xorg: $
COMMENT ISO10646-1 extension by Markus Kuhn <mkuhn@acm.org>, 2001-03-20
COMMENT 
COMMENT +
COMMENT  Copyright 1984-1989, 1994 Adobe Systems Incorporated.
COMMENT  Copyright 1988, 1994 Digital Equipment Corporation.
COMMENT
COMMENT  Adobe is a trademark of Adobe Systems Incorporated which may be
COMMENT  registered in certain jurisdictions.
COMMENT  Permission to use these trademarks is hereby granted only in
COMMENT  association with the images described in this file.
COMMENT
COMMENT  Permission to use, copy, modify, distribute and sell this software
COMMENT  and its documentation for any purpose and without fee is hereby
COMMENT  granted, provided that the above copyright notices appear in all
COMMENT  copies and that both those copyright notices and this permission
COMMENT  notice appear in supporting documentation, and that the names of
COMMENT  Adobe Systems and Digital Equipment Corporation not be used in
COMMENT  advertising or publicity pertaining to distribution of the software
COMMENT  without specific, written prior permission.  Adobe Systems and
COMMENT  Digital Equipment Corporation make no representations about the
COMMENT  suitability of this software for any purpose.  It is provided "as
COMMENT  is" without express or implied warranty.
COMMENT -
STARTPROPERTIES 26
FOUNDRY "Adobe"
FAMILY_NAME "Helvetica"
WEIGHT_NAME "Medium"
SLANT "O"
SETWIDTH_NAME "Normal"
ADD_STYLE_NAME ""
PIXEL_SIZE 25
POINT_SIZE 180
RESOLUTION_X 100
RESOLUTION_Y 100
SPACING "P"
AVERAGE_WIDTH 130
CHARSET_REGISTRY "ISO10646"
CHARSET_ENCODING "1"
CAP_HEIGHT 19
X_HEIGHT 14
FONT_ASCENT 22
FONT_DESCENT 5
FACE_NAME "Helvetica Oblique"
COPYRIGHT "Copyright (c) 1984, 1987 Adobe Systems Incorporated. All Rights Reserved. Copyright (c) 1988, 1991 Digital Equipment Corporation. All Rights Reserved."

STARTCHAR char0
ENCODING 0
SWIDTH 722 0
DWIDTH 18 0
BBX 17 19 2 0
BITMAP
AAAA80
000000
800080
000000
800080
000000
800080
000000
800080
000000
800080
000000
800080
000000
800080
000000
800080
000000
AAAA80
ENDCHAR
STARTCHAR space
ENCODING 32
SWIDTH 278 0
DWIDTH 6 0
BBX 1 1 0 0
BITMAP
00
ENDCHAR
STARTCHAR exclam
ENCODING 33
SWIDTH 278 0
DWIDTH 7 0
BBX 6 19 3 0
BITMAP
0C
0C
0C
0C
18
18
18
18
30
30
30
30
60
60
00
00
C0
C0
C0
ENDCHAR
STARTCHAR quotedbl
ENCODING 34
SWIDTH 355 0
DWIDTH 8 0
BBX 7 6 4 13
BITMAP
66
66
66
CC
CC
88
ENDCHAR
STARTCHAR numbersign
ENCODING 35
SWIDTH 556 0
DWIDTH 14 0
BBX 13 17 3 0
BITMAP
0330
0330
0660
0660
3FF8
3FF8
0CC0
0CC0
1980
1980
FFE0
FFE0
3300
3300
6600
6600
6600
ENDCHAR
STARTCHAR dollar
ENCODING 36
SWIDTH 556 0
DWIDTH 13 0
BBX 14 21 1 -2
BITMAP
0060
03F8
0FFC
1CCC
18CC
18C0
1980
1D80
0F80
07C0
03E0
0370
0338
0318
0318
C638
E670
7FE0
3F80
0C00
0C00
ENDCHAR
STARTCHAR percent
ENCODING 37
SWIDTH 889 0
DWIDTH 22 0
BBX 16 18 4 0
BITMAP
0001
1E03
3E06
630C
C318
C310
C630
7C60
78C0
0180
031E
063E
0C63
08C3
18C3
30C6
607C
4078
ENDCHAR
STARTCHAR ampersand
ENCODING 38
SWIDTH 667 0
DWIDTH 17 0
BBX 14 18 2 0
BITMAP
01E0
07F0
0630
0C30
0C30
0C60
0EE0
07C0
1F80
3F0C
739C
E1D8
C0F8
C070
C0F0
E1F8
7F9C
3E0C
ENDCHAR
STARTCHAR quotesingle
ENCODING 39
SWIDTH 191 0
DWIDTH 6 0
BBX 3 6 5 13
BITMAP
60
60
60
C0
C0
80
ENDCHAR
STARTCHAR parenleft
ENCODING 40
SWIDTH 333 0
DWIDTH 8 0
BBX 8 24 2 -5
BITMAP
03
06
0C
18
18
30
30
60
60
60
C0
C0
C0
C0
C0
C0
C0
C0
C0
C0
60
60
30
18
ENDCHAR
STARTCHAR parenright
ENCODING 41
SWIDTH 333 0
DWIDTH 8 0
BBX 8 24 1 -5
BITMAP
18
0C
06
06
03
03
03
03
03
03
03
03
03
03
06
06
06
0C
0C
18
18
30
60
C0
ENDCHAR
STARTCHAR asterisk
ENCODING 42
SWIDTH 389 0
DWIDTH 10 0
BBX 7 6 5 13
BITMAP
10
D6
7C
70
D8
88
ENDCHAR
STARTCHAR plus
ENCODING 43
SWIDTH 584 0
DWIDTH 14 0
BBX 12 12 2 1
BITMAP
0300
0300
0300
0600
0600
FFF0
FFF0
0600
0600
0C00
0C00
0C00
ENDCHAR
STARTCHAR comma
ENCODING 44
SWIDTH 278 0
DWIDTH 6 0
BBX 3 6 1 -3
BITMAP
60
60
60
20
60
C0
ENDCHAR
STARTCHAR hyphen
ENCODING 45
SWIDTH 333 0
DWIDTH 8 0
BBX 7 2 2 6
BITMAP
FE
FE
ENDCHAR
STARTCHAR period
ENCODING 46
SWIDTH 278 0
DWIDTH 6 0
BBX 2 3 2 0
BITMAP
C0
C0
C0
ENDCHAR
STARTCHAR slash
ENCODING 47
SWIDTH 278 0
DWIDTH 7 0
BBX 11 19 0 0
BITMAP
0060
00C0
0080
0080
0180
0300
0200
0200
0600
0C00
0800
0800
1800
3000
2000
2000
6000
4000
C000
ENDCHAR
STARTCHAR zero
ENCODING 48
SWIDTH 556 0
DWIDTH 13 0
BBX 13 18 2 0
BITMAP
03E0
07F0
0E38
1818
1818
3018
3018
6030
6030
6030
6030
C060
C060
C0C0
C0C0
E380
7F00
3E00
ENDCHAR
STARTCHAR one
ENCODING 49
SWIDTH 556 0
DWIDTH 13 0
BBX 6 18 6 0
BITMAP
0C
0C
1C
F8
F8
18
18
30
30
30
30
60
60
60
60
C0
C0
C0
ENDCHAR
STARTCHAR two
ENCODING 50
SWIDTH 556 0
DWIDTH 13 0
BBX 14 18 1 0
BITMAP
03E0
07F8
0E1C
1C0C
180C
180C
001C
0038
0070
01E0
0380
0F00
1C00
3800
7000
E000
FFE0
FFE0
ENDCHAR
STARTCHAR three
ENCODING 51
SWIDTH 556 0
DWIDTH 13 0
BBX 12 18 2 0
BITMAP
03C0
0FE0
1C70
3830
3030
0070
00E0
01C0
0780
07C0
00E0
0060
0060
C060
C0E0
E3C0
7F80
3E00
ENDCHAR
STARTCHAR four
ENCODING 52
SWIDTH 556 0
DWIDTH 13 0
BBX 12 18 2 0
BITMAP
0030
0070
00F0
01B0
0360
0660
0C60
18C0
18C0
30C0
6180
C180
FFE0
FFE0
0180
0300
0300
0300
ENDCHAR
STARTCHAR five
ENCODING 53
SWIDTH 556 0
DWIDTH 13 0
BBX 13 18 2 0
BITMAP
0FF8
0FF8
0C00
0C00
1800
1800
1F80
3FC0
38E0
0060
0060
0060
0060
C0E0
C0C0
C3C0
FF80
3E00
ENDCHAR
STARTCHAR six
ENCODING 54
SWIDTH 556 0
DWIDTH 13 0
BBX 13 18 2 0
BITMAP
03E0
07F0
0E38
1818
1800
3000
33C0
6FE0
7C70
7030
6030
E030
C070
C060
C0E0
E380
7F80
3E00
ENDCHAR
STARTCHAR seven
ENCODING 55
SWIDTH 556 0
DWIDTH 13 0
BBX 13 18 3 0
BITMAP
3FF8
3FF8
0030
0060
00C0
01C0
0380
0300
0600
0E00
1C00
1800
3800
3000
6000
6000
C000
C000
ENDCHAR
STARTCHAR eight
ENCODING 56
SWIDTH 556 0
DWIDTH 13 0
BBX 12 18 2 0
BITMAP
03C0
07E0
0C70
1830
1830
1830
1C60
0FC0
1FC0
38E0
7060
6060
C060
C060
C0E0
E1C0
7F80
3E00
ENDCHAR
STARTCHAR nine
ENCODING 57
SWIDTH 556 0
DWIDTH 13 0
BBX 13 18 2 0
BITMAP
03E0
0FF0
0E38
3818
3018
7018
6038
6030
6070
71F0
3FB0
1E60
0060
00C0
C0C0
E380
7F00
3E00
ENDCHAR
STARTCHAR colon
ENCODING 58
SWIDTH 278 0
DWIDTH 6 0
BBX 5 14 2 0
BITMAP
18
18
18
00
00
00
00
00
00
00
00
C0
C0
C0
ENDCHAR
STARTCHAR semicolon
ENCODING 59
SWIDTH 278 0
DWIDTH 6 0
BBX 6 17 1 -3
BITMAP
0C
0C
0C
00
00
00
00
00
00
00
00
60
60
60
20
60
C0
ENDCHAR
STARTCHAR less
ENCODING 60
SWIDTH 584 0
DWIDTH 15 0
BBX 12 10 3 3
BITMAP
0070
01E0
0780
1E00
7800
E000
F000
3C00
0F00
0380
ENDCHAR
STARTCHAR equal
ENCODING 61
SWIDTH 584 0
DWIDTH 15 0
BBX 11 5 3 5
BITMAP
7FE0
7FE0
0000
FFC0
FFC0
ENDCHAR
STARTCHAR greater
ENCODING 62
SWIDTH 584 0
DWIDTH 14 0
BBX 11 10 3 3
BITMAP
7000
3C00
0F00
03C0
00E0
01E0
0780
1E00
7800
E000
ENDCHAR
STARTCHAR question
ENCODING 63
SWIDTH 556 0
DWIDTH 13 0
BBX 11 19 4 0
BITMAP
0F80
3FC0
70E0
6060
C060
C0E0
01C0
0780
0E00
1C00
1800
3000
3000
3000
0000
0000
6000
6000
6000
ENDCHAR
STARTCHAR at
ENCODING 64
SWIDTH 1015 0
DWIDTH 22 0
BBX 21 23 2 -4
BITMAP
003F00
00FFC0
03C1E0
070070
0C0038
180018
303818
30FD98
61C798
638318
630618
C60630
C60C30
C60C60
C618E0
C718C0
C3FF80
C1EF00
600000
700000
381800
1FF800
07E000
ENDCHAR
STARTCHAR A
ENCODING 65
SWIDTH 667 0
DWIDTH 17 0
BBX 15 19 1 0
BITMAP
0030
0070
0070
00F8
00D8
0198
0198
0318
0718
060C
0C0C
0FFC
1FFC
180C
3006
7006
6006
E006
E006
ENDCHAR
STARTCHAR B
ENCODING 66
SWIDTH 667 0
DWIDTH 17 0
BBX 16 19 2 0
BITMAP
0FFC
0FFE
0C07
0C03
1803
1803
1807
180E
3FF8
3FFC
300E
3006
6006
6006
6006
600E
C03C
FFF8
FFE0
ENDCHAR
STARTCHAR C
ENCODING 67
SWIDTH 722 0
DWIDTH 18 0
BBX 17 19 2 0
BITMAP
00FE00
03FF00
078380
0E0180
180180
380000
300000
700000
600000
600000
E00000
C00000
C00000
C00600
E00E00
601C00
787800
3FF000
0FC000
ENDCHAR
STARTCHAR D
ENCODING 68
SWIDTH 722 0
DWIDTH 18 0
BBX 18 19 2 0
BITMAP
0FFC00
0FFF00
0C0780
0C0180
1801C0
1800C0
1800C0
1800C0
3000C0
3001C0
300180
300380
600300
600700
600E00
601C00
C07800
FFF000
FFC000
ENDCHAR
STARTCHAR E
ENCODING 69
SWIDTH 667 0
DWIDTH 16 0
BBX 16 19 2 0
BITMAP
0FFF
0FFF
0C00
0C00
1800
1800
1800
1800
3FF8
3FF8
3000
3000
6000
6000
6000
6000
C000
FFF0
FFF0
ENDCHAR
STARTCHAR F
ENCODING 70
SWIDTH 611 0
DWIDTH 14 0
BBX 15 19 2 0
BITMAP
0FFE
0FFE
0C00
0C00
1800
1800
1800
1800
3FF0
3FF0
3000
3000
6000
6000
6000
6000
C000
C000
C000
ENDCHAR
STARTCHAR G
ENCODING 71
SWIDTH 778 0
DWIDTH 19 0
BBX 17 19 2 0
BITMAP
00FE00
03FF00
078380
0E0180
180180
380000
300000
700000
600000
603F80
E03F80
C00380
C00300
C00700
E00E00
601E00
787600
3FEC00
0FCC00
ENDCHAR
STARTCHAR H
ENCODING 72
SWIDTH 722 0
DWIDTH 18 0
BBX 18 19 2 0
BITMAP
0C00C0
0C00C0
0C00C0
0C00C0
180180
180180
180180
180180
3FFF00
3FFF00
300300
300300
600600
600600
600600
600600
C00C00
C00C00
C00C00
ENDCHAR
STARTCHAR I
ENCODING 73
SWIDTH 278 0
DWIDTH 8 0
BBX 6 19 3 0
BITMAP
0C
0C
0C
0C
18
18
18
18
30
30
30
30
60
60
60
60
C0
C0
C0
ENDCHAR
STARTCHAR J
ENCODING 74
SWIDTH 500 0
DWIDTH 13 0
BBX 13 19 2 0
BITMAP
0018
0018
0018
0018
0030
0030
0030
0030
0060
0060
0060
0060
C0C0
C0C0
C1C0
C180
E380
7F00
3E00
ENDCHAR
STARTCHAR K
ENCODING 75
SWIDTH 667 0
DWIDTH 18 0
BBX 17 19 2 0
BITMAP
0C0380
0C0700
0C0E00
0C1C00
187000
18E000
19C000
1B8000
3F0000
3F8000
39C000
30C000
60E000
607000
603000
603800
C01C00
C00C00
C00E00
ENDCHAR
STARTCHAR L
ENCODING 76
SWIDTH 556 0
DWIDTH 14 0
BBX 11 19 2 0
BITMAP
0C00
0C00
0C00
0C00
1800
1800
1800
1800
3000
3000
3000
3000
6000
6000
6000
6000
C000
FFE0
FFE0
ENDCHAR
STARTCHAR M
ENCODING 77
SWIDTH 833 0
DWIDTH 22 0
BBX 22 19 2 0
BITMAP
0C000C
0C001C
0E003C
1E0038
1E0078
1E00D8
1B0198
1B01B0
330330
330730
330630
330C30
619C60
619860
61B860
61B060
C1E0C0
C0E0C0
C0C0C0
ENDCHAR
STARTCHAR N
ENCODING 78
SWIDTH 722 0
DWIDTH 18 0
BBX 18 19 2 0
BITMAP
0E00C0
0E00C0
0E00C0
0F00C0
1B0180
1B0180
198180
198180
318300
30C300
30C300
30C300
606600
606600
603600
603600
C01C00
C01C00
C01C00
ENDCHAR
STARTCHAR O
ENCODING 79
SWIDTH 778 0
DWIDTH 18 0
BBX 18 19 2 0
BITMAP
00FC00
03FF00
078780
0E0180
1C01C0
3800C0
3000C0
7000C0
6001C0
600180
E00180
C00380
C00300
C00700
E00E00
601C00
787800
3FF000
0FC000
ENDCHAR
STARTCHAR P
ENCODING 80
SWIDTH 667 0
DWIDTH 16 0
BBX 16 19 2 0
BITMAP
0FFE
0FFF
0C03
0C03
1803
1803
1806
180E
3FFC
3FF0
3000
3000
6000
6000
6000
6000
C000
C000
C000
ENDCHAR
STARTCHAR Q
ENCODING 81
SWIDTH 778 0
DWIDTH 18 0
BBX 18 20 2 -1
BITMAP
00FC00
03FF00
078780
0E0180
1C01C0
3800C0
3000C0
7000C0
6000C0
E001C0
C00180
C00380
C08300
C1C700
E0EE00
607C00
787800
3FFC00
0FCE00
000400
ENDCHAR
STARTCHAR R
ENCODING 82
SWIDTH 722 0
DWIDTH 17 0
BBX 16 19 2 0
BITMAP
0FFE
0FFF
0C03
0C03
1803
1803
1806
180E
3FFC
3FF8
301C
300C
600C
600C
600C
6018
C018
C018
C01C
ENDCHAR
STARTCHAR S
ENCODING 83
SWIDTH 667 0
DWIDTH 16 0
BBX 15 19 2 0
BITMAP
01F0
07FC
0E1E
1806
3006
3000
3800
1E00
0FC0
01F0
0038
001C
000C
C00C
C01C
E038
7070
3FE0
1F80
ENDCHAR
STARTCHAR T
ENCODING 84
SWIDTH 611 0
DWIDTH 16 0
BBX 14 19 5 0
BITMAP
FFFC
FFFC
0300
0300
0600
0600
0600
0600
0C00
0C00
0C00
0C00
1800
1800
1800
1800
3000
3000
3000
ENDCHAR
STARTCHAR U
ENCODING 85
SWIDTH 722 0
DWIDTH 18 0
BBX 17 19 3 0
BITMAP
180180
180180
180180
180180
300300
300300
300300
300300
600600
600600
600600
600C00
C00C00
C01C00
C01800
E03800
607000
7FE000
1F8000
ENDCHAR
STARTCHAR V
ENCODING 86
SWIDTH 667 0
DWIDTH 17 0
BBX 15 19 5 0
BITMAP
C006
C006
C00C
C00C
C018
C038
C030
C070
C060
E0C0
61C0
6180
6380
6300
6700
6600
6C00
6C00
7800
ENDCHAR
STARTCHAR W
ENCODING 87
SWIDTH 944 0
DWIDTH 22 0
BBX 20 19 5 0
BITMAP
C06030
C06030
C0E060
C0E060
C1E0C0
C1E0C0
C36180
C36180
C76380
C66300
CE6700
CC6600
DC6E00
D86C00
D86C00
703800
703800
603000
603000
ENDCHAR
STARTCHAR X
ENCODING 88
SWIDTH 667 0
DWIDTH 17 0
BBX 19 19 1 0
BITMAP
0C0060
0E00E0
0601C0
070380
030700
018E00
01DC00
00F800
00F000
00E000
01F000
03B000
073800
0E1800
1C1C00
380C00
700E00
E00600
C00600
ENDCHAR
STARTCHAR Y
ENCODING 89
SWIDTH 667 0
DWIDTH 16 0
BBX 14 19 6 0
BITMAP
C00C
C01C
C038
6070
6060
60C0
3180
3300
3700
3600
1C00
1800
1800
1800
3000
3000
3000
6000
6000
ENDCHAR
STARTCHAR Z
ENCODING 90
SWIDTH 611 0
DWIDTH 15 0
BBX 17 19 1 0
BITMAP
0FFF80
0FFF80
000380
000700
000E00
001C00
003800
007000
00E000
01C000
038000
070000
0E0000
1C0000
380000
700000
E00000
FFF800
FFF800
ENDCHAR
STARTCHAR bracketleft
ENCODING 91
SWIDTH 278 0
DWIDTH 7 0
BBX 9 24 1 -5
BITMAP
0780
0780
0600
0600
0C00
0C00
0C00
0C00
1800
1800
1800
1800
3000
3000
3000
3000
6000
6000
6000
6000
C000
C000
F000
F000
ENDCHAR
STARTCHAR backslash
ENCODING 92
SWIDTH 278 0
DWIDTH 7 0
BBX 4 19 4 0
BITMAP
C0
C0
40
40
40
40
40
40
40
60
20
20
20
20
20
20
20
30
30
ENDCHAR
STARTCHAR bracketright
ENCODING 93
SWIDTH 278 0
DWIDTH 7 0
BBX 9 24 0 -5
BITMAP
0780
0780
0180
0180
0300
0300
0300
0300
0600
0600
0600
0600
0C00
0C00
0C00
0C00
1800
1800
1800
1800
3000
3000
F000
F000
ENDCHAR
STARTCHAR asciicircum
ENCODING 94
SWIDTH 469 0
DWIDTH 12 0
BBX 12 8 2 11
BITMAP
0180
0380
06C0
0CC0
1860
3060
6030
C030
ENDCHAR
STARTCHAR underscore
ENCODING 95
SWIDTH 556 0
DWIDTH 14 0
BBX 14 2 -1 -5
BITMAP
FFFC
FFFC
ENDCHAR
STARTCHAR grave
ENCODING 96
SWIDTH 333 0
DWIDTH 7 0
BBX 5 4 5 15
BITMAP
C0
60
30
18
ENDCHAR
STARTCHAR a
ENCODING 97
SWIDTH 556 0
DWIDTH 13 0
BBX 11 14 2 0
BITMAP
07C0
1FE0
3860
3060
00E0
07C0
1FC0
78C0
6180
C180
C380
C780
FDC0
78C0
ENDCHAR
STARTCHAR b
ENCODING 98
SWIDTH 556 0
DWIDTH 14 0
BBX 13 19 2 0
BITMAP
0C00
0C00
0C00
1800
1800
19E0
1FF0
1E38
3818
3018
3018
3038
6030
6070
6060
60E0
F1C0
FF80
CF00
ENDCHAR
STARTCHAR c
ENCODING 99
SWIDTH 500 0
DWIDTH 12 0
BBX 11 14 2 0
BITMAP
07C0
0FE0
1C60
3060
7000
6000
E000
C000
C000
C000
C180
E380
7F00
3E00
ENDCHAR
STARTCHAR d
ENCODING 100
SWIDTH 556 0
DWIDTH 14 0
BBX 14 19 2 0
BITMAP
000C
000C
000C
0018
0018
0798
0FF8
1C70
3830
7030
6030
6030
E060
C060
C060
C0E0
E3C0
7FC0
3CC0
ENDCHAR
STARTCHAR e
ENCODING 101
SWIDTH 556 0
DWIDTH 13 0
BBX 12 14 2 0
BITMAP
03C0
0FE0
1C70
3830
7030
6070
FFE0
FFE0
C000
C000
C0C0
E1C0
7F80
3E00
ENDCHAR
STARTCHAR f
ENCODING 102
SWIDTH 278 0
DWIDTH 8 0
BBX 8 19 3 0
BITMAP
07
0F
0C
18
18
7E
7E
18
30
30
30
30
60
60
60
60
C0
C0
C0
ENDCHAR
STARTCHAR g
ENCODING 103
SWIDTH 556 0
DWIDTH 14 0
BBX 15 19 0 -5
BITMAP
00F6
03FE
071E
0C0C
1C0C
180C
181C
3818
3018
3038
3038
38F0
1FF0
07B0
0030
C060
E0E0
7FC0
1F00
ENDCHAR
STARTCHAR h
ENCODING 104
SWIDTH 556 0
DWIDTH 13 0
BBX 12 19 2 0
BITMAP
0C00
0C00
0C00
0C00
1800
19C0
1BF0
1E30
3C30
3830
3030
3030
6060
6060
6060
6060
C0C0
C0C0
C0C0
ENDCHAR
STARTCHAR i
ENCODING 105
SWIDTH 222 0
DWIDTH 6 0
BBX 6 19 2 0
BITMAP
0C
0C
0C
00
00
18
18
18
30
30
30
30
60
60
60
60
C0
C0
C0
ENDCHAR
STARTCHAR j
ENCODING 106
SWIDTH 222 0
DWIDTH 6 0
BBX 9 24 -1 -5
BITMAP
0180
0180
0180
0000
0000
0300
0300
0300
0600
0600
0600
0600
0C00
0C00
0C00
0C00
1800
1800
1800
1800
3000
3000
F000
E000
ENDCHAR
STARTCHAR k
ENCODING 107
SWIDTH 500 0
DWIDTH 12 0
BBX 12 19 2 0
BITMAP
0C00
0C00
0C00
0C00
1800
1870
18E0
19C0
3380
3700
3E00
3E00
6700
6300
6380
6180
C1C0
C0C0
C0C0
ENDCHAR
STARTCHAR l
ENCODING 108
SWIDTH 222 0
DWIDTH 6 0
BBX 6 19 2 0
BITMAP
0C
0C
0C
0C
18
18
18
18
30
30
30
30
60
60
60
60
C0
C0
C0
ENDCHAR
STARTCHAR m
ENCODING 109
SWIDTH 833 0
DWIDTH 20 0
BBX 18 14 2 0
BITMAP
19C780
1FEFC0
1C78C0
3870C0
3060C0
3060C0
3060C0
60C180
60C180
60C180
60C180
C18300
C18300
C18300
ENDCHAR
STARTCHAR n
ENCODING 110
SWIDTH 556 0
DWIDTH 14 0
BBX 12 14 2 0
BITMAP
19C0
1BF0
1E30
3C30
3830
3030
3030
6060
6060
6060
6060
C0C0
C0C0
C0C0
ENDCHAR
STARTCHAR o
ENCODING 111
SWIDTH 556 0
DWIDTH 13 0
BBX 12 14 2 0
BITMAP
07C0
0FE0
1C70
3030
7030
6030
E030
C070
C060
C0E0
C0C0
E380
7F00
3E00
ENDCHAR
STARTCHAR p
ENCODING 112
SWIDTH 556 0
DWIDTH 14 0
BBX 14 19 1 -5
BITMAP
0CF0
0FF8
0F1C
1C0C
180C
181C
1818
3018
3038
3030
3070
78E0
7FC0
6780
6000
C000
C000
C000
C000
ENDCHAR
STARTCHAR q
ENCODING 113
SWIDTH 556 0
DWIDTH 14 0
BBX 13 19 2 -5
BITMAP
0798
0FF8
1C70
3030
7030
6030
6030
E060
C060
C060
C0E0
E3C0
7FC0
3CC0
00C0
0180
0180
0180
0180
ENDCHAR
STARTCHAR r
ENCODING 114
SWIDTH 333 0
DWIDTH 9 0
BBX 9 14 2 0
BITMAP
1980
1B80
1E00
3C00
3800
3000
3000
6000
6000
6000
6000
C000
C000
C000
ENDCHAR
STARTCHAR s
ENCODING 115
SWIDTH 500 0
DWIDTH 12 0
BBX 12 14 1 0
BITMAP
07C0
1FF0
1830
3030
3000
3E00
1FC0
01E0
0060
0060
C060
E1C0
FF80
3F00
ENDCHAR
STARTCHAR t
ENCODING 116
SWIDTH 278 0
DWIDTH 8 0
BBX 7 18 3 0
BITMAP
0C
0C
0C
18
7E
7E
18
18
30
30
30
60
60
60
C0
C0
F0
70
ENDCHAR
STARTCHAR u
ENCODING 117
SWIDTH 556 0
DWIDTH 14 0
BBX 12 14 3 0
BITMAP
3030
3030
3030
6060
6060
6060
6060
C0C0
C0C0
C0C0
C1C0
C780
FD80
7980
ENDCHAR
STARTCHAR v
ENCODING 118
SWIDTH 500 0
DWIDTH 13 0
BBX 11 14 4 0
BITMAP
C060
C060
C0C0
C0C0
C180
C180
C300
C300
6600
6600
6C00
7C00
7800
7000
ENDCHAR
STARTCHAR w
ENCODING 119
SWIDTH 722 0
DWIDTH 18 0
BBX 17 14 3 0
BITMAP
C0C180
C1C180
C3C300
C3C300
C6C600
C6C600
CCCC00
CCCC00
D8D800
78D800
707800
707000
606000
606000
ENDCHAR
STARTCHAR x
ENCODING 120
SWIDTH 500 0
DWIDTH 12 0
BBX 14 14 1 0
BITMAP
180C
181C
0C38
0C70
06E0
07C0
0380
0700
0F80
1D80
38C0
70C0
E060
C060
ENDCHAR
STARTCHAR y
ENCODING 121
SWIDTH 500 0
DWIDTH 13 0
BBX 14 19 1 -5
BITMAP
300C
300C
301C
3818
1830
1870
1860
0CE0
0CC0
0D80
0780
0700
0700
0600
0C00
1C00
3800
F000
E000
ENDCHAR
STARTCHAR z
ENCODING 122
SWIDTH 500 0
DWIDTH 12 0
BBX 13 14 1 0
BITMAP
1FF8
1FF8
0030
0060
00C0
0180
0300
0600
0C00
1800
3000
6000
FFC0
FFC0
ENDCHAR
STARTCHAR braceleft
ENCODING 123
SWIDTH 334 0
DWIDTH 9 0
BBX 10 24 3 -5
BITMAP
01C0
0300
0600
0C00
0C00
0C00
1800
1800
1800
1800
3000
6000
C000
6000
2000
6000
6000
6000
6000
C000
C000
C000
6000
3800
ENDCHAR
STARTCHAR bar
ENCODING 124
SWIDTH 260 0
DWIDTH 6 0
BBX 7 24 1 -5
BITMAP
02
06
06
04
04
0C
0C
08
08
18
18
10
10
30
30
20
20
60
60
40
C0
C0
80
80
ENDCHAR
STARTCHAR braceright
ENCODING 125
SWIDTH 334 0
DWIDTH 9 0
BBX 10 24 -1 -5
BITMAP
0600
0300
0180
0180
0180
0180
0300
0300
0300
0300
0300
0180
00C0
0380
0600
0600
0C00
0C00
0C00
1800
1800
1800
3000
E000
ENDCHAR
STARTCHAR asciitilde
ENCODING 126
SWIDTH 584 0
DWIDTH 14 0
BBX 11 4 3 5
BITMAP
3860
7E60
CFC0
C380
ENDCHAR
STARTCHAR space
ENCODING 160
SWIDTH 278 0
DWIDTH 6 0
BBX 1 1 0 0
BITMAP
00
ENDCHAR
STARTCHAR exclamdown
ENCODING 161
SWIDTH 333 0
DWIDTH 8 0
BBX 6 19 2 -5
BITMAP
0C
0C
0C
00
00
18
18
30
30
30
30
60
60
60
60
C0
C0
C0
C0
ENDCHAR
STARTCHAR cent
ENCODING 162
SWIDTH 556 0
DWIDTH 13 0
BBX 12 18 2 -2
BITMAP
0030
0030
03E0
0FE0
1CF0
31B0
6180
E300
C300
C600
C600
CC00
ECC0
79C0
3F80
3F00
6000
6000
ENDCHAR
STARTCHAR sterling
ENCODING 163
SWIDTH 556 0
DWIDTH 14 0
BBX 14 18 1 0
BITMAP
01F8
07FC
060C
0C0C
0C00
0E00
0600
0600
3FE0
3FE0
0600
0E00
0C00
1C00
3800
77B0
FFF0
60E0
ENDCHAR
STARTCHAR currency
ENCODING 164
SWIDTH 556 0
DWIDTH 13 0
BBX 13 12 2 3
BITMAP
3018
3BB8
1FF0
0C60
1860
1860
30C0
30C0
3180
7FC0
EEE0
C060
ENDCHAR
STARTCHAR yen
ENCODING 165
SWIDTH 556 0
DWIDTH 14 0
BBX 14 18 3 0
BITMAP
600C
601C
3038
3030
1860
18E0
18C0
0D80
7FE0
7FE0
0600
FFC0
FFC0
0C00
0C00
1800
1800
1800
ENDCHAR
STARTCHAR brokenbar
ENCODING 166
SWIDTH 260 0
DWIDTH 6 0
BBX 7 24 1 -5
BITMAP
06
06
04
04
0C
0C
08
08
18
18
10
00
00
10
30
30
20
20
60
60
40
40
C0
C0
ENDCHAR
STARTCHAR section
ENCODING 167
SWIDTH 556 0
DWIDTH 13 0
BBX 12 24 2 -5
BITMAP
03E0
07F0
0E30
0C30
0C00
0C00
0600
1F00
3F80
71C0
60C0
6060
6060
7060
38E0
1FC0
0F80
0600
0300
0300
C300
C700
FE00
7C00
ENDCHAR
STARTCHAR dieresis
ENCODING 168
SWIDTH 333 0
DWIDTH 8 0
BBX 6 2 5 16
BITMAP
CC
CC
ENDCHAR
STARTCHAR copyright
ENCODING 169
SWIDTH 737 0
DWIDTH 19 0
BBX 19 19 3 0
BITMAP
01F800
060600
180100
100080
21F0C0
671840
460C60
CC0060
8C0060
8C0060
8C0040
8C18C0
8630C0
C3C280
400100
600300
300C00
181800
07E000
ENDCHAR
STARTCHAR ordfeminine
ENCODING 170
SWIDTH 370 0
DWIDTH 9 0
BBX 8 12 4 7
BITMAP
3E
63
03
1E
62
C6
C6
CC
76
00
FE
FE
ENDCHAR
STARTCHAR guillemotleft
ENCODING 171
SWIDTH 556 0
DWIDTH 14 0
BBX 10 8 3 3
BITMAP
0CC0
1980
3300
6600
CC00
6600
3300
1980
ENDCHAR
STARTCHAR logicalnot
ENCODING 172
SWIDTH 584 0
DWIDTH 15 0
BBX 12 7 3 3
BITMAP
FFF0
FFF0
0030
0030
0060
0060
0060
ENDCHAR
STARTCHAR hyphen
ENCODING 173
SWIDTH 333 0
DWIDTH 8 0
BBX 7 2 2 6
BITMAP
FE
FE
ENDCHAR
STARTCHAR registered
ENCODING 174
SWIDTH 737 0
DWIDTH 19 0
BBX 19 19 3 0
BITMAP
00FC00
030700
0C0180
1800C0
31F840
618C60
410420
C30C20
821820
83F020
862060
843040
8C10C0
CC1880
400180
600300
300C00
1C7800
07C000
ENDCHAR
STARTCHAR macron
ENCODING 175
SWIDTH 333 0
DWIDTH 8 0
BBX 6 2 5 16
BITMAP
FC
FC
ENDCHAR
STARTCHAR degree
ENCODING 176
SWIDTH 400 0
DWIDTH 9 0
BBX 8 7 3 11
BITMAP
3C
66
C3
C3
C3
66
3C
ENDCHAR
STARTCHAR plusminus
ENCODING 177
SWIDTH 584 0
DWIDTH 14 0
BBX 13 13 1 0
BITMAP
0180
0180
0180
0300
7FF8
7FF8
0300
0600
0600
0600
0000
FFF0
FFF0
ENDCHAR
STARTCHAR twosuperior
ENCODING 178
SWIDTH 333 0
DWIDTH 7 0
BBX 7 10 2 8
BITMAP
3C
66
46
06
0C
38
60
C0
FC
FC
ENDCHAR
STARTCHAR threesuperior
ENCODING 179
SWIDTH 333 0
DWIDTH 7 0
BBX 8 10 2 8
BITMAP
1E
33
03
06
1C
06
06
C6
CC
78
ENDCHAR
STARTCHAR acute
ENCODING 180
SWIDTH 333 0
DWIDTH 7 0
BBX 5 4 5 16
BITMAP
18
30
60
C0
ENDCHAR
STARTCHAR mu
ENCODING 181
SWIDTH 556 0
DWIDTH 14 0
BBX 14 19 1 -5
BITMAP
0C0C
0C0C
0C0C
1818
1818
1818
1818
3030
3030
3030
3070
71E0
7F60
6E60
6000
C000
C000
C000
C000
ENDCHAR
STARTCHAR paragraph
ENCODING 182
SWIDTH 537 0
DWIDTH 12 0
BBX 12 24 3 -5
BITMAP
03F0
0FF0
3E60
7E60
7E40
FEC0
FCC0
FCC0
FC80
FD80
7980
1980
1900
1B00
3300
3300
3200
6600
6600
6600
CC00
CC00
CC00
CC00
ENDCHAR
STARTCHAR periodcentered
ENCODING 183
SWIDTH 278 0
DWIDTH 6 0
BBX 2 3 4 6
BITMAP
C0
C0
C0
ENDCHAR
STARTCHAR cedilla
ENCODING 184
SWIDTH 333 0
DWIDTH 7 0
BBX 5 6 1 -5
BITMAP
30
30
18
18
F8
70
ENDCHAR
STARTCHAR onesuperior
ENCODING 185
SWIDTH 333 0
DWIDTH 7 0
BBX 4 10 4 8
BITMAP
30
70
E0
20
60
60
40
40
C0
C0
ENDCHAR
STARTCHAR ordmasculine
ENCODING 186
SWIDTH 365 0
DWIDTH 9 0
BBX 9 12 3 7
BITMAP
0F00
1980
3080
2180
6180
6100
4300
6600
3C00
0000
FE00
FE00
ENDCHAR
STARTCHAR guillemotright
ENCODING 187
SWIDTH 556 0
DWIDTH 14 0
BBX 10 8 4 3
BITMAP
6600
3300
1980
0CC0
1980
3300
6600
CC00
ENDCHAR
STARTCHAR onequarter
ENCODING 188
SWIDTH 834 0
DWIDTH 19 0
BBX 14 19 4 0
BITMAP
000C
180C
1818
7830
7060
3060
30C0
3180
6180
630C
661C
063C
0C6C
18CC
3198
33FC
63FC
C030
C030
ENDCHAR
STARTCHAR onehalf
ENCODING 189
SWIDTH 834 0
DWIDTH 19 0
BBX 15 19 4 0
BITMAP
000C
180C
1818
7830
7060
3060
30C0
3180
6180
633C
667E
0666
0C06
180C
3038
3060
60C0
C0FC
C0FC
ENDCHAR
STARTCHAR threequarters
ENCODING 190
SWIDTH 834 0
DWIDTH 19 0
BBX 16 19 3 0
BITMAP
0003
1E03
3F06
330C
0618
1C18
1E30
0660
C660
FCC3
7987
018F
031B
0632
0C66
0CFF
18FF
300C
300C
ENDCHAR
STARTCHAR questiondown
ENCODING 191
SWIDTH 611 0
DWIDTH 13 0
BBX 11 19 1 -5
BITMAP
00C0
00C0
00C0
0000
0000
0180
0180
0180
0300
0700
0E00
3C00
7000
E060
C060
C0C0
E1C0
7F80
3E00
ENDCHAR
STARTCHAR Agrave
ENCODING 192
SWIDTH 667 0
DWIDTH 17 0
BBX 15 24 1 0
BITMAP
0180
00C0
0060
0030
0000
0030
0070
0070
00F8
00D8
0198
0198
0318
0718
060C
0C0C
0FFC
1FFC
180C
3006
7006
6006
E006
E006
ENDCHAR
STARTCHAR Aacute
ENCODING 193
SWIDTH 667 0
DWIDTH 17 0
BBX 15 24 1 0
BITMAP
0006
000C
0018
0030
0000
0030
0070
0070
00F8
00D8
0198
0198
0318
0718
060C
0C0C
0FFC
1FFC
180C
3006
7006
6006
E006
E006
ENDCHAR
STARTCHAR Acircumflex
ENCODING 194
SWIDTH 667 0
DWIDTH 17 0
BBX 15 24 1 0
BITMAP
001C
003C
0066
00C6
0000
0030
0070
0070
00F8
00D8
0198
0198
0318
0718
060C
0C0C
0FFC
1FFC
180C
3006
7006
6006
E006
E006
ENDCHAR
STARTCHAR Atilde
ENCODING 195
SWIDTH 667 0
DWIDTH 17 0
BBX 15 23 1 0
BITMAP
00E2
01B6
011C
0000
0030
0070
0070
00F8
00D8
0198
0198
0318
0718
060C
0C0C
0FFC
1FFC
180C
3006
7006
6006
E006
E006
ENDCHAR
STARTCHAR Adieresis
ENCODING 196
SWIDTH 667 0
DWIDTH 17 0
BBX 15 23 1 0
BITMAP
00CC
00CC
0000
0000
0030
0070
0070
00F8
00D8
0198
0198
0318
0718
060C
0C0C
0FFC
1FFC
180C
3006
7006
6006
E006
E006
ENDCHAR
STARTCHAR Aring
ENCODING 197
SWIDTH 667 0
DWIDTH 17 0
BBX 15 23 1 0
BITMAP
0038
0048
0048
0070
0000
0070
0070
00F8
00D8
0198
0198
0318
0718
060C
0C0C
0FFC
1FFC
180C
3006
7006
6006
E006
E006
ENDCHAR
STARTCHAR AE
ENCODING 198
SWIDTH 1000 0
DWIDTH 23 0
BBX 25 19 1 0
BITMAP
003FFF80
007FFF80
00660000
00C60000
018C0000
018C0000
030C0000
030C0000
061FFE00
061FFE00
0C180000
1FF80000
1FF00000
30300000
30300000
60300000
60600000
C07FF800
C07FF800
ENDCHAR
STARTCHAR Ccedilla
ENCODING 199
SWIDTH 722 0
DWIDTH 18 0
BBX 17 24 2 -5
BITMAP
00FC00
03FF00
078780
0E0180
180180
380000
300000
600000
600000
600000
C00000
C00000
C00000
C00600
E00E00
601C00
787800
3FF000
0FC000
0C0000
060000
060000
3E0000
1C0000
ENDCHAR
STARTCHAR Egrave
ENCODING 200
SWIDTH 667 0
DWIDTH 16 0
BBX 16 24 2 0
BITMAP
0300
0180
00C0
0060
0000
0FFF
0FFF
0C00
0C00
1800
1800
1800
1800
3FF8
3FF8
3000
3000
6000
6000
6000
6000
C000
FFF0
FFF0
ENDCHAR
STARTCHAR Eacute
ENCODING 201
SWIDTH 667 0
DWIDTH 16 0
BBX 16 24 2 0
BITMAP
000C
0018
0030
0060
0000
0FFF
0FFF
0C00
0C00
1800
1800
1800
1800
3FF8
3FF8
3000
3000
6000
6000
6000
6000
C000
FFF0
FFF0
ENDCHAR
STARTCHAR Ecircumflex
ENCODING 202
SWIDTH 667 0
DWIDTH 16 0
BBX 16 24 2 0
BITMAP
0038
0078
00CC
018C
0000
0FFF
0FFF
0C00
0C00
1800
1800
1800
1800
3FF8
3FF8
3000
3000
6000
6000
6000
6000
C000
FFF0
FFF0
ENDCHAR
STARTCHAR Edieresis
ENCODING 203
SWIDTH 667 0
DWIDTH 16 0
BBX 16 23 2 0
BITMAP
018C
018C
0000
0000
0FFF
0FFF
0C00
0C00
1800
1800
1800
1800
3FF8
3FF8
3000
3000
6000
6000
6000
6000
C000
FFF0
FFF0
ENDCHAR
STARTCHAR Igrave
ENCODING 204
SWIDTH 278 0
DWIDTH 8 0
BBX 7 24 3 0
BITMAP
30
18
0C
06
00
0C
0C
0C
0C
18
18
18
18
30
30
30
30
60
60
60
60
C0
C0
C0
ENDCHAR
STARTCHAR Iacute
ENCODING 205
SWIDTH 278 0
DWIDTH 8 0
BBX 9 24 3 0
BITMAP
0180
0300
0600
0C00
0000
0C00
0C00
0C00
0C00
1800
1800
1800
1800
3000
3000
3000
3000
6000
6000
6000
6000
C000
C000
C000
ENDCHAR
STARTCHAR Icircumflex
ENCODING 206
SWIDTH 278 0
DWIDTH 8 0
BBX 9 24 3 0
BITMAP
0700
0F00
1980
3180
0000
0C00
0C00
0C00
0C00
1800
1800
1800
1800
3000
3000
3000
3000
6000
6000
6000
6000
C000
C000
C000
ENDCHAR
STARTCHAR Idieresis
ENCODING 207
SWIDTH 278 0
DWIDTH 8 0
BBX 9 23 3 0
BITMAP
1980
1980
0000
0000
0C00
0C00
0C00
0C00
1800
1800
1800
1800
3000
3000
3000
3000
6000
6000
6000
6000
C000
C000
C000
ENDCHAR
STARTCHAR Eth
ENCODING 208
SWIDTH 722 0
DWIDTH 18 0
BBX 18 19 2 0
BITMAP
0FFC00
0FFF00
0C0780
0C0180
1801C0
1800C0
1800C0
1800C0
FF00C0
FF0180
300180
300180
600300
600700
600E00
601C00
C07800
FFF000
FFC000
ENDCHAR
STARTCHAR Ntilde
ENCODING 209
SWIDTH 722 0
DWIDTH 18 0
BBX 18 23 2 0
BITMAP
007100
00DB00
008E00
000000
0E00C0
0E00C0
0E00C0
0F00C0
1B0180
1B0180
198180
198180
318300
30C300
30C300
30C300
606600
606600
603600
603600
C01C00
C01C00
C01C00
ENDCHAR
STARTCHAR Ograve
ENCODING 210
SWIDTH 778 0
DWIDTH 18 0
BBX 18 24 2 0
BITMAP
00C000
006000
003000
001800
000000
00FC00
03FF00
078780
0E0180
1C01C0
3800C0
3000C0
7000C0
6001C0
600180
E00180
C00380
C00300
C00700
E00E00
601C00
787800
3FF000
0FC000
ENDCHAR
STARTCHAR Oacute
ENCODING 211
SWIDTH 778 0
DWIDTH 18 0
BBX 18 24 2 0
BITMAP
000180
000300
000600
000C00
000000
00FC00
03FF00
078780
0E0180
1C01C0
3800C0
3000C0
7000C0
6001C0
600180
E00180
C00380
C00300
C00700
E00E00
601C00
787800
3FF000
0FC000
ENDCHAR
STARTCHAR Ocircumflex
ENCODING 212
SWIDTH 778 0
DWIDTH 18 0
BBX 18 24 2 0
BITMAP
000E00
001E00
003300
006300
000000
00FC00
03FF00
078780
0E0180
1C01C0
3800C0
3000C0
7000C0
6001C0
600180
E00180
C00380
C00300
C00700
E00E00
601C00
787800
3FF000
0FC000
ENDCHAR
STARTCHAR Otilde
ENCODING 213
SWIDTH 778 0
DWIDTH 18 0
BBX 18 23 2 0
BITMAP
007100
00DB00
008E00
000000
00FC00
03FF00
078780
0E0180
1C01C0
3800C0
3000C0
7000C0
6001C0
600180
E00180
C00380
C00300
C00700
E00E00
601C00
787800
3FF000
0FC000
ENDCHAR
STARTCHAR Odieresis
ENCODING 214
SWIDTH 778 0
DWIDTH 18 0
BBX 18 23 2 0
BITMAP
00C600
00C600
000000
000000
00FC00
03FF00
078780
0E0180
1C01C0
3800C0
3000C0
7000C0
6001C0
600180
E00180
C00380
C00300
C00700
E00E00
601C00
787800
3FF000
0FC000
ENDCHAR
STARTCHAR multiply
ENCODING 215
SWIDTH 584 0
DWIDTH 14 0
BBX 14 13 1 0
BITMAP
2008
701C
3838
1C70
0EE0
07C0
0780
0F80
1DC0
38E0
7070
E038
4010
ENDCHAR
STARTCHAR Oslash
ENCODING 216
SWIDTH 778 0
DWIDTH 18 0
BBX 20 19 1 0
BITMAP
007E30
01FF60
03C3C0
0701C0
0C03E0
1C0660
180C60
301860
303060
3060C0
60C0C0
6181C0
630180
660300
6C0700
780E00
383C00
7FF800
C7E000
ENDCHAR
STARTCHAR Ugrave
ENCODING 217
SWIDTH 722 0
DWIDTH 18 0
BBX 17 24 3 0
BITMAP
030000
018000
00C000
006000
000000
180180
180180
180180
180180
300300
300300
300300
300300
600600
600600
600600
600C00
C00C00
C01C00
C01800
E03800
607000
7FE000
1F8000
ENDCHAR
STARTCHAR Uacute
ENCODING 218
SWIDTH 722 0
DWIDTH 18 0
BBX 17 24 3 0
BITMAP
000C00
001800
003000
006000
000000
180180
180180
180180
180180
300300
300300
300300
300300
600600
600600
600600
600C00
C00C00
C01C00
C01800
E03800
607000
7FE000
1F8000
ENDCHAR
STARTCHAR Ucircumflex
ENCODING 219
SWIDTH 722 0
DWIDTH 18 0
BBX 17 24 3 0
BITMAP
003800
007800
00CC00
018C00
000000
180180
180180
180180
180180
300300
300300
300300
300300
600600
600600
600600
600C00
C00C00
C01C00
C01800
E03800
607000
7FE000
1F8000
ENDCHAR
STARTCHAR Udieresis
ENCODING 220
SWIDTH 722 0
DWIDTH 18 0
BBX 17 23 3 0
BITMAP
018600
018600
000000
000000
180180
180180
180180
180180
300300
300300
300300
300300
600600
600600
600600
600C00
C00C00
C01C00
C01800
E03800
607000
7FE000
1F8000
ENDCHAR
STARTCHAR Yacute
ENCODING 221
SWIDTH 667 0
DWIDTH 16 0
BBX 15 24 5 0
BITMAP
00C0
0180
0300
0600
0000
C00E
C01C
C038
6070
60E0
61C0
3180
3300
3700
3E00
1C00
1800
1800
1800
3000
3000
3000
3000
3000
ENDCHAR
STARTCHAR Thorn
ENCODING 222
SWIDTH 667 0
DWIDTH 16 0
BBX 15 19 2 0
BITMAP
0C00
0C00
0C00
0C00
1FF0
1FFC
180E
1806
3806
3006
300C
301C
7FF8
7FE0
6000
6000
C000
C000
C000
ENDCHAR
STARTCHAR germandbls
ENCODING 223
SWIDTH 611 0
DWIDTH 15 0
BBX 12 19 3 0
BITMAP
01E0
07F0
0E30
0C30
1830
1830
1860
18E0
3380
33C0
30E0
3060
6060
6060
6060
60C0
C1C0
CF80
CE00
ENDCHAR
STARTCHAR agrave
ENCODING 224
SWIDTH 556 0
DWIDTH 13 0
BBX 11 19 2 0
BITMAP
0C00
0600
0300
0180
0000
07C0
1FE0
3860
3060
00E0
07C0
1FC0
78C0
60C0
C180
C380
C780
FDC0
78C0
ENDCHAR
STARTCHAR aacute
ENCODING 225
SWIDTH 556 0
DWIDTH 13 0
BBX 11 19 2 0
BITMAP
0060
00C0
0180
0300
0000
07C0
1FE0
3860
3060
00E0
07C0
1FC0
78C0
61C0
C180
C380
C780
FDC0
78C0
ENDCHAR
STARTCHAR acircumflex
ENCODING 226
SWIDTH 556 0
DWIDTH 13 0
BBX 11 19 2 0
BITMAP
01C0
03C0
0660
0C60
0000
07C0
1FE0
3860
3060
00E0
07C0
1FC0
78C0
61C0
C180
C380
C780
FDC0
78C0
ENDCHAR
STARTCHAR atilde
ENCODING 227
SWIDTH 556 0
DWIDTH 13 0
BBX 12 18 2 0
BITMAP
0710
0DB0
08E0
0000
07C0
1FE0
3860
3060
00E0
07C0
1FC0
78C0
61C0
C180
C380
C780
FDC0
78C0
ENDCHAR
STARTCHAR adieresis
ENCODING 228
SWIDTH 556 0
DWIDTH 13 0
BBX 11 18 2 0
BITMAP
0CC0
0CC0
0000
0000
07C0
1FE0
3860
3060
00E0
07C0
1FC0
78C0
61C0
C180
C380
C780
FDC0
78C0
ENDCHAR
STARTCHAR aring
ENCODING 229
SWIDTH 556 0
DWIDTH 13 0
BBX 11 19 2 0
BITMAP
01C0
0240
0240
0380
0000
07C0
1FE0
3860
3060
00E0
07C0
1FC0
78C0
61C0
C180
C380
C780
FDC0
78C0
ENDCHAR
STARTCHAR ae
ENCODING 230
SWIDTH 889 0
DWIDTH 21 0
BBX 20 14 2 0
BITMAP
07E7C0
1FEFE0
383C70
307030
006030
07E030
1FFFF0
78FFE0
E0C000
C1C000
C1C0C0
C7E1C0
FF7F80
7C3E00
ENDCHAR
STARTCHAR ccedilla
ENCODING 231
SWIDTH 500 0
DWIDTH 12 0
BBX 11 19 2 -5
BITMAP
07C0
0FE0
1C60
3060
7000
6000
E000
C000
C000
C000
C180
E380
7F00
3E00
3000
1800
1800
F800
7000
ENDCHAR
STARTCHAR egrave
ENCODING 232
SWIDTH 556 0
DWIDTH 13 0
BBX 12 19 2 0
BITMAP
0C00
0600
0300
0180
0000
03C0
0FE0
1C70
3830
7030
6070
FFE0
FFE0
C000
C000
C0C0
E1C0
7F80
3E00
ENDCHAR
STARTCHAR eacute
ENCODING 233
SWIDTH 556 0
DWIDTH 13 0
BBX 12 19 2 0
BITMAP
0030
0060
00C0
0180
0000
03C0
0FE0
1C70
3830
7030
6070
FFE0
FFE0
C000
C000
C0C0
E1C0
7F80
3E00
ENDCHAR
STARTCHAR ecircumflex
ENCODING 234
SWIDTH 556 0
DWIDTH 13 0
BBX 12 19 2 0
BITMAP
00E0
01E0
0330
0630
0000
03C0
0FE0
1C70
3030
7030
6070
FFE0
FFE0
C000
C000
C0C0
E1C0
7F80
3E00
ENDCHAR
STARTCHAR edieresis
ENCODING 235
SWIDTH 556 0
DWIDTH 13 0
BBX 12 18 2 0
BITMAP
0660
0660
0000
0000
03C0
0FE0
1C70
3830
7030
6070
FFE0
FFE0
C000
C000
C0C0
E1C0
7F80
3E00
ENDCHAR
STARTCHAR igrave
ENCODING 236
SWIDTH 278 0
DWIDTH 6 0
BBX 6 19 2 0
BITMAP
60
30
18
0C
00
18
18
18
30
30
30
30
60
60
60
60
C0
C0
C0
ENDCHAR
STARTCHAR iacute
ENCODING 237
SWIDTH 278 0
DWIDTH 6 0
BBX 8 19 2 0
BITMAP
03
06
0C
18
00
18
18
18
30
30
30
30
60
60
60
60
C0
C0
C0
ENDCHAR
STARTCHAR icircumflex
ENCODING 238
SWIDTH 278 0
DWIDTH 6 0
BBX 8 19 2 0
BITMAP
0E
1E
33
63
00
18
18
18
30
30
30
30
60
60
60
60
C0
C0
C0
ENDCHAR
STARTCHAR idieresis
ENCODING 239
SWIDTH 278 0
DWIDTH 6 0
BBX 8 18 2 0
BITMAP
33
33
00
00
18
18
18
30
30
30
30
60
60
60
60
C0
C0
C0
ENDCHAR
STARTCHAR eth
ENCODING 240
SWIDTH 556 0
DWIDTH 13 0
BBX 12 19 2 0
BITMAP
1800
0E30
03C0
0780
18C0
07E0
0FE0
1C70
3030
7030
6030
E030
C070
C060
C0E0
C0C0
E380
7F00
3E00
ENDCHAR
STARTCHAR ntilde
ENCODING 241
SWIDTH 556 0
DWIDTH 14 0
BBX 13 18 2 0
BITMAP
0388
06D8
0470
0000
19C0
1BF0
1E30
3C30
3830
3030
3030
6060
6060
6060
6060
C0C0
C0C0
C0C0
ENDCHAR
STARTCHAR ograve
ENCODING 242
SWIDTH 556 0
DWIDTH 13 0
BBX 12 19 2 0
BITMAP
0C00
0600
0300
0180
0000
07C0
0FE0
1C70
3030
7030
6030
E030
C070
C060
C0E0
C0C0
E380
7F00
3E00
ENDCHAR
STARTCHAR oacute
ENCODING 243
SWIDTH 556 0
DWIDTH 13 0
BBX 12 19 2 0
BITMAP
0030
0060
00C0
0180
0000
07C0
0FE0
1C70
3030
7030
6030
E030
C070
C060
C0E0
C0C0
E380
7F00
3E00
ENDCHAR
STARTCHAR ocircumflex
ENCODING 244
SWIDTH 556 0
DWIDTH 13 0
BBX 12 19 2 0
BITMAP
00E0
01E0
0330
0630
0000
07C0
0FE0
1C70
3030
7030
6030
E030
C070
C060
C0E0
C0C0
E380
7F00
3E00
ENDCHAR
STARTCHAR otilde
ENCODING 245
SWIDTH 556 0
DWIDTH 13 0
BBX 12 18 2 0
BITMAP
0710
0DB0
08E0
0000
07C0
0FE0
1C70
3030
7030
6030
E030
C070
C060
C0E0
C0C0
E380
7F00
3E00
ENDCHAR
STARTCHAR odieresis
ENCODING 246
SWIDTH 556 0
DWIDTH 13 0
BBX 12 18 2 0
BITMAP
0330
0330
0000
0000
07C0
0FE0
1C70
3030
7030
6030
E030
C070
C060
C0E0
C0C0
E380
7F00
3E00
ENDCHAR
STARTCHAR divide
ENCODING 247
SWIDTH 584 0
DWIDTH 14 0
BBX 12 12 2 1
BITMAP
0300
0300
0300
0000
0000
FFF0
FFF0
0000
0000
0C00
0C00
0C00
ENDCHAR
STARTCHAR oslash
ENCODING 248
SWIDTH 611 0
DWIDTH 13 0
BBX 16 15 0 0
BITMAP
0003
01F6
03FC
0718
0C3C
1C6C
18CC
398C
331C
3618
3C38
1830
38E0
7FC0
CF80
ENDCHAR
STARTCHAR ugrave
ENCODING 249
SWIDTH 556 0
DWIDTH 14 0
BBX 12 19 3 0
BITMAP
1800
0C00
0600
0300
0000
3030
3030
3030
6060
6060
6060
6060
C0C0
C0C0
C0C0
C1C0
C780
FD80
7980
ENDCHAR
STARTCHAR uacute
ENCODING 250
SWIDTH 556 0
DWIDTH 14 0
BBX 12 19 3 0
BITMAP
0060
00C0
0180
0300
0000
3030
3030
3030
6060
6060
6060
6060
C0C0
C0C0
C0C0
C1C0
C780
FD80
7980
ENDCHAR
STARTCHAR ucircumflex
ENCODING 251
SWIDTH 556 0
DWIDTH 14 0
BBX 12 19 3 0
BITMAP
01C0
03C0
0660
0C60
0000
3030
3030
3030
6060
6060
6060
6060
C0C0
C0C0
C0C0
C1C0
C780
FD80
7980
ENDCHAR
STARTCHAR udieresis
ENCODING 252
SWIDTH 556 0
DWIDTH 14 0
BBX 12 18 3 0
BITMAP
0660
0660
0000
0000
3030
3030
3030
6060
6060
6060
6060
C0C0
C0C0
C0C0
C1C0
C780
FD80
7980
ENDCHAR
STARTCHAR yacute
ENCODING 253
SWIDTH 500 0
DWIDTH 13 0
BBX 14 24 1 -5
BITMAP
0030
0060
00C0
0180
0000
300C
300C
301C
3818
1830
1870
1860
0CE0
0CC0
0D80
0780
0700
0700
0600
0C00
1C00
3800
F000
E000
ENDCHAR
STARTCHAR thorn
ENCODING 254
SWIDTH 556 0
DWIDTH 14 0
BBX 14 24 1 -5
BITMAP
0600
0600
0600
0600
0C00
0CF0
0FF8
0F1C
1C0C
180C
181C
1818
3018
3038
3030
3070
78E0
7FC0
6780
6000
C000
C000
C000
C000
ENDCHAR
STARTCHAR ydieresis
ENCODING 255
SWIDTH 500 0
DWIDTH 13 0
BBX 14 22 1 -5
BITMAP
0630
0630
0000
300C
300C
301C
3818
1830
1870
1860
0CE0
0CC0
0D80
0780
0700
0700
0600
0C00
1C00
3800
F000
E000
ENDCHAR
STARTCHAR Amacron
ENCODING 256
SWIDTH 667 0
DWIDTH 17 0
BBX 15 22 1 0
BITMAP
01F8
01F8
0000
0030
0070
0070
00F8
00D8
0198
0198
0318
0718
060C
0C0C
0FFC
1FFC
180C
3006
7006
6006
E006
E006
ENDCHAR
STARTCHAR amacron
ENCODING 257
SWIDTH 556 0
DWIDTH 13 0
BBX 11 17 2 0
BITMAP
1F80
1F80
0000
07C0
1FE0
3860
3060
00E0
07C0
1FC0
78C0
6180
C180
C380
C780
FDC0
78C0
ENDCHAR
STARTCHAR Abreve
ENCODING 258
SWIDTH 667 0
DWIDTH 17 0
BBX 15 24 1 0
BITMAP
0204
030C
01F8
00F0
0000
0030
0070
0070
00F8
00D8
0198
0198
0318
0718
060C
0C0C
0FFC
1FFC
180C
3006
7006
6006
E006
E006
ENDCHAR
STARTCHAR abreve
ENCODING 259
SWIDTH 556 0
DWIDTH 13 0
BBX 11 19 2 0
BITMAP
2040
30C0
1F80
0F00
0000
07C0
1FE0
3860
3060
00E0
07C0
1FC0
78C0
6180
C180
C380
C780
FDC0
78C0
ENDCHAR
STARTCHAR Aogonek
ENCODING 260
SWIDTH 667 0
DWIDTH 17 0
BBX 15 24 1 -5
BITMAP
0030
0070
0070
00F8
00D8
0198
0198
0318
0718
060C
0C0C
0FFC
1FFC
180C
3006
7006
6006
E006
E186
0300
0600
0600
07C0
0380
ENDCHAR
STARTCHAR aogonek
ENCODING 261
SWIDTH 556 0
DWIDTH 13 0
BBX 11 19 2 -5
BITMAP
07C0
1FE0
3860
3060
00E0
07C0
1FC0
78C0
6180
C180
C380
C780
FDC0
7EC0
0C00
1800
1800
1F00
0E00
ENDCHAR
STARTCHAR Cacute
ENCODING 262
SWIDTH 722 0
DWIDTH 18 0
BBX 17 24 2 0
BITMAP
001800
003000
006000
00C000
000000
00FE00
03FF00
078380
0E0180
180180
380000
300000
700000
600000
600000
E00000
C00000
C00000
C00600
E00E00
601C00
787800
3FF000
0FC000
ENDCHAR
STARTCHAR cacute
ENCODING 263
SWIDTH 500 0
DWIDTH 12 0
BBX 11 19 2 0
BITMAP
00C0
0180
0300
0600
0000
07C0
0FE0
1C60
3060
7000
6000
E000
C000
C000
C000
C180
E380
7F00
3E00
ENDCHAR
STARTCHAR Ccircumflex
ENCODING 264
SWIDTH 722 0
DWIDTH 18 0
BBX 17 24 2 0
BITMAP
006000
00F000
019800
030C00
000000
00FE00
03FF00
078380
0E0180
180180
380000
300000
700000
600000
600000
E00000
C00000
C00000
C00600
E00E00
601C00
787800
3FF000
0FC000
ENDCHAR
STARTCHAR ccircumflex
ENCODING 265
SWIDTH 500 0
DWIDTH 12 0
BBX 11 19 2 0
BITMAP
0300
0780
0CC0
1860
0000
07C0
0FE0
1C60
3060
7000
6000
E000
C000
C000
C000
C180
E380
7F00
3E00
ENDCHAR
STARTCHAR Cdotaccent
ENCODING 266
SWIDTH 722 0
DWIDTH 18 0
BBX 17 22 2 0
BITMAP
006000
006000
000000
00FE00
03FF00
078380
0E0180
180180
380000
300000
700000
600000
600000
E00000
C00000
C00000
C00600
E00E00
601C00
787800
3FF000
0FC000
ENDCHAR
STARTCHAR cdotaccent
ENCODING 267
SWIDTH 500 0
DWIDTH 12 0
BBX 11 17 2 0
BITMAP
0300
0300
0000
07C0
0FE0
1C60
3060
7000
6000
E000
C000
C000
C000
C180
E380
7F00
3E00
ENDCHAR
STARTCHAR Ccaron
ENCODING 268
SWIDTH 722 0
DWIDTH 18 0
BBX 17 24 2 0
BITMAP
030C00
019800
00F000
006000
000000
00FE00
03FF00
078380
0E0180
180180
380000
300000
700000
600000
600000
E00000
C00000
C00000
C00600
E00E00
601C00
787800
3FF000
0FC000
ENDCHAR
STARTCHAR ccaron
ENCODING 269
SWIDTH 500 0
DWIDTH 12 0
BBX 11 19 2 0
BITMAP
1860
0CC0
0780
0300
0000
07C0
0FE0
1C60
3060
7000
6000
E000
C000
C000
C000
C180
E380
7F00
3E00
ENDCHAR
STARTCHAR Dcaron
ENCODING 270
SWIDTH 722 0
DWIDTH 18 0
BBX 18 24 2 0
BITMAP
030C00
019800
00F000
006000
000000
0FFC00
0FFF00
0C0780
0C0180
1801C0
1800C0
1800C0
1800C0
3000C0
3001C0
300180
300380
600300
600700
600E00
601C00
C07800
FFF000
FFC000
ENDCHAR
STARTCHAR dcaron
ENCODING 271
SWIDTH 750 0
DWIDTH 19 0
BBX 19 19 2 0
BITMAP
000C60
000C60
000C60
001820
001860
0798C0
0FF800
1C7000
383000
703000
603000
603000
E06000
C06000
C06000
C0E000
E3C000
7FC000
3CC000
ENDCHAR
STARTCHAR Dcroat
ENCODING 272
SWIDTH 722 0
DWIDTH 18 0
BBX 18 19 2 0
BITMAP
0FFC00
0FFF00
0C0780
0C0180
1801C0
1800C0
1800C0
1800C0
FF00C0
FF0180
300180
300180
600300
600700
600E00
601C00
C07800
FFF000
FFC000
ENDCHAR
STARTCHAR dcroat
ENCODING 273
SWIDTH 556 0
DWIDTH 14 0
BBX 14 19 2 0
BITMAP
000C
000C
000C
01F8
01F8
0798
0FF8
1C70
3830
7030
6030
6030
E060
C060
C060
C0E0
E3C0
7FC0
3CC0
ENDCHAR
STARTCHAR Emacron
ENCODING 274
SWIDTH 667 0
DWIDTH 16 0
BBX 16 22 2 0
BITMAP
03F0
03F0
0000
0FFF
0FFF
0C00
0C00
1800
1800
1800
1800
3FF8
3FF8
3000
3000
6000
6000
6000
6000
C000
FFF0
FFF0
ENDCHAR
STARTCHAR emacron
ENCODING 275
SWIDTH 556 0
DWIDTH 13 0
BBX 12 17 2 0
BITMAP
0FC0
0FC0
0000
03C0
0FE0
1C70
3830
7030
6070
FFE0
FFE0
C000
C000
C0C0
E1C0
7F80
3E00
ENDCHAR
STARTCHAR Ebreve
ENCODING 276
SWIDTH 667 0
DWIDTH 16 0
BBX 16 24 2 0
BITMAP
0408
0618
03F0
01E0
0000
0FFF
0FFF
0C00
0C00
1800
1800
1800
1800
3FF8
3FF8
3000
3000
6000
6000
6000
6000
C000
FFF0
FFF0
ENDCHAR
STARTCHAR ebreve
ENCODING 277
SWIDTH 556 0
DWIDTH 13 0
BBX 12 19 2 0
BITMAP
1020
1860
0FC0
0780
0000
03C0
0FE0
1C70
3830
7030
6070
FFE0
FFE0
C000
C000
C0C0
E1C0
7F80
3E00
ENDCHAR
STARTCHAR Edotaccent
ENCODING 278
SWIDTH 667 0
DWIDTH 16 0
BBX 16 22 2 0
BITMAP
00C0
00C0
0000
0FFF
0FFF
0C00
0C00
1800
1800
1800
1800
3FF8
3FF8
3000
3000
6000
6000
6000
6000
C000
FFF0
FFF0
ENDCHAR
STARTCHAR edotaccent
ENCODING 279
SWIDTH 556 0
DWIDTH 13 0
BBX 12 17 2 0
BITMAP
0300
0300
0000
03C0
0FE0
1C70
3830
7030
6070
FFE0
FFE0
C000
C000
C0C0
E1C0
7F80
3E00
ENDCHAR
STARTCHAR Eogonek
ENCODING 280
SWIDTH 667 0
DWIDTH 16 0
BBX 16 24 2 -5
BITMAP
0FFF
0FFF
0C00
0C00
1800
1800
1800
1800
3FF8
3FF8
3000
3000
6000
6000
6000
6000
C000
FFF0
FFF0
0600
0C00
0C00
0F80
0700
ENDCHAR
STARTCHAR eogonek
ENCODING 281
SWIDTH 556 0
DWIDTH 13 0
BBX 12 19 2 -5
BITMAP
03C0
0FE0
1C70
3830
7030
6070
FFE0
FFE0
C000
C000
C0C0
E1C0
7F80
3E00
0C00
1800
1800
1F00
0E00
ENDCHAR
STARTCHAR Ecaron
ENCODING 282
SWIDTH 667 0
DWIDTH 16 0
BBX 16 24 2 0
BITMAP
0618
0330
01E0
00C0
0000
0FFF
0FFF
0C00
0C00
1800
1800
1800
1800
3FF8
3FF8
3000
3000
6000
6000
6000
6000
C000
FFF0
FFF0
ENDCHAR
STARTCHAR ecaron
ENCODING 283
SWIDTH 556 0
DWIDTH 13 0
BBX 12 19 2 0
BITMAP
1860
0CC0
0780
0300
0000
03C0
0FE0
1C70
3830
7030
6070
FFE0
FFE0
C000
C000
C0C0
E1C0
7F80
3E00
ENDCHAR
STARTCHAR Gcircumflex
ENCODING 284
SWIDTH 778 0
DWIDTH 19 0
BBX 17 24 2 0
BITMAP
006000
00F000
019800
030C00
000000
00FE00
03FF00
078380
0E0180
180180
380000
300000
700000
600000
603F80
E03F80
C00380
C00300
C00700
E00E00
601E00
787600
3FEC00
0FCC00
ENDCHAR
STARTCHAR gcircumflex
ENCODING 285
SWIDTH 556 0
DWIDTH 14 0
BBX 15 24 0 -5
BITMAP
00C0
01E0
0330
0618
0000
00F6
03FE
071E
0C0C
1C0C
180C
181C
3818
3018
3038
3038
38F0
1FF0
07B0
0030
C060
E0E0
7FC0
1F00
ENDCHAR
STARTCHAR Gbreve
ENCODING 286
SWIDTH 778 0
DWIDTH 19 0
BBX 17 24 2 0
BITMAP
020400
030C00
01F800
00F000
000000
00FE00
03FF00
078380
0E0180
180180
380000
300000
700000
600000
603F80
E03F80
C00380
C00300
C00700
E00E00
601E00
787600
3FEC00
0FCC00
ENDCHAR
STARTCHAR gbreve
ENCODING 287
SWIDTH 556 0
DWIDTH 14 0
BBX 15 24 0 -5
BITMAP
0408
0618
03F0
01E0
0000
00F6
03FE
071E
0C0C
1C0C
180C
181C
3818
3018
3038
3038
38F0
1FF0
07B0
0030
C060
E0E0
7FC0
1F00
ENDCHAR
STARTCHAR Gdotaccent
ENCODING 288
SWIDTH 778 0
DWIDTH 19 0
BBX 17 22 2 0
BITMAP
006000
006000
000000
00FE00
03FF00
078380
0E0180
180180
380000
300000
700000
600000
603F80
E03F80
C00380
C00300
C00700
E00E00
601E00
787600
3FEC00
0FCC00
ENDCHAR
STARTCHAR gdotaccent
ENCODING 289
SWIDTH 556 0
DWIDTH 14 0
BBX 15 22 0 -5
BITMAP
00C0
00C0
0000
00F6
03FE
071E
0C0C
1C0C
180C
181C
3818
3018
3038
3038
38F0
1FF0
07B0
0030
C060
E0E0
7FC0
1F00
ENDCHAR
STARTCHAR Gcommaaccent
ENCODING 290
SWIDTH 778 0
DWIDTH 19 0
BBX 17 26 2 -7
BITMAP
00FE00
03FF00
078380
0E0180
180180
380000
300000
700000
600000
603F80
E03F80
C00380
C00300
C00700
E00E00
601E00
787600
3FEC00
0FCC00
000000
018000
018000
018000
008000
018000
030000
ENDCHAR
STARTCHAR gcommaaccent
ENCODING 291
SWIDTH 556 0
DWIDTH 14 0
BBX 15 26 0 -5
BITMAP
0060
00C0
0080
00C0
00C0
00C0
0000
00F6
03FE
071E
0C0C
1C0C
180C
181C
3818
3018
3038
3038
38F0
1FF0
07B0
0030
C060
E0E0
7FC0
1F00
ENDCHAR
STARTCHAR Hcircumflex
ENCODING 292
SWIDTH 722 0
DWIDTH 18 0
BBX 18 24 2 0
BITMAP
006000
00F000
019800
030C00
000000
0C00C0
0C00C0
0C00C0
0C00C0
180180
180180
180180
180180
3FFF00
3FFF00
300300
300300
600600
600600
600600
600600
C00C00
C00C00
C00C00
ENDCHAR
STARTCHAR hcircumflex
ENCODING 293
SWIDTH 556 0
DWIDTH 13 0
BBX 12 24 2 0
BITMAP
0C00
1E00
3300
6180
0000
0C00
0C00
0C00
0C00
1800
19C0
1BF0
1E30
3C30
3830
3030
3030
6060
6060
6060
6060
C0C0
C0C0
C0C0
ENDCHAR
STARTCHAR Hbar
ENCODING 294
SWIDTH 722 0
DWIDTH 18 0
BBX 18 19 2 0
BITMAP
0C00C0
0C00C0
0C00C0
0C00C0
FFFFC0
FFFFC0
180180
180180
3FFF00
3FFF00
300300
300300
600600
600600
600600
600600
C00C00
C00C00
C00C00
ENDCHAR
STARTCHAR hbar
ENCODING 295
SWIDTH 556 0
DWIDTH 13 0
BBX 12 19 2 0
BITMAP
0C00
0C00
0C00
FC00
FC00
19C0
1BF0
1E30
3C30
3830
3030
3030
6060
6060
6060
6060
C0C0
C0C0
C0C0
ENDCHAR
STARTCHAR Itilde
ENCODING 296
SWIDTH 278 0
DWIDTH 8 0
BBX 8 23 3 0
BITMAP
71
DB
8E
00
0C
0C
0C
0C
18
18
18
18
30
30
30
30
60
60
60
60
C0
C0
C0
ENDCHAR
STARTCHAR itilde
ENCODING 297
SWIDTH 278 0
DWIDTH 6 0
BBX 8 18 1 0
BITMAP
71
DB
8E
00
0C
0C
0C
18
18
18
18
30
30
30
30
60
60
60
ENDCHAR
STARTCHAR Imacron
ENCODING 298
SWIDTH 278 0
DWIDTH 8 0
BBX 7 22 3 0
BITMAP
7E
7E
00
0C
0C
0C
0C
18
18
18
18
30
30
30
30
60
60
60
60
C0
C0
C0
ENDCHAR
STARTCHAR imacron
ENCODING 299
SWIDTH 278 0
DWIDTH 6 0
BBX 6 17 2 0
BITMAP
FC
FC
00
18
18
18
30
30
30
30
60
60
60
60
C0
C0
C0
ENDCHAR
STARTCHAR Ibreve
ENCODING 300
SWIDTH 278 0
DWIDTH 8 0
BBX 8 24 3 0
BITMAP
81
C3
7E
3C
00
0C
0C
0C
0C
18
18
18
18
30
30
30
30
60
60
60
60
C0
C0
C0
ENDCHAR
STARTCHAR ibreve
ENCODING 301
SWIDTH 278 0
DWIDTH 6 0
BBX 8 19 1 0
BITMAP
81
C3
7E
3C
00
0C
0C
0C
18
18
18
18
30
30
30
30
60
60
60
ENDCHAR
STARTCHAR Iogonek
ENCODING 302
SWIDTH 278 0
DWIDTH 8 0
BBX 7 24 2 -5
BITMAP
06
06
06
06
0C
0C
0C
0C
18
18
18
18
30
30
30
30
60
60
70
60
C0
C0
F8
70
ENDCHAR
STARTCHAR iogonek
ENCODING 303
SWIDTH 222 0
DWIDTH 6 0
BBX 7 24 1 -5
BITMAP
06
06
06
00
00
0C
0C
0C
18
18
18
18
30
30
30
30
60
60
70
60
C0
C0
F8
70
ENDCHAR
STARTCHAR Idotaccent
ENCODING 304
SWIDTH 278 0
DWIDTH 8 0
BBX 6 22 3 0
BITMAP
18
18
00
0C
0C
0C
0C
18
18
18
18
30
30
30
30
60
60
60
60
C0
C0
C0
ENDCHAR
STARTCHAR dotlessi
ENCODING 305
SWIDTH 278 0
DWIDTH 6 0
BBX 5 14 2 0
BITMAP
18
18
18
30
30
30
30
60
60
60
60
C0
C0
C0
ENDCHAR
STARTCHAR IJ
ENCODING 306
SWIDTH 764 0
DWIDTH 21 0
BBX 20 19 3 0
BITMAP
0C0030
0C0030
0C0030
0C0030
180060
180060
180060
180060
3000C0
3000C0
3000C0
3000C0
618180
618180
618380
618300
C1C700
C0FE00
C07C00
ENDCHAR
STARTCHAR ij
ENCODING 307
SWIDTH 433 0
DWIDTH 12 0
BBX 12 24 2 -5
BITMAP
0C30
0C30
0C30
0000
0000
1860
1860
1860
30C0
30C0
30C0
30C0
6180
6180
6180
6180
C300
C300
C300
0300
0600
0600
1E00
1C00
ENDCHAR
STARTCHAR Jcircumflex
ENCODING 308
SWIDTH 500 0
DWIDTH 13 0
BBX 14 24 2 0
BITMAP
0060
00F0
0198
030C
0000
0018
0018
0018
0018
0030
0030
0030
0030
0060
0060
0060
0060
C0C0
C0C0
C1C0
C180
E380
7F00
3E00
ENDCHAR
STARTCHAR jcircumflex
ENCODING 309
SWIDTH 222 0
DWIDTH 6 0
BBX 10 24 -1 -5
BITMAP
0600
0F00
1980
30C0
0000
0300
0300
0300
0600
0600
0600
0600
0C00
0C00
0C00
0C00
1800
1800
1800
1800
3000
3000
F000
E000
ENDCHAR
STARTCHAR Kcommaaccent
ENCODING 310
SWIDTH 667 0
DWIDTH 18 0
BBX 17 26 2 -7
BITMAP
0C0380
0C0700
0C0E00
0C1C00
187000
18E000
19C000
1B8000
3F0000
3F8000
39C000
30C000
60E000
607000
603000
603800
C01C00
C00C00
C00E00
000000
018000
018000
018000
008000
018000
030000
ENDCHAR
STARTCHAR kcommaaccent
ENCODING 311
SWIDTH 500 0
DWIDTH 12 0
BBX 12 26 2 -7
BITMAP
0C00
0C00
0C00
0C00
1800
1870
18E0
19C0
3380
3700
3E00
3E00
6700
6300
6380
6180
C1C0
C0C0
C0C0
0000
0600
0600
0600
0200
0600
0C00
ENDCHAR
STARTCHAR kgreenlandic
ENCODING 312
SWIDTH 500 0
DWIDTH 12 0
BBX 12 14 2 0
BITMAP
1870
18E0
19C0
3380
3700
3E00
3E00
6700
6300
6380
6180
C1C0
C0C0
C0C0
ENDCHAR
STARTCHAR Lacute
ENCODING 313
SWIDTH 556 0
DWIDTH 14 0
BBX 11 24 2 0
BITMAP
0300
0600
0C00
1800
0000
0C00
0C00
0C00
0C00
1800
1800
1800
1800
3000
3000
3000
3000
6000
6000
6000
6000
C000
FFE0
FFE0
ENDCHAR
STARTCHAR lacute
ENCODING 314
SWIDTH 222 0
DWIDTH 6 0
BBX 7 24 2 0
BITMAP
06
0C
18
30
00
0C
0C
0C
0C
18
18
18
18
30
30
30
30
60
60
60
60
C0
C0
C0
ENDCHAR
STARTCHAR Lcommaaccent
ENCODING 315
SWIDTH 556 0
DWIDTH 14 0
BBX 11 26 2 -7
BITMAP
0C00
0C00
0C00
0C00
1800
1800
1800
1800
3000
3000
3000
3000
6000
6000
6000
6000
C000
FFE0
FFE0
0000
0C00
0C00
0C00
0400
0C00
1800
ENDCHAR
STARTCHAR lcommaaccent
ENCODING 316
SWIDTH 222 0
DWIDTH 6 0
BBX 6 26 2 -7
BITMAP
0C
0C
0C
0C
18
18
18
18
30
30
30
30
60
60
60
60
C0
C0
C0
00
60
60
60
20
60
C0
ENDCHAR
STARTCHAR Lcaron
ENCODING 317
SWIDTH 750 0
DWIDTH 19 0
BBX 19 19 2 0
BITMAP
0C0060
0C0060
0C0060
0C0020
180060
1800C0
180000
180000
300000
300000
300000
300000
600000
600000
600000
600000
C00000
FFE000
FFE000
ENDCHAR
STARTCHAR lcaron
ENCODING 318
SWIDTH 433 0
DWIDTH 12 0
BBX 12 19 2 0
BITMAP
0C30
0C30
0C30
0C10
1830
1860
1800
1800
3000
3000
3000
3000
6000
6000
6000
6000
C000
C000
C000
ENDCHAR
STARTCHAR Ldot
ENCODING 319
SWIDTH 806 0
DWIDTH 19 0
BBX 17 19 2 0
BITMAP
0C0000
0C0000
0C0000
0C0000
180000
180000
180000
180000
300000
300000
300180
300180
600180
600000
600000
600000
C00000
FFE000
FFE000
ENDCHAR
STARTCHAR ldot
ENCODING 320
SWIDTH 489 0
DWIDTH 12 0
BBX 10 19 2 0
BITMAP
0C00
0C00
0C00
0C00
1800
1800
1800
1800
3000
3000
30C0
30C0
60C0
6000
6000
6000
C000
C000
C000
ENDCHAR
STARTCHAR Lslash
ENCODING 321
SWIDTH 556 0
DWIDTH 14 0
BBX 12 19 1 0
BITMAP
0600
0600
0600
0600
0C00
0D80
0F00
0E00
0C00
1800
3800
7800
F000
3000
3000
3000
6000
7FF0
7FF0
ENDCHAR
STARTCHAR lslash
ENCODING 322
SWIDTH 222 0
DWIDTH 6 0
BBX 8 19 2 0
BITMAP
0C
0C
0C
0C
18
18
1B
1E
78
F0
30
30
60
60
60
60
C0
C0
C0
ENDCHAR
STARTCHAR Nacute
ENCODING 323
SWIDTH 722 0
DWIDTH 18 0
BBX 18 24 2 0
BITMAP
001800
003000
006000
00C000
000000
0E00C0
0E00C0
0E00C0
0F00C0
1B0180
1B0180
198180
198180
318300
30C300
30C300
30C300
606600
606600
603600
603600
C01C00
C01C00
C01C00
ENDCHAR
STARTCHAR nacute
ENCODING 324
SWIDTH 556 0
DWIDTH 14 0
BBX 12 19 2 0
BITMAP
00C0
0180
0300
0600
0000
19C0
1BF0
1E30
3C30
3830
3030
3030
6060
6060
6060
6060
C0C0
C0C0
C0C0
ENDCHAR
STARTCHAR Ncommaaccent
ENCODING 325
SWIDTH 722 0
DWIDTH 18 0
BBX 18 26 2 -7
BITMAP
0E00C0
0E00C0
0E00C0
0F00C0
1B0180
1B0180
198180
198180
318300
30C300
30C300
30C300
606600
606600
603600
603600
C01C00
C01C00
C01C00
000000
00C000
00C000
00C000
004000
00C000
018000
ENDCHAR
STARTCHAR ncommaaccent
ENCODING 326
SWIDTH 556 0
DWIDTH 14 0
BBX 12 21 2 -7
BITMAP
19C0
1BF0
1E30
3C30
3830
3030
3030
6060
6060
6060
6060
C0C0
C0C0
C0C0
0000
0600
0600
0600
0200
0600
0C00
ENDCHAR
STARTCHAR Ncaron
ENCODING 327
SWIDTH 722 0
DWIDTH 18 0
BBX 18 24 2 0
BITMAP
030C00
019800
00F000
006000
000000
0E00C0
0E00C0
0E00C0
0F00C0
1B0180
1B0180
198180
198180
318300
30C300
30C300
30C300
606600
606600
603600
603600
C01C00
C01C00
C01C00
ENDCHAR
STARTCHAR ncaron
ENCODING 328
SWIDTH 556 0
DWIDTH 14 0
BBX 12 19 2 0
BITMAP
1860
0CC0
0780
0300
0000
19C0
1BF0
1E30
3C30
3830
3030
3030
6060
6060
6060
6060
C0C0
C0C0
C0C0
ENDCHAR
STARTCHAR napostrophe
ENCODING 329
SWIDTH 767 0
DWIDTH 20 0
BBX 15 19 5 0
BITMAP
6000
6000
6000
2000
6000
C338
037E
03C6
0786
0706
0606
0606
0C0C
0C0C
0C0C
0C0C
1818
1818
1818
ENDCHAR
STARTCHAR Eng
ENCODING 330
SWIDTH 722 0
DWIDTH 18 0
BBX 18 24 2 -5
BITMAP
0E00C0
0E00C0
0E00C0
0F00C0
1B0180
1B0180
198180
198180
318300
30C300
30C300
30C300
606600
606600
603600
603600
C01C00
C01C00
C01C00
000C00
001800
001800
007800
007000
ENDCHAR
STARTCHAR eng
ENCODING 331
SWIDTH 556 0
DWIDTH 14 0
BBX 12 19 2 -5
BITMAP
19C0
1BF0
1E30
3C30
3830
3030
3030
6060
6060
6060
6060
C0C0
C0C0
C0C0
00C0
0180
0180
0780
0700
ENDCHAR
STARTCHAR Omacron
ENCODING 332
SWIDTH 778 0
DWIDTH 18 0
BBX 18 22 2 0
BITMAP
01F800
01F800
000000
00FC00
03FF00
078780
0E0180
1C01C0
3800C0
3000C0
7000C0
6001C0
600180
E00180
C00380
C00300
C00700
E00E00
601C00
787800
3FF000
0FC000
ENDCHAR
STARTCHAR omacron
ENCODING 333
SWIDTH 556 0
DWIDTH 13 0
BBX 12 17 2 0
BITMAP
0FC0
0FC0
0000
07C0
0FE0
1C70
3030
7030
6030
E030
C070
C060
C0E0
C0C0
E380
7F00
3E00
ENDCHAR
STARTCHAR Obreve
ENCODING 334
SWIDTH 778 0
DWIDTH 18 0
BBX 18 24 2 0
BITMAP
020400
030C00
01F800
00F000
000000
00FC00
03FF00
078780
0E0180
1C01C0
3800C0
3000C0
7000C0
6001C0
600180
E00180
C00380
C00300
C00700
E00E00
601C00
787800
3FF000
0FC000
ENDCHAR
STARTCHAR obreve
ENCODING 335
SWIDTH 556 0
DWIDTH 13 0
BBX 12 19 2 0
BITMAP
1020
1860
0FC0
0780
0000
07C0
0FE0
1C70
3030
7030
6030
E030
C070
C060
C0E0
C0C0
E380
7F00
3E00
ENDCHAR
STARTCHAR Ohungarumlaut
ENCODING 336
SWIDTH 778 0
DWIDTH 18 0
BBX 18 23 2 0
BITMAP
006600
00CC00
019800
000000
00FC00
03FF00
078780
0E0180
1C01C0
3800C0
3000C0
7000C0
6001C0
600180
E00180
C00380
C00300
C00700
E00E00
601C00
787800
3FF000
0FC000
ENDCHAR
STARTCHAR ohungarumlaut
ENCODING 337
SWIDTH 556 0
DWIDTH 13 0
BBX 12 18 2 0
BITMAP
0330
0660
0CC0
0000
07C0
0FE0
1C70
3030
7030
6030
E030
C070
C060
C0E0
C0C0
E380
7F00
3E00
ENDCHAR
STARTCHAR OE
ENCODING 338
SWIDTH 1000 0
DWIDTH 23 0
BBX 24 19 2 0
BITMAP
00FBFF
03FFFF
078700
0E0300
180600
380600
300600
600600
600C00
600FFC
C00FFC
C00C00
C01800
C01800
E01800
601800
787000
3FFFF0
0FBFF0
ENDCHAR
STARTCHAR oe
ENCODING 339
SWIDTH 944 0
DWIDTH 22 0
BBX 21 14 2 0
BITMAP
07C3E0
0FE7F0
1C7E38
303818
603018
603018
C03FF8
C03FF0
C06000
C06000
C0E060
E3F0E0
7F3FC0
3E1F00
ENDCHAR
STARTCHAR Racute
ENCODING 340
SWIDTH 722 0
DWIDTH 17 0
BBX 16 24 2 0
BITMAP
0030
0060
00C0
0180
0000
0FFE
0FFF
0C03
0C03
1803
1803
1806
180E
3FFC
3FF8
301C
300C
600C
600C
600C
6018
C018
C018
C01C
ENDCHAR
STARTCHAR racute
ENCODING 341
SWIDTH 333 0
DWIDTH 9 0
BBX 9 19 2 0
BITMAP
0300
0600
0C00
1800
0000
1980
1B80
1E00
3C00
3800
3000
3000
6000
6000
6000
6000
C000
C000
C000
ENDCHAR
STARTCHAR Rcommaaccent
ENCODING 342
SWIDTH 722 0
DWIDTH 17 0
BBX 16 26 2 -7
BITMAP
0FFE
0FFF
0C03
0C03
1803
1803
1806
180E
3FFC
3FF8
301C
300C
600C
600C
600C
6018
C018
C018
C01C
0000
0180
0180
0180
0080
0180
0300
ENDCHAR
STARTCHAR rcommaaccent
ENCODING 343
SWIDTH 333 0
DWIDTH 9 0
BBX 9 21 2 -7
BITMAP
1980
1B80
1E00
3C00
3800
3000
3000
6000
6000
6000
6000
C000
C000
C000
0000
3000
3000
3000
1000
3000
6000
ENDCHAR
STARTCHAR Rcaron
ENCODING 344
SWIDTH 722 0
DWIDTH 17 0
BBX 16 24 2 0
BITMAP
0618
0330
01E0
00C0
0000
0FFE
0FFF
0C03
0C03
1803
1803
1806
180E
3FFC
3FF8
301C
300C
600C
600C
600C
6018
C018
C018
C01C
ENDCHAR
STARTCHAR rcaron
ENCODING 345
SWIDTH 333 0
DWIDTH 9 0
BBX 9 19 2 0
BITMAP
6180
3300
1E00
0C00
0000
1980
1B80
1E00
3C00
3800
3000
3000
6000
6000
6000
6000
C000
C000
C000
ENDCHAR
STARTCHAR Sacute
ENCODING 346
SWIDTH 667 0
DWIDTH 16 0
BBX 15 24 2 0
BITMAP
0030
0060
00C0
0180
0000
01F0
07FC
0E1E
1806
3006
3000
3800
1E00
0FC0
01F0
0038
001C
000C
C00C
C01C
E038
7070
3FE0
1F80
ENDCHAR
STARTCHAR sacute
ENCODING 347
SWIDTH 500 0
DWIDTH 12 0
BBX 12 19 1 0
BITMAP
00C0
0180
0300
0600
0000
07C0
1FF0
1830
3030
3000
3E00
1FC0
01E0
0060
0060
C060
E1C0
FF80
3F00
ENDCHAR
STARTCHAR Scircumflex
ENCODING 348
SWIDTH 667 0
DWIDTH 16 0
BBX 15 24 2 0
BITMAP
00C0
01E0
0330
0618
0000
01F0
07FC
0E1E
1806
3006
3000
3800
1E00
0FC0
01F0
0038
001C
000C
C00C
C01C
E038
7070
3FE0
1F80
ENDCHAR
STARTCHAR scircumflex
ENCODING 349
SWIDTH 500 0
DWIDTH 12 0
BBX 12 19 1 0
BITMAP
0300
0780
0CC0
1860
0000
07C0
1FF0
1830
3030
3000
3E00
1FC0
01E0
0060
0060
C060
E1C0
FF80
3F00
ENDCHAR
STARTCHAR Scedilla
ENCODING 350
SWIDTH 667 0
DWIDTH 16 0
BBX 15 24 2 -5
BITMAP
01F0
07FC
0E1E
1806
3006
3000
3800
1E00
0FC0
01F0
0038
001C
000C
C00C
C01C
E038
7070
3FE0
1F80
0300
0180
0180
0F80
0700
ENDCHAR
STARTCHAR scedilla
ENCODING 351
SWIDTH 500 0
DWIDTH 12 0
BBX 12 19 1 -5
BITMAP
07C0
1FF0
1830
3030
3000
3E00
1FC0
01E0
0060
0060
C060
E1C0
FF80
3F00
0C00
0600
0600
3E00
1C00
ENDCHAR
STARTCHAR Scaron
ENCODING 352
SWIDTH 667 0
DWIDTH 16 0
BBX 16 19 1 0
BITMAP
0186
00CC
0078
0030
0000
00F8
03FE
078F
0E03
0C03
0F00
07C0
01F0
C078
C01C
E01C
7838
3FF0
0FC0
ENDCHAR
STARTCHAR scaron
ENCODING 353
SWIDTH 500 0
DWIDTH 12 0
BBX 11 19 2 0
BITMAP
1860
0CC0
0780
0300
0000
0F80
1FC0
38C0
60C0
6000
7800
3F00
0780
01C0
00C0
C1C0
C380
FF00
7E00
ENDCHAR
STARTCHAR Tcommaaccent
ENCODING 354
SWIDTH 611 0
DWIDTH 16 0
BBX 14 24 5 -5
BITMAP
FFFC
FFFC
0300
0300
0600
0600
0600
0600
0C00
0C00
0C00
0C00
1800
1800
1800
1800
3000
3000
3C00
0C00
0600
0600
3E00
1C00
ENDCHAR
STARTCHAR tcommaaccent
ENCODING 355
SWIDTH 278 0
DWIDTH 8 0
BBX 7 23 3 -5
BITMAP
0C
0C
0C
18
7E
7E
18
18
30
30
30
60
60
60
C0
C0
F0
70
30
18
18
F8
70
ENDCHAR
STARTCHAR Tcaron
ENCODING 356
SWIDTH 611 0
DWIDTH 16 0
BBX 14 24 5 0
BITMAP
1860
0CC0
0780
0300
0000
FFFC
FFFC
0300
0300
0600
0600
0600
0600
0C00
0C00
0C00
0C00
1800
1800
1800
1800
3000
3000
3000
ENDCHAR
STARTCHAR tcaron
ENCODING 357
SWIDTH 486 0
DWIDTH 14 0
BBX 13 19 3 0
BITMAP
0018
0C18
0C18
0C08
1818
7E30
7E00
1800
1800
3000
3000
3000
6000
6000
6000
C000
C000
F000
7000
ENDCHAR
STARTCHAR Tbar
ENCODING 358
SWIDTH 611 0
DWIDTH 16 0
BBX 14 19 5 0
BITMAP
FFFC
FFFC
0300
0300
0600
0600
0600
0600
0FC0
0FC0
0C00
0C00
1800
1800
1800
1800
3000
3000
3000
ENDCHAR
STARTCHAR tbar
ENCODING 359
SWIDTH 278 0
DWIDTH 8 0
BBX 7 18 3 0
BITMAP
0C
0C
0C
18
7E
7E
18
18
30
30
7E
7E
60
60
C0
C0
F0
70
ENDCHAR
STARTCHAR Utilde
ENCODING 360
SWIDTH 722 0
DWIDTH 18 0
BBX 17 23 3 0
BITMAP
038800
06D800
047000
000000
180180
180180
180180
180180
300300
300300
300300
300300
600600
600600
600600
600C00
C00C00
C01C00
C01800
E03800
607000
7FE000
1F8000
ENDCHAR
STARTCHAR utilde
ENCODING 361
SWIDTH 556 0
DWIDTH 14 0
BBX 12 18 3 0
BITMAP
1C40
36C0
2380
0000
3030
3030
3030
6060
6060
6060
6060
C0C0
C0C0
C0C0
C1C0
C780
FD80
7980
ENDCHAR
STARTCHAR Umacron
ENCODING 362
SWIDTH 722 0
DWIDTH 18 0
BBX 17 22 3 0
BITMAP
03F000
03F000
000000
180180
180180
180180
180180
300300
300300
300300
300300
600600
600600
600600
600C00
C00C00
C01C00
C01800
E03800
607000
7FE000
1F8000
ENDCHAR
STARTCHAR umacron
ENCODING 363
SWIDTH 556 0
DWIDTH 14 0
BBX 12 17 3 0
BITMAP
0FC0
0FC0
0000
3030
3030
3030
6060
6060
6060
6060
C0C0
C0C0
C0C0
C1C0
C780
FD80
7980
ENDCHAR
STARTCHAR Ubreve
ENCODING 364
SWIDTH 722 0
DWIDTH 18 0
BBX 17 24 3 0
BITMAP
040800
061800
03F000
01E000
000000
180180
180180
180180
180180
300300
300300
300300
300300
600600
600600
600600
600C00
C00C00
C01C00
C01800
E03800
607000
7FE000
1F8000
ENDCHAR
STARTCHAR ubreve
ENCODING 365
SWIDTH 556 0
DWIDTH 14 0
BBX 12 19 3 0
BITMAP
1020
1860
0FC0
0780
0000
3030
3030
3030
6060
6060
6060
6060
C0C0
C0C0
C0C0
C1C0
C780
FD80
7980
ENDCHAR
STARTCHAR Uring
ENCODING 366
SWIDTH 722 0
DWIDTH 18 0
BBX 17 25 3 0
BITMAP
00C000
01E000
012000
01E000
00C000
000000
180180
180180
180180
180180
300300
300300
300300
300300
600600
600600
600600
600C00
C00C00
C01C00
C01800
E03800
607000
7FE000
1F8000
ENDCHAR
STARTCHAR uring
ENCODING 367
SWIDTH 556 0
DWIDTH 14 0
BBX 12 20 3 0
BITMAP
0300
0780
0480
0780
0300
0000
3030
3030
3030
6060
6060
6060
6060
C0C0
C0C0
C0C0
C1C0
C780
FD80
7980
ENDCHAR
STARTCHAR Uhungarumlaut
ENCODING 368
SWIDTH 722 0
DWIDTH 18 0
BBX 17 23 3 0
BITMAP
00CC00
019800
033000
000000
180180
180180
180180
180180
300300
300300
300300
300300
600600
600600
600600
600C00
C00C00
C01C00
C01800
E03800
607000
7FE000
1F8000
ENDCHAR
STARTCHAR uhungarumlaut
ENCODING 369
SWIDTH 556 0
DWIDTH 14 0
BBX 12 18 3 0
BITMAP
0660
0CC0
1980
0000
3030
3030
3030
6060
6060
6060
6060
C0C0
C0C0
C0C0
C1C0
C780
FD80
7980
ENDCHAR
STARTCHAR Uogonek
ENCODING 370
SWIDTH 722 0
DWIDTH 18 0
BBX 17 24 3 -5
BITMAP
180180
180180
180180
180180
300300
300300
300300
300300
600600
600600
600600
600C00
C00C00
C01C00
C01800
E03800
607000
7FE000
1F8000
030000
060000
060000
07C000
038000
ENDCHAR
STARTCHAR uogonek
ENCODING 371
SWIDTH 556 0
DWIDTH 14 0
BBX 12 19 3 -5
BITMAP
3030
3030
3030
6060
6060
6060
6060
C0C0
C0C0
C0C0
C1C0
C780
FD80
7F80
0C00
1800
1800
1F00
0E00
ENDCHAR
STARTCHAR Wcircumflex
ENCODING 372
SWIDTH 944 0
DWIDTH 22 0
BBX 20 24 5 0
BITMAP
006000
00F000
019800
030C00
000000
C06030
C06030
C0E060
C0E060
C1E0C0
C1E0C0
C36180
C36180
C76380
C66300
CE6700
CC6600
DC6E00
D86C00
D86C00
703800
703800
603000
603000
ENDCHAR
STARTCHAR wcircumflex
ENCODING 373
SWIDTH 722 0
DWIDTH 18 0
BBX 17 19 3 0
BITMAP
018000
03C000
066000
0C3000
000000
C0C180
C1C180
C3C300
C3C300
C6C600
C6C600
CCCC00
CCCC00
D8D800
78D800
707800
707000
606000
606000
ENDCHAR
STARTCHAR Ycircumflex
ENCODING 374
SWIDTH 667 0
DWIDTH 16 0
BBX 14 24 6 0
BITMAP
0300
0780
0CC0
1860
0000
C00C
C01C
C038
6070
6060
60C0
3180
3300
3700
3600
1C00
1800
1800
1800
3000
3000
3000
6000
6000
ENDCHAR
STARTCHAR ycircumflex
ENCODING 375
SWIDTH 500 0
DWIDTH 13 0
BBX 14 24 1 -5
BITMAP
0180
03C0
0660
0C30
0000
300C
300C
301C
3818
1830
1870
1860
0CE0
0CC0
0D80
0780
0700
0700
0600
0C00
1C00
3800
F000
E000
ENDCHAR
STARTCHAR Ydieresis
ENCODING 376
SWIDTH 667 0
DWIDTH 16 0
BBX 13 18 5 0
BITMAP
0CC0
0CC0
0000
0000
C018
C030
6060
60C0
6180
3300
3600
3C00
1800
1800
1800
3000
3000
3000
ENDCHAR
STARTCHAR Zacute
ENCODING 377
SWIDTH 611 0
DWIDTH 15 0
BBX 17 24 1 0
BITMAP
000C00
001800
003000
006000
000000
0FFF80
0FFF80
000380
000700
000E00
001C00
003800
007000
00E000
01C000
038000
070000
0E0000
1C0000
380000
700000
E00000
FFF800
FFF800
ENDCHAR
STARTCHAR zacute
ENCODING 378
SWIDTH 500 0
DWIDTH 12 0
BBX 13 19 1 0
BITMAP
0060
00C0
0180
0300
0000
1FF8
1FF8
0030
0060
00C0
0180
0300
0600
0C00
1800
3000
6000
FFC0
FFC0
ENDCHAR
STARTCHAR Zdotaccent
ENCODING 379
SWIDTH 611 0
DWIDTH 15 0
BBX 17 22 1 0
BITMAP
003000
003000
000000
0FFF80
0FFF80
000380
000700
000E00
001C00
003800
007000
00E000
01C000
038000
070000
0E0000
1C0000
380000
700000
E00000
FFF800
FFF800
ENDCHAR
STARTCHAR zdotaccent
ENCODING 380
SWIDTH 500 0
DWIDTH 12 0
BBX 13 17 1 0
BITMAP
0180
0180
0000
1FF8
1FF8
0030
0060
00C0
0180
0300
0600
0C00
1800
3000
6000
FFC0
FFC0
ENDCHAR
STARTCHAR Zcaron
ENCODING 381
SWIDTH 611 0
DWIDTH 15 0
BBX 16 19 1 0
BITMAP
0186
00CC
0078
0030
0000
0FFF
0FFE
001C
0038
0070
00E0
01C0
0380
0700
0E00
1C00
3800
7FF8
FFF8
ENDCHAR
STARTCHAR zcaron
ENCODING 382
SWIDTH 500 0
DWIDTH 12 0
BBX 13 19 1 0
BITMAP
0C30
0660
03C0
0180
0000
1FF8
1FF8
0030
0060
00C0
0180
0300
0600
0C00
1800
3000
6000
FFC0
FFC0
ENDCHAR
STARTCHAR uni0186
ENCODING 390
SWIDTH 722 0
DWIDTH 18 0
BBX 17 19 2 0
BITMAP
01F800
07FE00
0F0F00
1C0300
380380
300180
000180
000180
000380
000300
000300
000700
000600
000E00
C00C00
C03800
E0F000
7FE000
3F8000
ENDCHAR
STARTCHAR uni0189
ENCODING 393
SWIDTH 722 0
DWIDTH 18 0
BBX 18 19 2 0
BITMAP
0FFC00
0FFF00
0C0780
0C0180
1801C0
1800C0
1800C0
1800C0
FF00C0
FF0180
300180
300180
600300
600700
600E00
601C00
C07800
FFF000
FFC000
ENDCHAR
STARTCHAR uni018E
ENCODING 398
SWIDTH 667 0
DWIDTH 16 0
BBX 16 19 2 0
BITMAP
0FFF
0FFF
0003
0006
0006
0006
0006
000C
000C
1FFC
1FFC
0018
0018
0018
0018
0030
0030
FFF0
FFF0
ENDCHAR
STARTCHAR florin
ENCODING 402
SWIDTH 556 0
DWIDTH 11 0
BBX 14 23 0 -5
BITMAP
003C
00FC
00C0
0180
0180
0180
0FE0
0FE0
0300
0300
0300
0600
0600
0600
0600
0C00
0C00
0C00
0C00
1800
3800
F000
E000
ENDCHAR
STARTCHAR uni0197
ENCODING 407
SWIDTH 278 0
DWIDTH 8 0
BBX 6 19 3 0
BITMAP
0C
0C
0C
0C
18
18
18
18
FC
FC
30
30
60
60
60
60
C0
C0
C0
ENDCHAR
STARTCHAR uni019A
ENCODING 410
SWIDTH 222 0
DWIDTH 6 0
BBX 6 19 2 0
BITMAP
0C
0C
0C
0C
18
18
18
18
FC
FC
30
30
60
60
60
60
C0
C0
C0
ENDCHAR
STARTCHAR uni019D
ENCODING 413
SWIDTH 722 0
DWIDTH 18 0
BBX 21 24 -1 -5
BITMAP
01C018
01C018
01C018
01E018
036030
036030
033030
033030
063060
061860
061860
061860
0C0CC0
0C0CC0
0C06C0
0C06C0
180380
180380
180380
180000
300000
300000
F00000
E00000
ENDCHAR
STARTCHAR uni019F
ENCODING 415
SWIDTH 778 0
DWIDTH 18 0
BBX 18 19 2 0
BITMAP
00FC00
03FF00
078780
0E0180
1C01C0
3800C0
3000C0
7000C0
FFFFC0
FFFFC0
E00180
C00380
C00300
C00700
E00E00
601C00
787800
3FF000
0FC000
ENDCHAR
STARTCHAR Ohorn
ENCODING 416
SWIDTH 778 0
DWIDTH 18 0
BBX 19 19 2 0
BITMAP
00FC60
03FF60
0787E0
0E01A0
1C01E0
3800C0
3000C0
7000C0
6001C0
600180
E00180
C00380
C00300
C00700
E00E00
601C00
787800
3FF000
0FC000
ENDCHAR
STARTCHAR ohorn
ENCODING 417
SWIDTH 556 0
DWIDTH 13 0
BBX 14 14 2 0
BITMAP
07CC
0FEC
1C7C
3034
703C
6038
E030
C070
C060
C0E0
C0C0
E380
7F00
3E00
ENDCHAR
STARTCHAR Uhorn
ENCODING 431
SWIDTH 722 0
DWIDTH 18 0
BBX 18 19 3 0
BITMAP
1801C0
1801C0
1801C0
1801C0
3003C0
300380
300300
300300
600600
600600
600600
600C00
C00C00
C01C00
C01800
E03800
607000
7FE000
1F8000
ENDCHAR
STARTCHAR uhorn
ENCODING 432
SWIDTH 556 0
DWIDTH 14 0
BBX 14 14 3 0
BITMAP
303C
303C
303C
6064
606C
6078
6060
C0C0
C0C0
C0C0
C1C0
C780
FD80
7980
ENDCHAR
STARTCHAR uni01B5
ENCODING 437
SWIDTH 611 0
DWIDTH 15 0
BBX 17 19 1 0
BITMAP
0FFF80
0FFF80
000380
000700
000E00
001C00
003800
007000
03F000
03F000
038000
070000
0E0000
1C0000
380000
700000
E00000
FFF800
FFF800
ENDCHAR
STARTCHAR uni01B6
ENCODING 438
SWIDTH 500 0
DWIDTH 12 0
BBX 13 14 1 0
BITMAP
1FF8
1FF8
0030
0060
00C0
0180
0FC0
0FC0
0C00
1800
3000
6000
FFC0
FFC0
ENDCHAR
STARTCHAR uni01BB
ENCODING 443
SWIDTH 556 0
DWIDTH 13 0
BBX 14 18 1 0
BITMAP
03E0
07F8
0E1C
1C0C
180C
180C
001C
0038
FFFC
FFFC
0380
0F00
1C00
3800
7000
E000
FFE0
FFE0
ENDCHAR
STARTCHAR uni01BC
ENCODING 444
SWIDTH 556 0
DWIDTH 13 0
BBX 13 18 2 0
BITMAP
0FF8
0FF8
0C00
0C00
1800
1800
1F80
3FC0
38E0
0060
0060
0060
0060
C0E0
C0C0
C3C0
FF80
3E00
ENDCHAR
STARTCHAR uni01C0
ENCODING 448
SWIDTH 260 0
DWIDTH 6 0
BBX 7 24 1 -5
BITMAP
02
06
06
04
04
0C
0C
08
08
18
18
10
10
30
30
20
20
60
60
40
C0
C0
80
80
ENDCHAR
STARTCHAR uni01C2
ENCODING 450
SWIDTH 584 0
DWIDTH 15 0
BBX 11 24 3 -4
BITMAP
0080
0180
0180
0100
0100
0300
0300
0200
0200
0600
7FE0
7FE0
0400
FFC0
FFC0
0800
0800
1800
1800
1000
3000
3000
2000
2000
ENDCHAR
STARTCHAR uni01C3
ENCODING 451
SWIDTH 278 0
DWIDTH 7 0
BBX 6 19 3 0
BITMAP
0C
0C
0C
0C
18
18
18
18
30
30
30
30
60
60
00
00
C0
C0
C0
ENDCHAR
STARTCHAR uni01CD
ENCODING 461
SWIDTH 667 0
DWIDTH 17 0
BBX 15 24 1 0
BITMAP
030C
0198
00F0
0060
0000
0030
0070
0070
00F8
00D8
0198
0198
0318
0718
060C
0C0C
0FFC
1FFC
180C
3006
7006
6006
E006
E006
ENDCHAR
STARTCHAR uni01CE
ENCODING 462
SWIDTH 556 0
DWIDTH 13 0
BBX 11 19 2 0
BITMAP
30C0
1980
0F00
0600
0000
07C0
1FE0
3860
3060
00E0
07C0
1FC0
78C0
6180
C180
C380
C780
FDC0
78C0
ENDCHAR
STARTCHAR uni01CF
ENCODING 463
SWIDTH 278 0
DWIDTH 8 0
BBX 8 24 3 0
BITMAP
C3
66
3C
18
00
0C
0C
0C
0C
18
18
18
18
30
30
30
30
60
60
60
60
C0
C0
C0
ENDCHAR
STARTCHAR uni01D0
ENCODING 464
SWIDTH 278 0
DWIDTH 6 0
BBX 8 19 1 0
BITMAP
C3
66
3C
18
00
0C
0C
0C
18
18
18
18
30
30
30
30
60
60
60
ENDCHAR
STARTCHAR uni01D1
ENCODING 465
SWIDTH 778 0
DWIDTH 18 0
BBX 18 24 2 0
BITMAP
030C00
019800
00F000
006000
000000
00FC00
03FF00
078780
0E0180
1C01C0
3800C0
3000C0
7000C0
6001C0
600180
E00180
C00380
C00300
C00700
E00E00
601C00
787800
3FF000
0FC000
ENDCHAR
STARTCHAR uni01D2
ENCODING 466
SWIDTH 556 0
DWIDTH 13 0
BBX 12 19 2 0
BITMAP
1860
0CC0
0780
0300
0000
07C0
0FE0
1C70
3030
7030
6030
E030
C070
C060
C0E0
C0C0
E380
7F00
3E00
ENDCHAR
STARTCHAR uni01D3
ENCODING 467
SWIDTH 722 0
DWIDTH 18 0
BBX 17 24 3 0
BITMAP
061800
033000
01E000
00C000
000000
180180
180180
180180
180180
300300
300300
300300
300300
600600
600600
600600
600C00
C00C00
C01C00
C01800
E03800
607000
7FE000
1F8000
ENDCHAR
STARTCHAR uni01D4
ENCODING 468
SWIDTH 556 0
DWIDTH 14 0
BBX 12 19 3 0
BITMAP
1860
0CC0
0780
0300
0000
3030
3030
3030
6060
6060
6060
6060
C0C0
C0C0
C0C0
C1C0
C780
FD80
7980
ENDCHAR
STARTCHAR uni01D5
ENCODING 469
SWIDTH 722 0
DWIDTH 18 0
BBX 17 26 3 0
BITMAP
01F800
01F800
000000
018600
018600
000000
000000
180180
180180
180180
180180
300300
300300
300300
300300
600600
600600
600600
600C00
C00C00
C01C00
C01800
E03800
607000
7FE000
1F8000
ENDCHAR
STARTCHAR uni01D6
ENCODING 470
SWIDTH 556 0
DWIDTH 14 0
BBX 12 21 3 0
BITMAP
0FC0
0FC0
0000
0660
0660
0000
0000
3030
3030
3030
6060
6060
6060
6060
C0C0
C0C0
C0C0
C1C0
C780
FD80
7980
ENDCHAR
STARTCHAR uni01D7
ENCODING 471
SWIDTH 722 0
DWIDTH 18 0
BBX 17 28 3 0
BITMAP
001800
003000
006000
00C000
000000
018600
018600
000000
000000
180180
180180
180180
180180
300300
300300
300300
300300
600600
600600
600600
600C00
C00C00
C01C00
C01800
E03800
607000
7FE000
1F8000
ENDCHAR
STARTCHAR uni01D8
ENCODING 472
SWIDTH 556 0
DWIDTH 14 0
BBX 12 23 3 0
BITMAP
00C0
0180
0300
0600
0000
0660
0660
0000
0000
3030
3030
3030
6060
6060
6060
6060
C0C0
C0C0
C0C0
C1C0
C780
FD80
7980
ENDCHAR
STARTCHAR uni01D9
ENCODING 473
SWIDTH 722 0
DWIDTH 18 0
BBX 17 28 3 0
BITMAP
030C00
019800
00F000
006000
000000
018600
018600
000000
000000
180180
180180
180180
180180
300300
300300
300300
300300
600600
600600
600600
600C00
C00C00
C01C00
C01800
E03800
607000
7FE000
1F8000
ENDCHAR
STARTCHAR uni01DA
ENCODING 474
SWIDTH 556 0
DWIDTH 14 0
BBX 12 23 3 0
BITMAP
1860
0CC0
0780
0300
0000
0660
0660
0000
0000
3030
3030
3030
6060
6060
6060
6060
C0C0
C0C0
C0C0
C1C0
C780
FD80
7980
ENDCHAR
STARTCHAR uni01DB
ENCODING 475
SWIDTH 722 0
DWIDTH 18 0
BBX 17 28 3 0
BITMAP
018000
00C000
006000
003000
000000
018600
018600
000000
000000
180180
180180
180180
180180
300300
300300
300300
300300
600600
600600
600600
600C00
C00C00
C01C00
C01800
E03800
607000
7FE000
1F8000
ENDCHAR
STARTCHAR uni01DC
ENCODING 476
SWIDTH 556 0
DWIDTH 14 0
BBX 12 23 3 0
BITMAP
0C00
0600
0300
0180
0000
0660
0660
0000
0000
3030
3030
3030
6060
6060
6060
6060
C0C0
C0C0
C0C0
C1C0
C780
FD80
7980
ENDCHAR
STARTCHAR uni01DD
ENCODING 477
SWIDTH 556 0
DWIDTH 13 0
BBX 12 14 2 0
BITMAP
07C0
1FE0
3870
3030
0030
0030
7FF0
7FF0
E060
C0E0
C1C0
E380
7F00
3C00
ENDCHAR
STARTCHAR uni01DE
ENCODING 478
SWIDTH 667 0
DWIDTH 17 0
BBX 15 26 1 0
BITMAP
01F8
01F8
0000
00CC
00CC
0000
0000
0030
0070
0070
00F8
00D8
0198
0198
0318
0718
060C
0C0C
0FFC
1FFC
180C
3006
7006
6006
E006
E006
ENDCHAR
STARTCHAR uni01DF
ENCODING 479
SWIDTH 556 0
DWIDTH 13 0
BBX 11 21 2 0
BITMAP
0FC0
0FC0
0000
0CC0
0CC0
0000
0000
07C0
1FE0
3860
3060
00E0
07C0
1FC0
78C0
61C0
C180
C380
C780
FDC0
78C0
ENDCHAR
STARTCHAR uni01E0
ENCODING 480
SWIDTH 667 0
DWIDTH 17 0
BBX 15 25 1 0
BITMAP
03F0
03F0
0000
0060
0060
0000
0030
0070
0070
00F8
00D8
0198
0198
0318
0718
060C
0C0C
0FFC
1FFC
180C
3006
7006
6006
E006
E006
ENDCHAR
STARTCHAR uni01E1
ENCODING 481
SWIDTH 556 0
DWIDTH 13 0
BBX 11 20 2 0
BITMAP
1F80
1F80
0000
0600
0600
0000
07C0
1FE0
3860
3060
00E0
07C0
1FC0
78C0
6180
C180
C380
C780
FDC0
78C0
ENDCHAR
STARTCHAR uni01E2
ENCODING 482
SWIDTH 1000 0
DWIDTH 23 0
BBX 25 22 1 0
BITMAP
000FC000
000FC000
00000000
003FFF80
007FFF80
00660000
00C60000
018C0000
018C0000
030C0000
030C0000
061FFE00
061FFE00
0C180000
1FF80000
1FF00000
30300000
30300000
60300000
60600000
C07FF800
C07FF800
ENDCHAR
STARTCHAR uni01E3
ENCODING 483
SWIDTH 889 0
DWIDTH 21 0
BBX 20 17 2 0
BITMAP
00FC00
00FC00
000000
07E7C0
1FEFE0
383C70
307030
006030
07E030
1FFFF0
78FFE0
E0C000
C1C000
C1C0C0
C7E1C0
FF7F80
7C3E00
ENDCHAR
STARTCHAR uni01E4
ENCODING 484
SWIDTH 778 0
DWIDTH 19 0
BBX 17 19 2 0
BITMAP
00FE00
03FF00
078380
0E0180
180180
380000
300000
700000
600000
603F80
E03F80
C00380
C00300
C01F80
E01F80
601E00
787600
3FEC00
0FCC00
ENDCHAR
STARTCHAR uni01E5
ENCODING 485
SWIDTH 556 0
DWIDTH 14 0
BBX 15 19 0 -5
BITMAP
00F6
03FE
071E
0C0C
1C0C
180C
181C
3818
3018
3038
3038
38F0
1FF0
FFFE
FFFE
C060
E0E0
7FC0
1F00
ENDCHAR
STARTCHAR Gcaron
ENCODING 486
SWIDTH 778 0
DWIDTH 19 0
BBX 17 24 2 0
BITMAP
030C00
019800
00F000
006000
000000
00FE00
03FF00
078380
0E0180
180180
380000
300000
700000
600000
603F80
E03F80
C00380
C00300
C00700
E00E00
601E00
787600
3FEC00
0FCC00
ENDCHAR
STARTCHAR gcaron
ENCODING 487
SWIDTH 556 0
DWIDTH 14 0
BBX 15 24 0 -5
BITMAP
0618
0330
01E0
00C0
0000
00F6
03FE
071E
0C0C
1C0C
180C
181C
3818
3018
3038
3038
38F0
1FF0
07B0
0030
C060
E0E0
7FC0
1F00
ENDCHAR
STARTCHAR uni01E8
ENCODING 488
SWIDTH 667 0
DWIDTH 18 0
BBX 17 24 2 0
BITMAP
061800
033000
01E000
00C000
000000
0C0380
0C0700
0C0E00
0C1C00
187000
18E000
19C000
1B8000
3F0000
3F8000
39C000
30C000
60E000
607000
603000
603800
C01C00
C00C00
C00E00
ENDCHAR
STARTCHAR uni01E9
ENCODING 489
SWIDTH 500 0
DWIDTH 12 0
BBX 12 24 2 0
BITMAP
6180
3300
1E00
0C00
0000
0C00
0C00
0C00
0C00
1800
1870
18E0
19C0
3380
3700
3E00
3E00
6700
6300
6380
6180
C1C0
C0C0
C0C0
ENDCHAR
STARTCHAR uni01EA
ENCODING 490
SWIDTH 778 0
DWIDTH 18 0
BBX 18 24 2 -5
BITMAP
00FC00
03FF00
078780
0E0180
1C01C0
3800C0
3000C0
7000C0
6001C0
600180
E00180
C00380
C00300
C00700
E00E00
601C00
787800
3FF000
0FC000
030000
060000
060000
07C000
038000
ENDCHAR
STARTCHAR uni01EB
ENCODING 491
SWIDTH 556 0
DWIDTH 13 0
BBX 12 19 2 -5
BITMAP
07C0
0FE0
1C70
3030
7030
6030
E030
C070
C060
C0E0
C0C0
E380
7F00
3E00
0C00
1800
1800
1F00
0E00
ENDCHAR
STARTCHAR uni01EC
ENCODING 492
SWIDTH 778 0
DWIDTH 18 0
BBX 18 27 2 -5
BITMAP
01F800
01F800
000000
00FC00
03FF00
078780
0E0180
1C01C0
3800C0
3000C0
7000C0
6001C0
600180
E00180
C00380
C00300
C00700
E00E00
601C00
787800
3FF000
0FC000
030000
060000
060000
07C000
038000
ENDCHAR
STARTCHAR uni01ED
ENCODING 493
SWIDTH 556 0
DWIDTH 13 0
BBX 12 22 2 -5
BITMAP
0FC0
0FC0
0000
07C0
0FE0
1C70
3030
7030
6030
E030
C070
C060
C0E0
C0C0
E380
7F00
3E00
0C00
1800
1800
1F00
0E00
ENDCHAR
STARTCHAR uni01F0
ENCODING 496
SWIDTH 222 0
DWIDTH 6 0
BBX 10 24 -1 -5
BITMAP
30C0
1980
0F00
0600
0000
0300
0300
0300
0600
0600
0600
0600
0C00
0C00
0C00
0C00
1800
1800
1800
1800
3000
3000
F000
E000
ENDCHAR
STARTCHAR uni01F4
ENCODING 500
SWIDTH 778 0
DWIDTH 19 0
BBX 17 24 2 0
BITMAP
001800
003000
006000
00C000
000000
00FE00
03FF00
078380
0E0180
180180
380000
300000
700000
600000
603F80
E03F80
C00380
C00300
C00700
E00E00
601E00
787600
3FEC00
0FCC00
ENDCHAR
STARTCHAR uni01F5
ENCODING 501
SWIDTH 556 0
DWIDTH 14 0
BBX 15 24 0 -5
BITMAP
0030
0060
00C0
0180
0000
00F6
03FE
071E
0C0C
1C0C
180C
181C
3818
3018
3038
3038
38F0
1FF0
07B0
0030
C060
E0E0
7FC0
1F00
ENDCHAR
STARTCHAR uni01F8
ENCODING 504
SWIDTH 722 0
DWIDTH 18 0
BBX 18 24 2 0
BITMAP
030000
018000
00C000
006000
000000
0E00C0
0E00C0
0E00C0
0F00C0
1B0180
1B0180
198180
198180
318300
30C300
30C300
30C300
606600
606600
603600
603600
C01C00
C01C00
C01C00
ENDCHAR
STARTCHAR uni01F9
ENCODING 505
SWIDTH 556 0
DWIDTH 14 0
BBX 12 19 2 0
BITMAP
0C00
0600
0300
0180
0000
19C0
1BF0
1E30
3C30
3830
3030
3030
6060
6060
6060
6060
C0C0
C0C0
C0C0
ENDCHAR
STARTCHAR Aringacute
ENCODING 506
SWIDTH 667 0
DWIDTH 17 0
BBX 15 28 1 0
BITMAP
0018
0030
0060
00C0
0000
0038
0048
0048
0070
0000
0070
0070
00F8
00D8
0198
0198
0318
0718
060C
0C0C
0FFC
1FFC
180C
3006
7006
6006
E006
E006
ENDCHAR
STARTCHAR aringacute
ENCODING 507
SWIDTH 556 0
DWIDTH 13 0
BBX 11 24 2 0
BITMAP
00C0
0180
0300
0600
0000
01C0
0240
0240
0380
0000
07C0
1FE0
3860
3060
00E0
07C0
1FC0
78C0
61C0
C180
C380
C780
FDC0
78C0
ENDCHAR
STARTCHAR AEacute
ENCODING 508
SWIDTH 1000 0
DWIDTH 23 0
BBX 25 24 1 0
BITMAP
0000C000
00018000
00030000
00060000
00000000
003FFF80
007FFF80
00660000
00C60000
018C0000
018C0000
030C0000
030C0000
061FFE00
061FFE00
0C180000
1FF80000
1FF00000
30300000
30300000
60300000
60600000
C07FF800
C07FF800
ENDCHAR
STARTCHAR aeacute
ENCODING 509
SWIDTH 889 0
DWIDTH 21 0
BBX 20 19 2 0
BITMAP
000C00
001800
003000
006000
000000
07E7C0
1FEFE0
383C70
307030
006030
07E030
1FFFF0
78FFE0
E0C000
C1C000
C1C0C0
C7E1C0
FF7F80
7C3E00
ENDCHAR
STARTCHAR Oslashacute
ENCODING 510
SWIDTH 778 0
DWIDTH 18 0
BBX 20 24 1 0
BITMAP
000600
000C00
001800
003000
000000
007E30
01FF60
03C3C0
0701C0
0C03E0
1C0660
180C60
301860
303060
3060C0
60C0C0
6181C0
630180
660300
6C0700
780E00
383C00
7FF800
C7E000
ENDCHAR
STARTCHAR oslashacute
ENCODING 511
SWIDTH 611 0
DWIDTH 13 0
BBX 16 20 0 0
BITMAP
0018
0030
0060
00C0
0000
0003
01F6
03FC
0718
0C3C
1C6C
18CC
398C
331C
3618
3C38
1830
38E0
7FC0
CF80
ENDCHAR
STARTCHAR Scommaaccent
ENCODING 536
SWIDTH 667 0
DWIDTH 16 0
BBX 15 26 2 -7
BITMAP
01F0
07FC
0E1E
1806
3006
3000
3800
1E00
0FC0
01F0
0038
001C
000C
C00C
C01C
E038
7070
3FE0
1F80
0000
0300
0300
0300
0100
0300
0600
ENDCHAR
STARTCHAR scommaaccent
ENCODING 537
SWIDTH 500 0
DWIDTH 12 0
BBX 12 21 1 -7
BITMAP
07C0
1FF0
1830
3030
3000
3E00
1FC0
01E0
0060
0060
C060
E1C0
FF80
3F00
0000
0C00
0C00
0C00
0400
0C00
1800
ENDCHAR
STARTCHAR Tcommaaccent
ENCODING 538
SWIDTH 611 0
DWIDTH 16 0
BBX 14 26 5 -7
BITMAP
FFFC
FFFC
0300
0300
0600
0600
0600
0600
0C00
0C00
0C00
0C00
1800
1800
1800
1800
3000
3000
3000
0000
0C00
0C00
0C00
0400
0C00
1800
ENDCHAR
STARTCHAR tcommaaccent
ENCODING 539
SWIDTH 278 0
DWIDTH 8 0
BBX 7 25 3 -7
BITMAP
0C
0C
0C
18
7E
7E
18
18
30
30
30
60
60
60
C0
C0
F0
70
00
30
30
30
10
30
60
ENDCHAR
STARTCHAR uni021E
ENCODING 542
SWIDTH 722 0
DWIDTH 18 0
BBX 18 24 2 0
BITMAP
030C00
019800
00F000
006000
000000
0C00C0
0C00C0
0C00C0
0C00C0
180180
180180
180180
180180
3FFF00
3FFF00
300300
300300
600600
600600
600600
600600
C00C00
C00C00
C00C00
ENDCHAR
STARTCHAR uni021F
ENCODING 543
SWIDTH 556 0
DWIDTH 13 0
BBX 12 24 2 0
BITMAP
6180
3300
1E00
0C00
0000
0C00
0C00
0C00
0C00
1800
19C0
1BF0
1E30
3C30
3830
3030
3030
6060
6060
6060
6060
C0C0
C0C0
C0C0
ENDCHAR
STARTCHAR uni0226
ENCODING 550
SWIDTH 667 0
DWIDTH 17 0
BBX 15 22 1 0
BITMAP
0060
0060
0000
0030
0070
0070
00F8
00D8
0198
0198
0318
0718
060C
0C0C
0FFC
1FFC
180C
3006
7006
6006
E006
E006
ENDCHAR
STARTCHAR uni0227
ENCODING 551
SWIDTH 556 0
DWIDTH 13 0
BBX 11 17 2 0
BITMAP
0600
0600
0000
07C0
1FE0
3860
3060
00E0
07C0
1FC0
78C0
6180
C180
C380
C780
FDC0
78C0
ENDCHAR
STARTCHAR uni0228
ENCODING 552
SWIDTH 667 0
DWIDTH 16 0
BBX 16 24 2 -5
BITMAP
0FFF
0FFF
0C00
0C00
1800
1800
1800
1800
3FF8
3FF8
3000
3000
6000
6000
6000
6000
C000
FFF0
FFF0
0600
0300
0300
1F00
0E00
ENDCHAR
STARTCHAR uni0229
ENCODING 553
SWIDTH 556 0
DWIDTH 13 0
BBX 12 19 2 -5
BITMAP
03C0
0FE0
1C70
3830
7030
6070
FFE0
FFE0
C000
C000
C0C0
E1C0
7F80
3E00
0C00
0600
0600
3E00
1C00
ENDCHAR
STARTCHAR uni022A
ENCODING 554
SWIDTH 778 0
DWIDTH 18 0
BBX 18 26 2 0
BITMAP
01F800
01F800
000000
00C600
00C600
000000
000000
00FC00
03FF00
078780
0E0180
1C01C0
3800C0
3000C0
7000C0
6001C0
600180
E00180
C00380
C00300
C00700
E00E00
601C00
787800
3FF000
0FC000
ENDCHAR
STARTCHAR uni022B
ENCODING 555
SWIDTH 556 0
DWIDTH 13 0
BBX 12 21 2 0
BITMAP
07E0
07E0
0000
0330
0330
0000
0000
07C0
0FE0
1C70
3030
7030
6030
E030
C070
C060
C0E0
C0C0
E380
7F00
3E00
ENDCHAR
STARTCHAR uni022C
ENCODING 556
SWIDTH 778 0
DWIDTH 18 0
BBX 18 26 2 0
BITMAP
00FC00
00FC00
000000
007100
00DB00
008E00
000000
00FC00
03FF00
078780
0E0180
1C01C0
3800C0
3000C0
7000C0
6001C0
600180
E00180
C00380
C00300
C00700
E00E00
601C00
787800
3FF000
0FC000
ENDCHAR
STARTCHAR uni022D
ENCODING 557
SWIDTH 556 0
DWIDTH 13 0
BBX 12 21 2 0
BITMAP
0FC0
0FC0
0000
0710
0DB0
08E0
0000
07C0
0FE0
1C70
3030
7030
6030
E030
C070
C060
C0E0
C0C0
E380
7F00
3E00
ENDCHAR
STARTCHAR uni022E
ENCODING 558
SWIDTH 778 0
DWIDTH 18 0
BBX 18 22 2 0
BITMAP
006000
006000
000000
00FC00
03FF00
078780
0E0180
1C01C0
3800C0
3000C0
7000C0
6001C0
600180
E00180
C00380
C00300
C00700
E00E00
601C00
787800
3FF000
0FC000
ENDCHAR
STARTCHAR uni022F
ENCODING 559
SWIDTH 556 0
DWIDTH 13 0
BBX 12 17 2 0
BITMAP
0300
0300
0000
07C0
0FE0
1C70
3030
7030
6030
E030
C070
C060
C0E0
C0C0
E380
7F00
3E00
ENDCHAR
STARTCHAR uni0230
ENCODING 560
SWIDTH 778 0
DWIDTH 18 0
BBX 18 25 2 0
BITMAP
01F800
01F800
000000
006000
006000
000000
00FC00
03FF00
078780
0E0180
1C01C0
3800C0
3000C0
7000C0
6001C0
600180
E00180
C00380
C00300
C00700
E00E00
601C00
787800
3FF000
0FC000
ENDCHAR
STARTCHAR uni0231
ENCODING 561
SWIDTH 556 0
DWIDTH 13 0
BBX 12 20 2 0
BITMAP
0FC0
0FC0
0000
0300
0300
0000
07C0
0FE0
1C70
3030
7030
6030
E030
C070
C060
C0E0
C0C0
E380
7F00
3E00
ENDCHAR
STARTCHAR uni0232
ENCODING 562
SWIDTH 667 0
DWIDTH 16 0
BBX 14 22 6 0
BITMAP
0FC0
0FC0
0000
C00C
C01C
C038
6070
6060
60C0
3180
3300
3700
3600
1C00
1800
1800
1800
3000
3000
3000
6000
6000
ENDCHAR
STARTCHAR uni0233
ENCODING 563
SWIDTH 500 0
DWIDTH 13 0
BBX 14 22 1 -5
BITMAP
07E0
07E0
0000
300C
300C
301C
3818
1830
1870
1860
0CE0
0CC0
0D80
0780
0700
0700
0600
0C00
1C00
3800
F000
E000
ENDCHAR
STARTCHAR uni0250
ENCODING 592
SWIDTH 556 0
DWIDTH 13 0
BBX 11 14 2 0
BITMAP
63C0
77E0
3C60
3860
3060
30C0
63C0
7F00
7C00
E000
C180
C380
FF00
7C00
ENDCHAR
STARTCHAR uni0259
ENCODING 601
SWIDTH 556 0
DWIDTH 13 0
BBX 12 14 2 0
BITMAP
07C0
1FE0
3870
3030
0030
0030
7FF0
7FF0
E060
C0E0
C1C0
E380
7F00
3C00
ENDCHAR
STARTCHAR uni025F
ENCODING 607
SWIDTH 278 0
DWIDTH 8 0
BBX 8 19 3 -5
BITMAP
03
03
03
06
06
06
06
0C
0C
0C
0C
18
7E
7E
18
18
30
F0
E0
ENDCHAR
STARTCHAR uni0265
ENCODING 613
SWIDTH 556 0
DWIDTH 13 0
BBX 12 19 2 -5
BITMAP
3030
3030
3030
6060
6060
6060
6060
C0C0
C0C0
C1C0
C3C0
C780
FD80
3980
0180
0300
0300
0300
0300
ENDCHAR
STARTCHAR uni0275
ENCODING 629
SWIDTH 556 0
DWIDTH 13 0
BBX 12 14 2 0
BITMAP
07C0
0FE0
1C70
3030
7030
6030
FFF0
FFF0
C060
C0E0
C0C0
E380
7F00
3E00
ENDCHAR
STARTCHAR uni0279
ENCODING 633
SWIDTH 333 0
DWIDTH 9 0
BBX 9 14 2 0
BITMAP
0180
0180
0180
0300
0300
0300
0300
0600
0600
0E00
1E00
3C00
EC00
CC00
ENDCHAR
STARTCHAR uni0287
ENCODING 647
SWIDTH 278 0
DWIDTH 8 0
BBX 7 18 3 0
BITMAP
1C
1E
06
06
0C
0C
0C
18
18
18
30
30
FC
FC
30
60
60
60
ENDCHAR
STARTCHAR uni0289
ENCODING 649
SWIDTH 556 0
DWIDTH 14 0
BBX 12 14 3 0
BITMAP
3030
3030
3030
6060
6060
6060
FFF0
FFF0
C0C0
C0C0
C1C0
C780
FD80
7980
ENDCHAR
STARTCHAR uni028C
ENCODING 652
SWIDTH 500 0
DWIDTH 13 0
BBX 11 14 4 0
BITMAP
01C0
03C0
07C0
06C0
0CC0
0CC0
1860
1860
3060
3060
6060
6060
C060
C060
ENDCHAR
STARTCHAR uni028D
ENCODING 653
SWIDTH 722 0
DWIDTH 18 0
BBX 17 14 3 0
BITMAP
030300
030300
070700
0F0700
0D8F00
0D8D80
199980
199980
31B180
31B180
61E180
61E180
C1C180
C18180
ENDCHAR
STARTCHAR uni028E
ENCODING 654
SWIDTH 500 0
DWIDTH 13 0
BBX 14 19 1 0
BITMAP
001C
003C
0070
00E0
00C0
0180
0380
0380
0780
06C0
0CC0
1CC0
1860
3860
3060
6070
E030
C030
C030
ENDCHAR
STARTCHAR uni029E
ENCODING 670
SWIDTH 500 0
DWIDTH 12 0
BBX 12 19 2 -5
BITMAP
3030
3030
3830
1860
1C60
0C60
0E60
07C0
07C0
0EC0
1CC0
3980
7180
E180
0180
0300
0300
0300
0300
ENDCHAR
STARTCHAR uni02BB
ENCODING 699
SWIDTH 222 0
DWIDTH 6 0
BBX 3 6 5 13
BITMAP
60
C0
80
C0
C0
C0
ENDCHAR
STARTCHAR afii57929
ENCODING 700
SWIDTH 222 0
DWIDTH 6 0
BBX 3 6 5 13
BITMAP
60
60
60
20
60
C0
ENDCHAR
STARTCHAR afii64937
ENCODING 701
SWIDTH 222 0
DWIDTH 6 0
BBX 3 6 5 13
BITMAP
C0
C0
C0
80
C0
60
ENDCHAR
STARTCHAR circumflex
ENCODING 710
SWIDTH 333 0
DWIDTH 8 0
BBX 8 4 4 15
BITMAP
18
3C
66
C3
ENDCHAR
STARTCHAR caron
ENCODING 711
SWIDTH 333 0
DWIDTH 8 0
BBX 8 4 4 15
BITMAP
C3
66
3C
18
ENDCHAR
STARTCHAR uni02C8
ENCODING 712
SWIDTH 191 0
DWIDTH 6 0
BBX 3 6 5 13
BITMAP
60
60
60
C0
C0
80
ENDCHAR
STARTCHAR macron
ENCODING 713
SWIDTH 333 0
DWIDTH 8 0
BBX 6 2 5 16
BITMAP
FC
FC
ENDCHAR
STARTCHAR uni02CA
ENCODING 714
SWIDTH 333 0
DWIDTH 7 0
BBX 5 4 5 16
BITMAP
18
30
60
C0
ENDCHAR
STARTCHAR uni02CB
ENCODING 715
SWIDTH 333 0
DWIDTH 7 0
BBX 5 4 5 15
BITMAP
C0
60
30
18
ENDCHAR
STARTCHAR uni02CD
ENCODING 717
SWIDTH 333 0
DWIDTH 8 0
BBX 6 2 5 -3
BITMAP
FC
FC
ENDCHAR
STARTCHAR uni02CE
ENCODING 718
SWIDTH 333 0
DWIDTH 7 0
BBX 5 4 5 -5
BITMAP
C0
60
30
18
ENDCHAR
STARTCHAR uni02CF
ENCODING 719
SWIDTH 333 0
DWIDTH 7 0
BBX 5 4 5 -5
BITMAP
18
30
60
C0
ENDCHAR
STARTCHAR breve
ENCODING 728
SWIDTH 333 0
DWIDTH 8 0
BBX 8 4 4 15
BITMAP
81
C3
7E
3C
ENDCHAR
STARTCHAR dotaccent
ENCODING 729
SWIDTH 333 0
DWIDTH 8 0
BBX 2 2 7 16
BITMAP
C0
C0
ENDCHAR
STARTCHAR ring
ENCODING 730
SWIDTH 333 0
DWIDTH 8 0
BBX 4 5 6 14
BITMAP
60
F0
90
F0
60
ENDCHAR
STARTCHAR ogonek
ENCODING 731
SWIDTH 333 0
DWIDTH 7 0
BBX 5 6 1 -5
BITMAP
30
60
C0
C0
F8
70
ENDCHAR
STARTCHAR tilde
ENCODING 732
SWIDTH 333 0
DWIDTH 10 0
BBX 8 3 5 16
BITMAP
71
DB
8E
ENDCHAR
STARTCHAR hungarumlaut
ENCODING 733
SWIDTH 333 0
DWIDTH 9 0
BBX 8 3 4 16
BITMAP
33
66
CC
ENDCHAR
STARTCHAR uni02EE
ENCODING 750
SWIDTH 333 0
DWIDTH 9 0
BBX 7 6 4 13
BITMAP
66
66
66
22
66
CC
ENDCHAR
STARTCHAR uni037E
ENCODING 894
SWIDTH 278 0
DWIDTH 6 0
BBX 6 17 1 -3
BITMAP
0C
0C
0C
00
00
00
00
00
00
00
00
60
60
60
20
60
C0
ENDCHAR
STARTCHAR tonos
ENCODING 900
SWIDTH 333 0
DWIDTH 7 0
BBX 5 4 5 16
BITMAP
18
30
60
C0
ENDCHAR
STARTCHAR dieresistonos
ENCODING 901
SWIDTH 333 0
DWIDTH 8 0
BBX 6 7 5 16
BITMAP
0C
18
30
60
00
CC
CC
ENDCHAR
STARTCHAR anoteleia
ENCODING 903
SWIDTH 278 0
DWIDTH 6 0
BBX 2 3 4 6
BITMAP
C0
C0
C0
ENDCHAR
STARTCHAR mu
ENCODING 956
SWIDTH 556 0
DWIDTH 14 0
BBX 14 19 1 -5
BITMAP
0C0C
0C0C
0C0C
1818
1818
1818
1818
3030
3030
3030
3070
71E0
7F60
6E60
6000
C000
C000
C000
C000
ENDCHAR
STARTCHAR uni1E00
ENCODING 7680
SWIDTH 667 0
DWIDTH 17 0
BBX 15 25 1 -6
BITMAP
0030
0070
0070
00F8
00D8
0198
0198
0318
0718
060C
0C0C
0FFC
1FFC
180C
3006
7006
6006
E006
E006
0000
0300
0780
0480
0780
0300
ENDCHAR
STARTCHAR uni1E01
ENCODING 7681
SWIDTH 556 0
DWIDTH 13 0
BBX 11 20 2 -6
BITMAP
07C0
1FE0
3860
3060
00E0
07C0
1FC0
78C0
6180
C180
C380
C780
FDC0
78C0
0000
0C00
1E00
1200
1E00
0C00
ENDCHAR
STARTCHAR uni1E02
ENCODING 7682
SWIDTH 667 0
DWIDTH 17 0
BBX 16 22 2 0
BITMAP
00C0
00C0
0000
0FFC
0FFE
0C07
0C03
1803
1803
1807
180E
3FF8
3FFC
300E
3006
6006
6006
6006
600E
C03C
FFF8
FFE0
ENDCHAR
STARTCHAR uni1E03
ENCODING 7683
SWIDTH 556 0
DWIDTH 14 0
BBX 13 22 2 0
BITMAP
0C00
0C00
0000
0C00
0C00
0C00
1800
1800
19E0
1FF0
1E38
3818
3018
3018
3038
6030
6070
6060
60E0
F1C0
FF80
CF00
ENDCHAR
STARTCHAR uni1E04
ENCODING 7684
SWIDTH 667 0
DWIDTH 17 0
BBX 16 22 2 -3
BITMAP
0FFC
0FFE
0C07
0C03
1803
1803
1807
180E
3FF8
3FFC
300E
3006
6006
6006
6006
600E
C03C
FFF8
FFE0
0000
0300
0300
ENDCHAR
STARTCHAR uni1E05
ENCODING 7685
SWIDTH 556 0
DWIDTH 14 0
BBX 13 22 2 -3
BITMAP
0C00
0C00
0C00
1800
1800
19E0
1FF0
1E38
3818
3018
3018
3038
6030
6070
6060
60E0
F1C0
FF80
CF00
0000
0600
0600
ENDCHAR
STARTCHAR uni1E06
ENCODING 7686
SWIDTH 667 0
DWIDTH 17 0
BBX 16 22 2 -3
BITMAP
0FFC
0FFE
0C07
0C03
1803
1803
1807
180E
3FF8
3FFC
300E
3006
6006
6006
6006
600E
C03C
FFF8
FFE0
0000
0FC0
0FC0
ENDCHAR
STARTCHAR uni1E07
ENCODING 7687
SWIDTH 556 0
DWIDTH 14 0
BBX 13 22 2 -3
BITMAP
0C00
0C00
0C00
1800
1800
19E0
1FF0
1E38
3818
3018
3018
3038
6030
6070
6060
60E0
F1C0
FF80
CF00
0000
1F80
1F80
ENDCHAR
STARTCHAR uni1E08
ENCODING 7688
SWIDTH 722 0
DWIDTH 18 0
BBX 17 29 2 -5
BITMAP
003000
006000
00C000
018000
000000
00FC00
03FF00
078780
0E0180
180180
380000
300000
600000
600000
600000
C00000
C00000
C00000
C00600
E00E00
601C00
787800
3FF000
0FC000
0C0000
060000
060000
3E0000
1C0000
ENDCHAR
STARTCHAR uni1E09
ENCODING 7689
SWIDTH 500 0
DWIDTH 12 0
BBX 11 24 2 -5
BITMAP
0180
0300
0600
0C00
0000
07C0
0FE0
1C60
3060
7000
6000
E000
C000
C000
C000
C180
E380
7F00
3E00
3000
1800
1800
F800
7000
ENDCHAR
STARTCHAR uni1E0A
ENCODING 7690
SWIDTH 722 0
DWIDTH 18 0
BBX 18 22 2 0
BITMAP
006000
006000
000000
0FFC00
0FFF00
0C0780
0C0180
1801C0
1800C0
1800C0
1800C0
3000C0
3001C0
300180
300380
600300
600700
600E00
601C00
C07800
FFF000
FFC000
ENDCHAR
STARTCHAR uni1E0B
ENCODING 7691
SWIDTH 556 0
DWIDTH 14 0
BBX 14 22 2 0
BITMAP
0030
0030
0000
000C
000C
000C
0018
0018
0798
0FF8
1C70
3830
7030
6030
6030
E060
C060
C060
C0E0
E3C0
7FC0
3CC0
ENDCHAR
STARTCHAR uni1E0C
ENCODING 7692
SWIDTH 722 0
DWIDTH 18 0
BBX 18 22 2 -3
BITMAP
0FFC00
0FFF00
0C0780
0C0180
1801C0
1800C0
1800C0
1800C0
3000C0
3001C0
300180
300380
600300
600700
600E00
601C00
C07800
FFF000
FFC000
000000
030000
030000
ENDCHAR
STARTCHAR uni1E0D
ENCODING 7693
SWIDTH 556 0
DWIDTH 14 0
BBX 14 22 2 -3
BITMAP
000C
000C
000C
0018
0018
0798
0FF8
1C70
3830
7030
6030
6030
E060
C060
C060
C0E0
E3C0
7FC0
3CC0
0000
0600
0600
ENDCHAR
STARTCHAR uni1E0E
ENCODING 7694
SWIDTH 722 0
DWIDTH 18 0
BBX 18 22 2 -3
BITMAP
0FFC00
0FFF00
0C0780
0C0180
1801C0
1800C0
1800C0
1800C0
3000C0
3001C0
300180
300380
600300
600700
600E00
601C00
C07800
FFF000
FFC000
000000
0FC000
0FC000
ENDCHAR
STARTCHAR uni1E0F
ENCODING 7695
SWIDTH 556 0
DWIDTH 14 0
BBX 14 22 2 -3
BITMAP
000C
000C
000C
0018
0018
0798
0FF8
1C70
3830
7030
6030
6030
E060
C060
C060
C0E0
E3C0
7FC0
3CC0
0000
1F80
1F80
ENDCHAR
STARTCHAR uni1E10
ENCODING 7696
SWIDTH 722 0
DWIDTH 18 0
BBX 18 24 2 -5
BITMAP
0FFC00
0FFF00
0C0780
0C0180
1801C0
1800C0
1800C0
1800C0
3000C0
3001C0
300180
300380
600300
600700
600E00
601C00
C07800
FFF000
FFC000
018000
00C000
00C000
07C000
038000
ENDCHAR
STARTCHAR uni1E11
ENCODING 7697
SWIDTH 556 0
DWIDTH 14 0
BBX 14 24 2 -5
BITMAP
000C
000C
000C
0018
0018
0798
0FF8
1C70
3830
7030
6030
6030
E060
C060
C060
C0E0
E3C0
7FC0
3EC0
0600
0300
0300
1F00
0E00
ENDCHAR
STARTCHAR uni1E12
ENCODING 7698
SWIDTH 722 0
DWIDTH 18 0
BBX 18 24 2 -5
BITMAP
0FFC00
0FFF00
0C0780
0C0180
1801C0
1800C0
1800C0
1800C0
3000C0
3001C0
300180
300380
600300
600700
600E00
601C00
C07800
FFF000
FFC000
000000
030000
078000
0CC000
186000
ENDCHAR
STARTCHAR uni1E13
ENCODING 7699
SWIDTH 556 0
DWIDTH 14 0
BBX 14 24 2 -5
BITMAP
000C
000C
000C
0018
0018
0798
0FF8
1C70
3830
7030
6030
6030
E060
C060
C060
C0E0
E3C0
7FC0
3CC0
0000
0600
0F00
1980
30C0
ENDCHAR
STARTCHAR uni1E14
ENCODING 7700
SWIDTH 667 0
DWIDTH 16 0
BBX 16 27 2 0
BITMAP
0300
0180
00C0
0060
0000
03F0
03F0
0000
0FFF
0FFF
0C00
0C00
1800
1800
1800
1800
3FF8
3FF8
3000
3000
6000
6000
6000
6000
C000
FFF0
FFF0
ENDCHAR
STARTCHAR uni1E15
ENCODING 7701
SWIDTH 556 0
DWIDTH 13 0
BBX 12 22 2 0
BITMAP
0C00
0600
0300
0180
0000
0FC0
0FC0
0000
03C0
0FE0
1C70
3830
7030
6070
FFE0
FFE0
C000
C000
C0C0
E1C0
7F80
3E00
ENDCHAR
STARTCHAR uni1E16
ENCODING 7702
SWIDTH 667 0
DWIDTH 16 0
BBX 16 27 2 0
BITMAP
0030
0060
00C0
0180
0000
03F0
03F0
0000
0FFF
0FFF
0C00
0C00
1800
1800
1800
1800
3FF8
3FF8
3000
3000
6000
6000
6000
6000
C000
FFF0
FFF0
ENDCHAR
STARTCHAR uni1E17
ENCODING 7703
SWIDTH 556 0
DWIDTH 13 0
BBX 12 22 2 0
BITMAP
00C0
0180
0300
0600
0000
0FC0
0FC0
0000
03C0
0FE0
1C70
3830
7030
6070
FFE0
FFE0
C000
C000
C0C0
E1C0
7F80
3E00
ENDCHAR
STARTCHAR uni1E18
ENCODING 7704
SWIDTH 667 0
DWIDTH 16 0
BBX 16 24 2 -5
BITMAP
0FFF
0FFF
0C00
0C00
1800
1800
1800
1800
3FF8
3FF8
3000
3000
6000
6000
6000
6000
C000
FFF0
FFF0
0000
0600
0F00
1980
30C0
ENDCHAR
STARTCHAR uni1E19
ENCODING 7705
SWIDTH 556 0
DWIDTH 13 0
BBX 12 19 2 -5
BITMAP
03C0
0FE0
1C70
3830
7030
6070
FFE0
FFE0
C000
C000
C0C0
E1C0
7F80
3E00
0000
0C00
1E00
3300
6180
ENDCHAR
STARTCHAR uni1E1A
ENCODING 7706
SWIDTH 667 0
DWIDTH 16 0
BBX 16 23 2 -4
BITMAP
0FFF
0FFF
0C00
0C00
1800
1800
1800
1800
3FF8
3FF8
3000
3000
6000
6000
6000
6000
C000
FFF0
FFF0
0000
1C40
36C0
2380
ENDCHAR
STARTCHAR uni1E1B
ENCODING 7707
SWIDTH 556 0
DWIDTH 13 0
BBX 12 18 2 -4
BITMAP
03C0
0FE0
1C70
3830
7030
6070
FFE0
FFE0
C000
C000
C0C0
E1C0
7F80
3E00
0000
3880
6D80
4700
ENDCHAR
STARTCHAR uni1E1C
ENCODING 7708
SWIDTH 667 0
DWIDTH 16 0
BBX 16 29 2 -5
BITMAP
0810
0C30
07E0
03C0
0000
0FFF
0FFF
0C00
0C00
1800
1800
1800
1800
3FF8
3FF8
3000
3000
6000
6000
6000
6000
C000
FFF0
FFF0
0600
0300
0300
1F00
0E00
ENDCHAR
STARTCHAR uni1E1D
ENCODING 7709
SWIDTH 556 0
DWIDTH 13 0
BBX 12 24 2 -5
BITMAP
1020
1860
0FC0
0780
0000
03C0
0FE0
1C70
3830
7030
6070
FFE0
FFE0
C000
C000
C0C0
E1C0
7F80
3E00
0C00
0600
0600
3E00
1C00
ENDCHAR
STARTCHAR uni1E1E
ENCODING 7710
SWIDTH 611 0
DWIDTH 14 0
BBX 15 22 2 0
BITMAP
0180
0180
0000
0FFE
0FFE
0C00
0C00
1800
1800
1800
1800
3FF0
3FF0
3000
3000
6000
6000
6000
6000
C000
C000
C000
ENDCHAR
STARTCHAR uni1E1F
ENCODING 7711
SWIDTH 278 0
DWIDTH 8 0
BBX 8 22 3 0
BITMAP
0C
0C
00
07
0F
0C
18
18
7E
7E
18
30
30
30
30
60
60
60
60
C0
C0
C0
ENDCHAR
STARTCHAR uni1E20
ENCODING 7712
SWIDTH 778 0
DWIDTH 19 0
BBX 17 22 2 0
BITMAP
01F800
01F800
000000
00FE00
03FF00
078380
0E0180
180180
380000
300000
700000
600000
603F80
E03F80
C00380
C00300
C00700
E00E00
601E00
787600
3FEC00
0FCC00
ENDCHAR
STARTCHAR uni1E21
ENCODING 7713
SWIDTH 556 0
DWIDTH 14 0
BBX 15 22 0 -5
BITMAP
03F0
03F0
0000
00F6
03FE
071E
0C0C
1C0C
180C
181C
3818
3018
3038
3038
38F0
1FF0
07B0
0030
C060
E0E0
7FC0
1F00
ENDCHAR
STARTCHAR uni1E22
ENCODING 7714
SWIDTH 722 0
DWIDTH 18 0
BBX 18 22 2 0
BITMAP
006000
006000
000000
0C00C0
0C00C0
0C00C0
0C00C0
180180
180180
180180
180180
3FFF00
3FFF00
300300
300300
600600
600600
600600
600600
C00C00
C00C00
C00C00
ENDCHAR
STARTCHAR uni1E23
ENCODING 7715
SWIDTH 556 0
DWIDTH 13 0
BBX 12 22 2 0
BITMAP
0C00
0C00
0000
0C00
0C00
0C00
0C00
1800
19C0
1BF0
1E30
3C30
3830
3030
3030
6060
6060
6060
6060
C0C0
C0C0
C0C0
ENDCHAR
STARTCHAR uni1E24
ENCODING 7716
SWIDTH 722 0
DWIDTH 18 0
BBX 18 22 2 -3
BITMAP
0C00C0
0C00C0
0C00C0
0C00C0
180180
180180
180180
180180
3FFF00
3FFF00
300300
300300
600600
600600
600600
600600
C00C00
C00C00
C00C00
000000
018000
018000
ENDCHAR
STARTCHAR uni1E25
ENCODING 7717
SWIDTH 556 0
DWIDTH 13 0
BBX 12 22 2 -3
BITMAP
0C00
0C00
0C00
0C00
1800
19C0
1BF0
1E30
3C30
3830
3030
3030
6060
6060
6060
6060
C0C0
C0C0
C0C0
0000
0600
0600
ENDCHAR
STARTCHAR uni1E26
ENCODING 7718
SWIDTH 722 0
DWIDTH 18 0
BBX 18 22 2 0
BITMAP
019800
019800
000000
0C00C0
0C00C0
0C00C0
0C00C0
180180
180180
180180
180180
3FFF00
3FFF00
300300
300300
600600
600600
600600
600600
C00C00
C00C00
C00C00
ENDCHAR
STARTCHAR uni1E27
ENCODING 7719
SWIDTH 556 0
DWIDTH 13 0
BBX 12 22 2 0
BITMAP
3300
3300
0000
0C00
0C00
0C00
0C00
1800
19C0
1BF0
1E30
3C30
3830
3030
3030
6060
6060
6060
6060
C0C0
C0C0
C0C0
ENDCHAR
STARTCHAR uni1E28
ENCODING 7720
SWIDTH 722 0
DWIDTH 18 0
BBX 18 24 2 -5
BITMAP
0C00C0
0C00C0
0C00C0
0C00C0
180180
180180
180180
180180
3FFF00
3FFF00
300300
300300
600600
600600
600600
600600
C00C00
C00C00
C18C00
018000
00C000
00C000
07C000
038000
ENDCHAR
STARTCHAR uni1E29
ENCODING 7721
SWIDTH 556 0
DWIDTH 13 0
BBX 12 24 2 -5
BITMAP
0C00
0C00
0C00
0C00
1800
19C0
1BF0
1E30
3C30
3830
3030
3030
6060
6060
6060
6060
C0C0
C0C0
C6C0
0600
0300
0300
1F00
0E00
ENDCHAR
STARTCHAR uni1E2A
ENCODING 7722
SWIDTH 722 0
DWIDTH 18 0
BBX 18 24 2 -5
BITMAP
0C00C0
0C00C0
0C00C0
0C00C0
180180
180180
180180
180180
3FFF00
3FFF00
300300
300300
600600
600600
600600
600600
C00C00
C00C00
C00C00
000000
081000
0C3000
07E000
03C000
ENDCHAR
STARTCHAR uni1E2B
ENCODING 7723
SWIDTH 556 0
DWIDTH 13 0
BBX 12 24 2 -5
BITMAP
0C00
0C00
0C00
0C00
1800
19C0
1BF0
1E30
3C30
3830
3030
3030
6060
6060
6060
6060
C0C0
C0C0
C0C0
0000
2040
30C0
1F80
0F00
ENDCHAR
STARTCHAR uni1E2C
ENCODING 7724
SWIDTH 278 0
DWIDTH 8 0
BBX 8 23 1 -4
BITMAP
03
03
03
03
06
06
06
06
0C
0C
0C
0C
18
18
18
18
30
30
30
00
71
DB
8E
ENDCHAR
STARTCHAR uni1E2D
ENCODING 7725
SWIDTH 222 0
DWIDTH 6 0
BBX 8 23 0 -4
BITMAP
03
03
03
00
00
06
06
06
0C
0C
0C
0C
18
18
18
18
30
30
30
00
71
DB
8E
ENDCHAR
STARTCHAR uni1E2E
ENCODING 7726
SWIDTH 278 0
DWIDTH 8 0
BBX 9 28 3 0
BITMAP
0300
0600
0C00
1800
0000
1980
1980
0000
0000
0C00
0C00
0C00
0C00
1800
1800
1800
1800
3000
3000
3000
3000
6000
6000
6000
6000
C000
C000
C000
ENDCHAR
STARTCHAR uni1E2F
ENCODING 7727
SWIDTH 278 0
DWIDTH 6 0
BBX 8 23 2 0
BITMAP
03
06
0C
18
00
33
33
00
00
18
18
18
30
30
30
30
60
60
60
60
C0
C0
C0
ENDCHAR
STARTCHAR uni1E30
ENCODING 7728
SWIDTH 667 0
DWIDTH 18 0
BBX 17 24 2 0
BITMAP
001800
003000
006000
00C000
000000
0C0380
0C0700
0C0E00
0C1C00
187000
18E000
19C000
1B8000
3F0000
3F8000
39C000
30C000
60E000
607000
603000
603800
C01C00
C00C00
C00E00
ENDCHAR
STARTCHAR uni1E31
ENCODING 7729
SWIDTH 500 0
DWIDTH 12 0
BBX 12 24 2 0
BITMAP
0300
0600
0C00
1800
0000
0C00
0C00
0C00
0C00
1800
1870
18E0
19C0
3380
3700
3E00
3E00
6700
6300
6380
6180
C1C0
C0C0
C0C0
ENDCHAR
STARTCHAR uni1E32
ENCODING 7730
SWIDTH 667 0
DWIDTH 18 0
BBX 17 22 2 -3
BITMAP
0C0380
0C0700
0C0E00
0C1C00
187000
18E000
19C000
1B8000
3F0000
3F8000
39C000
30C000
60E000
607000
603000
603800
C01C00
C00C00
C00E00
000000
018000
018000
ENDCHAR
STARTCHAR uni1E33
ENCODING 7731
SWIDTH 500 0
DWIDTH 12 0
BBX 12 22 2 -3
BITMAP
0C00
0C00
0C00
0C00
1800
1870
18E0
19C0
3380
3700
3E00
3E00
6700
6300
6380
6180
C1C0
C0C0
C0C0
0000
0C00
0C00
ENDCHAR
STARTCHAR uni1E34
ENCODING 7732
SWIDTH 667 0
DWIDTH 18 0
BBX 17 22 2 -3
BITMAP
0C0380
0C0700
0C0E00
0C1C00
187000
18E000
19C000
1B8000
3F0000
3F8000
39C000
30C000
60E000
607000
603000
603800
C01C00
C00C00
C00E00
000000
07E000
07E000
ENDCHAR
STARTCHAR uni1E35
ENCODING 7733
SWIDTH 500 0
DWIDTH 12 0
BBX 12 22 2 -3
BITMAP
0C00
0C00
0C00
0C00
1800
1870
18E0
19C0
3380
3700
3E00
3E00
6700
6300
6380
6180
C1C0
C0C0
C0C0
0000
3F00
3F00
ENDCHAR
STARTCHAR uni1E36
ENCODING 7734
SWIDTH 556 0
DWIDTH 14 0
BBX 11 22 2 -3
BITMAP
0C00
0C00
0C00
0C00
1800
1800
1800
1800
3000
3000
3000
3000
6000
6000
6000
6000
C000
FFE0
FFE0
0000
0C00
0C00
ENDCHAR
STARTCHAR uni1E37
ENCODING 7735
SWIDTH 222 0
DWIDTH 6 0
BBX 6 22 2 -3
BITMAP
0C
0C
0C
0C
18
18
18
18
30
30
30
30
60
60
60
60
C0
C0
C0
00
60
60
ENDCHAR
STARTCHAR uni1E38
ENCODING 7736
SWIDTH 556 0
DWIDTH 14 0
BBX 11 25 2 -3
BITMAP
3F00
3F00
0000
0C00
0C00
0C00
0C00
1800
1800
1800
1800
3000
3000
3000
3000
6000
6000
6000
6000
C000
FFE0
FFE0
0000
0C00
0C00
ENDCHAR
STARTCHAR uni1E39
ENCODING 7737
SWIDTH 222 0
DWIDTH 6 0
BBX 7 25 2 -3
BITMAP
7E
7E
00
0C
0C
0C
0C
18
18
18
18
30
30
30
30
60
60
60
60
C0
C0
C0
00
60
60
ENDCHAR
STARTCHAR uni1E3A
ENCODING 7738
SWIDTH 556 0
DWIDTH 14 0
BBX 11 22 2 -3
BITMAP
0C00
0C00
0C00
0C00
1800
1800
1800
1800
3000
3000
3000
3000
6000
6000
6000
6000
C000
FFE0
FFE0
0000
3F00
3F00
ENDCHAR
STARTCHAR uni1E3B
ENCODING 7739
SWIDTH 222 0
DWIDTH 6 0
BBX 7 22 1 -3
BITMAP
06
06
06
06
0C
0C
0C
0C
18
18
18
18
30
30
30
30
60
60
60
00
FC
FC
ENDCHAR
STARTCHAR uni1E3C
ENCODING 7740
SWIDTH 556 0
DWIDTH 14 0
BBX 11 24 2 -5
BITMAP
0C00
0C00
0C00
0C00
1800
1800
1800
1800
3000
3000
3000
3000
6000
6000
6000
6000
C000
FFE0
FFE0
0000
0C00
1E00
3300
6180
ENDCHAR
STARTCHAR uni1E3D
ENCODING 7741
SWIDTH 222 0
DWIDTH 6 0
BBX 8 24 0 -5
BITMAP
03
03
03
03
06
06
06
06
0C
0C
0C
0C
18
18
18
18
30
30
30
00
18
3C
66
C3
ENDCHAR
STARTCHAR uni1E3E
ENCODING 7742
SWIDTH 833 0
DWIDTH 22 0
BBX 22 24 2 0
BITMAP
000600
000C00
001800
003000
000000
0C000C
0C001C
0E003C
1E0038
1E0078
1E00D8
1B0198
1B01B0
330330
330730
330630
330C30
619C60
619860
61B860
61B060
C1E0C0
C0E0C0
C0C0C0
ENDCHAR
STARTCHAR uni1E3F
ENCODING 7743
SWIDTH 833 0
DWIDTH 20 0
BBX 18 19 2 0
BITMAP
001800
003000
006000
00C000
000000
19C780
1FEFC0
1C78C0
3870C0
3060C0
3060C0
3060C0
60C180
60C180
60C180
60C180
C18300
C18300
C18300
ENDCHAR
STARTCHAR uni1E40
ENCODING 7744
SWIDTH 833 0
DWIDTH 22 0
BBX 22 22 2 0
BITMAP
001800
001800
000000
0C000C
0C001C
0E003C
1E0038
1E0078
1E00D8
1B0198
1B01B0
330330
330730
330630
330C30
619C60
619860
61B860
61B060
C1E0C0
C0E0C0
C0C0C0
ENDCHAR
STARTCHAR uni1E41
ENCODING 7745
SWIDTH 833 0
DWIDTH 20 0
BBX 18 17 2 0
BITMAP
006000
006000
000000
19C780
1FEFC0
1C78C0
3870C0
3060C0
3060C0
3060C0
60C180
60C180
60C180
60C180
C18300
C18300
C18300
ENDCHAR
STARTCHAR uni1E42
ENCODING 7746
SWIDTH 833 0
DWIDTH 22 0
BBX 22 22 2 -3
BITMAP
0C000C
0C001C
0E003C
1E0038
1E0078
1E00D8
1B0198
1B01B0
330330
330730
330630
330C30
619C60
619860
61B860
61B060
C1E0C0
C0E0C0
C0C0C0
000000
006000
006000
ENDCHAR
STARTCHAR uni1E43
ENCODING 7747
SWIDTH 833 0
DWIDTH 20 0
BBX 18 17 2 -3
BITMAP
19C780
1FEFC0
1C78C0
3870C0
3060C0
3060C0
3060C0
60C180
60C180
60C180
60C180
C18300
C18300
C18300
000000
00C000
00C000
ENDCHAR
STARTCHAR uni1E44
ENCODING 7748
SWIDTH 722 0
DWIDTH 18 0
BBX 18 22 2 0
BITMAP
006000
006000
000000
0E00C0
0E00C0
0E00C0
0F00C0
1B0180
1B0180
198180
198180
318300
30C300
30C300
30C300
606600
606600
603600
603600
C01C00
C01C00
C01C00
ENDCHAR
STARTCHAR uni1E45
ENCODING 7749
SWIDTH 556 0
DWIDTH 14 0
BBX 12 17 2 0
BITMAP
0300
0300
0000
19C0
1BF0
1E30
3C30
3830
3030
3030
6060
6060
6060
6060
C0C0
C0C0
C0C0
ENDCHAR
STARTCHAR uni1E46
ENCODING 7750
SWIDTH 722 0
DWIDTH 18 0
BBX 18 22 2 -3
BITMAP
0E00C0
0E00C0
0E00C0
0F00C0
1B0180
1B0180
198180
198180
318300
30C300
30C300
30C300
606600
606600
603600
603600
C01C00
C01C00
C01C00
000000
00C000
00C000
ENDCHAR
STARTCHAR uni1E47
ENCODING 7751
SWIDTH 556 0
DWIDTH 14 0
BBX 12 17 2 -3
BITMAP
19C0
1BF0
1E30
3C30
3830
3030
3030
6060
6060
6060
6060
C0C0
C0C0
C0C0
0000
0600
0600
ENDCHAR
STARTCHAR uni1E48
ENCODING 7752
SWIDTH 722 0
DWIDTH 18 0
BBX 18 22 2 -3
BITMAP
0E00C0
0E00C0
0E00C0
0F00C0
1B0180
1B0180
198180
198180
318300
30C300
30C300
30C300
606600
606600
603600
603600
C01C00
C01C00
C01C00
000000
03F000
03F000
ENDCHAR
STARTCHAR uni1E49
ENCODING 7753
SWIDTH 556 0
DWIDTH 14 0
BBX 12 17 2 -3
BITMAP
19C0
1BF0
1E30
3C30
3830
3030
3030
6060
6060
6060
6060
C0C0
C0C0
C0C0
0000
1F80
1F80
ENDCHAR
STARTCHAR uni1E4A
ENCODING 7754
SWIDTH 722 0
DWIDTH 18 0
BBX 18 24 2 -5
BITMAP
0E00C0
0E00C0
0E00C0
0F00C0
1B0180
1B0180
198180
198180
318300
30C300
30C300
30C300
606600
606600
603600
603600
C01C00
C01C00
C01C00
000000
00C000
01E000
033000
061800
ENDCHAR
STARTCHAR uni1E4B
ENCODING 7755
SWIDTH 556 0
DWIDTH 14 0
BBX 12 19 2 -5
BITMAP
19C0
1BF0
1E30
3C30
3830
3030
3030
6060
6060
6060
6060
C0C0
C0C0
C0C0
0000
0600
0F00
1980
30C0
ENDCHAR
STARTCHAR uni1E4C
ENCODING 7756
SWIDTH 778 0
DWIDTH 18 0
BBX 18 28 2 0
BITMAP
000C00
001800
003000
006000
000000
007100
00DB00
008E00
000000
00FC00
03FF00
078780
0E0180
1C01C0
3800C0
3000C0
7000C0
6001C0
600180
E00180
C00380
C00300
C00700
E00E00
601C00
787800
3FF000
0FC000
ENDCHAR
STARTCHAR uni1E4D
ENCODING 7757
SWIDTH 556 0
DWIDTH 13 0
BBX 12 23 2 0
BITMAP
00C0
0180
0300
0600
0000
0710
0DB0
08E0
0000
07C0
0FE0
1C70
3030
7030
6030
E030
C070
C060
C0E0
C0C0
E380
7F00
3E00
ENDCHAR
STARTCHAR uni1E4E
ENCODING 7758
SWIDTH 778 0
DWIDTH 18 0
BBX 18 26 2 0
BITMAP
00CC00
00CC00
000000
007100
00DB00
008E00
000000
00FC00
03FF00
078780
0E0180
1C01C0
3800C0
3000C0
7000C0
6001C0
600180
E00180
C00380
C00300
C00700
E00E00
601C00
787800
3FF000
0FC000
ENDCHAR
STARTCHAR uni1E4F
ENCODING 7759
SWIDTH 556 0
DWIDTH 13 0
BBX 12 21 2 0
BITMAP
0CC0
0CC0
0000
0710
0DB0
08E0
0000
07C0
0FE0
1C70
3030
7030
6030
E030
C070
C060
C0E0
C0C0
E380
7F00
3E00
ENDCHAR
STARTCHAR uni1E50
ENCODING 7760
SWIDTH 778 0
DWIDTH 18 0
BBX 18 27 2 0
BITMAP
018000
00C000
006000
003000
000000
01F800
01F800
000000
00FC00
03FF00
078780
0E0180
1C01C0
3800C0
3000C0
7000C0
6001C0
600180
E00180
C00380
C00300
C00700
E00E00
601C00
787800
3FF000
0FC000
ENDCHAR
STARTCHAR uni1E51
ENCODING 7761
SWIDTH 556 0
DWIDTH 13 0
BBX 12 22 2 0
BITMAP
0C00
0600
0300
0180
0000
0FC0
0FC0
0000
07C0
0FE0
1C70
3030
7030
6030
E030
C070
C060
C0E0
C0C0
E380
7F00
3E00
ENDCHAR
STARTCHAR uni1E52
ENCODING 7762
SWIDTH 778 0
DWIDTH 18 0
BBX 18 27 2 0
BITMAP
001800
003000
006000
00C000
000000
01F800
01F800
000000
00FC00
03FF00
078780
0E0180
1C01C0
3800C0
3000C0
7000C0
6001C0
600180
E00180
C00380
C00300
C00700
E00E00
601C00
787800
3FF000
0FC000
ENDCHAR
STARTCHAR uni1E53
ENCODING 7763
SWIDTH 556 0
DWIDTH 13 0
BBX 12 22 2 0
BITMAP
00C0
0180
0300
0600
0000
0FC0
0FC0
0000
07C0
0FE0
1C70
3030
7030
6030
E030
C070
C060
C0E0
C0C0
E380
7F00
3E00
ENDCHAR
STARTCHAR uni1E54
ENCODING 7764
SWIDTH 667 0
DWIDTH 16 0
BBX 16 24 2 0
BITMAP
0030
0060
00C0
0180
0000
0FFE
0FFF
0C03
0C03
1803
1803
1806
180E
3FFC
3FF0
3000
3000
6000
6000
6000
6000
C000
C000
C000
ENDCHAR
STARTCHAR uni1E55
ENCODING 7765
SWIDTH 556 0
DWIDTH 14 0
BBX 14 24 1 -5
BITMAP
0060
00C0
0180
0300
0000
0CF0
0FF8
0F1C
1C0C
180C
181C
1818
3018
3038
3030
3070
78E0
7FC0
6780
6000
C000
C000
C000
C000
ENDCHAR
STARTCHAR uni1E56
ENCODING 7766
SWIDTH 667 0
DWIDTH 16 0
BBX 16 22 2 0
BITMAP
00C0
00C0
0000
0FFE
0FFF
0C03
0C03
1803
1803
1806
180E
3FFC
3FF0
3000
3000
6000
6000
6000
6000
C000
C000
C000
ENDCHAR
STARTCHAR uni1E57
ENCODING 7767
SWIDTH 556 0
DWIDTH 14 0
BBX 14 22 1 -5
BITMAP
0180
0180
0000
0CF0
0FF8
0F1C
1C0C
180C
181C
1818
3018
3038
3030
3070
78E0
7FC0
6780
6000
C000
C000
C000
C000
ENDCHAR
STARTCHAR uni1E58
ENCODING 7768
SWIDTH 722 0
DWIDTH 17 0
BBX 16 22 2 0
BITMAP
00C0
00C0
0000
0FFE
0FFF
0C03
0C03
1803
1803
1806
180E
3FFC
3FF8
301C
300C
600C
600C
600C
6018
C018
C018
C01C
ENDCHAR
STARTCHAR uni1E59
ENCODING 7769
SWIDTH 333 0
DWIDTH 9 0
BBX 9 17 2 0
BITMAP
0C00
0C00
0000
1980
1B80
1E00
3C00
3800
3000
3000
6000
6000
6000
6000
C000
C000
C000
ENDCHAR
STARTCHAR uni1E5A
ENCODING 7770
SWIDTH 722 0
DWIDTH 17 0
BBX 16 22 2 -3
BITMAP
0FFE
0FFF
0C03
0C03
1803
1803
1806
180E
3FFC
3FF8
301C
300C
600C
600C
600C
6018
C018
C018
C01C
0000
0300
0300
ENDCHAR
STARTCHAR uni1E5B
ENCODING 7771
SWIDTH 333 0
DWIDTH 9 0
BBX 9 17 2 -3
BITMAP
1980
1B80
1E00
3C00
3800
3000
3000
6000
6000
6000
6000
C000
C000
C000
0000
6000
6000
ENDCHAR
STARTCHAR uni1E5C
ENCODING 7772
SWIDTH 722 0
DWIDTH 17 0
BBX 16 25 2 -3
BITMAP
03F0
03F0
0000
0FFE
0FFF
0C03
0C03
1803
1803
1806
180E
3FFC
3FF8
301C
300C
600C
600C
600C
6018
C018
C018
C01C
0000
0300
0300
ENDCHAR
STARTCHAR uni1E5D
ENCODING 7773
SWIDTH 333 0
DWIDTH 9 0
BBX 9 20 2 -3
BITMAP
3F00
3F00
0000
1980
1B80
1E00
3C00
3800
3000
3000
6000
6000
6000
6000
C000
C000
C000
0000
6000
6000
ENDCHAR
STARTCHAR uni1E5E
ENCODING 7774
SWIDTH 722 0
DWIDTH 17 0
BBX 16 22 2 -3
BITMAP
0FFE
0FFF
0C03
0C03
1803
1803
1806
180E
3FFC
3FF8
301C
300C
600C
600C
600C
6018
C018
C018
C01C
0000
0FC0
0FC0
ENDCHAR
STARTCHAR uni1E5F
ENCODING 7775
SWIDTH 333 0
DWIDTH 9 0
BBX 10 17 1 -3
BITMAP
0CC0
0DC0
0F00
1E00
1C00
1800
1800
3000
3000
3000
3000
6000
6000
6000
0000
FC00
FC00
ENDCHAR
STARTCHAR uni1E60
ENCODING 7776
SWIDTH 667 0
DWIDTH 16 0
BBX 15 22 2 0
BITMAP
00C0
00C0
0000
01F0
07FC
0E1E
1806
3006
3000
3800
1E00
0FC0
01F0
0038
001C
000C
C00C
C01C
E038
7070
3FE0
1F80
ENDCHAR
STARTCHAR uni1E61
ENCODING 7777
SWIDTH 500 0
DWIDTH 12 0
BBX 12 17 1 0
BITMAP
0300
0300
0000
07C0
1FF0
1830
3030
3000
3E00
1FC0
01E0
0060
0060
C060
E1C0
FF80
3F00
ENDCHAR
STARTCHAR uni1E62
ENCODING 7778
SWIDTH 667 0
DWIDTH 16 0
BBX 15 22 2 -3
BITMAP
01F0
07FC
0E1E
1806
3006
3000
3800
1E00
0FC0
01F0
0038
001C
000C
C00C
C01C
E038
7070
3FE0
1F80
0000
0300
0300
ENDCHAR
STARTCHAR uni1E63
ENCODING 7779
SWIDTH 500 0
DWIDTH 12 0
BBX 12 17 1 -3
BITMAP
07C0
1FF0
1830
3030
3000
3E00
1FC0
01E0
0060
0060
C060
E1C0
FF80
3F00
0000
0C00
0C00
ENDCHAR
STARTCHAR uni1E64
ENCODING 7780
SWIDTH 667 0
DWIDTH 16 0
BBX 15 27 2 0
BITMAP
00C0
00C0
0000
0030
0060
00C0
0180
0000
01F0
07FC
0E1E
1806
3006
3000
3800
1E00
0FC0
01F0
0038
001C
000C
C00C
C01C
E038
7070
3FE0
1F80
ENDCHAR
STARTCHAR uni1E65
ENCODING 7781
SWIDTH 500 0
DWIDTH 12 0
BBX 12 22 1 0
BITMAP
0300
0300
0000
00C0
0180
0300
0600
0000
07C0
1FF0
1830
3030
3000
3E00
1FC0
01E0
0060
0060
C060
E1C0
FF80
3F00
ENDCHAR
STARTCHAR uni1E66
ENCODING 7782
SWIDTH 667 0
DWIDTH 16 0
BBX 16 22 1 0
BITMAP
0060
0060
0000
0186
00CC
0078
0030
0000
00F8
03FE
078F
0E03
0C03
0F00
07C0
01F0
C078
C01C
E01C
7838
3FF0
0FC0
ENDCHAR
STARTCHAR uni1E67
ENCODING 7783
SWIDTH 500 0
DWIDTH 12 0
BBX 11 22 2 0
BITMAP
0300
0300
0000
1860
0CC0
0780
0300
0000
0F80
1FC0
38C0
60C0
6000
7800
3F00
0780
01C0
00C0
C1C0
C380
FF00
7E00
ENDCHAR
STARTCHAR uni1E68
ENCODING 7784
SWIDTH 667 0
DWIDTH 16 0
BBX 15 25 2 -3
BITMAP
0180
0180
0000
01F0
07FC
0E1E
1806
3006
3000
3800
1E00
0FC0
01F0
0038
001C
000C
C00C
C01C
E038
7070
3FE0
1F80
0000
0300
0300
ENDCHAR
STARTCHAR uni1E69
ENCODING 7785
SWIDTH 500 0
DWIDTH 12 0
BBX 12 20 1 -3
BITMAP
0300
0300
0000
07C0
1FF0
1830
3030
3000
3E00
1FC0
01E0
0060
0060
C060
E1C0
FF80
3F00
0000
0C00
0C00
ENDCHAR
STARTCHAR uni1E6A
ENCODING 7786
SWIDTH 611 0
DWIDTH 16 0
BBX 14 22 5 0
BITMAP
0300
0300
0000
FFFC
FFFC
0300
0300
0600
0600
0600
0600
0C00
0C00
0C00
0C00
1800
1800
1800
1800
3000
3000
3000
ENDCHAR
STARTCHAR uni1E6B
ENCODING 7787
SWIDTH 278 0
DWIDTH 8 0
BBX 7 21 3 0
BITMAP
18
18
00
0C
0C
0C
18
7E
7E
18
18
30
30
30
60
60
60
C0
C0
F0
70
ENDCHAR
STARTCHAR uni1E6C
ENCODING 7788
SWIDTH 611 0
DWIDTH 16 0
BBX 14 22 5 -3
BITMAP
FFFC
FFFC
0300
0300
0600
0600
0600
0600
0C00
0C00
0C00
0C00
1800
1800
1800
1800
3000
3000
3000
0000
0C00
0C00
ENDCHAR
STARTCHAR uni1E6D
ENCODING 7789
SWIDTH 278 0
DWIDTH 8 0
BBX 7 21 3 -3
BITMAP
0C
0C
0C
18
7E
7E
18
18
30
30
30
60
60
60
C0
C0
F0
70
00
60
60
ENDCHAR
STARTCHAR uni1E6E
ENCODING 7790
SWIDTH 611 0
DWIDTH 16 0
BBX 14 22 5 -3
BITMAP
FFFC
FFFC
0300
0300
0600
0600
0600
0600
0C00
0C00
0C00
0C00
1800
1800
1800
1800
3000
3000
3000
0000
3F00
3F00
ENDCHAR
STARTCHAR uni1E6F
ENCODING 7791
SWIDTH 278 0
DWIDTH 8 0
BBX 8 21 2 -3
BITMAP
06
06
06
0C
3F
3F
0C
0C
18
18
18
30
30
30
60
60
78
38
00
FC
FC
ENDCHAR
STARTCHAR uni1E70
ENCODING 7792
SWIDTH 611 0
DWIDTH 16 0
BBX 14 24 5 -5
BITMAP
FFFC
FFFC
0300
0300
0600
0600
0600
0600
0C00
0C00
0C00
0C00
1800
1800
1800
1800
3000
3000
3000
0000
0C00
1E00
3300
6180
ENDCHAR
STARTCHAR uni1E71
ENCODING 7793
SWIDTH 278 0
DWIDTH 8 0
BBX 9 23 1 -5
BITMAP
0300
0300
0300
0600
1F80
1F80
0600
0600
0C00
0C00
0C00
1800
1800
1800
3000
3000
3C00
1C00
0000
1800
3C00
6600
C300
ENDCHAR
STARTCHAR uni1E72
ENCODING 7794
SWIDTH 722 0
DWIDTH 18 0
BBX 17 22 3 -3
BITMAP
180180
180180
180180
180180
300300
300300
300300
300300
600600
600600
600600
600C00
C00C00
C01C00
C01800
E03800
607000
7FE000
1F8000
000000
0CC000
0CC000
ENDCHAR
STARTCHAR uni1E73
ENCODING 7795
SWIDTH 556 0
DWIDTH 14 0
BBX 12 17 3 -3
BITMAP
3030
3030
3030
6060
6060
6060
6060
C0C0
C0C0
C0C0
C1C0
C780
FD80
7980
0000
3300
3300
ENDCHAR
STARTCHAR uni1E74
ENCODING 7796
SWIDTH 722 0
DWIDTH 18 0
BBX 17 23 3 -4
BITMAP
180180
180180
180180
180180
300300
300300
300300
300300
600600
600600
600600
600C00
C00C00
C01C00
C01800
E03800
607000
7FE000
1F8000
000000
0E2000
1B6000
11C000
ENDCHAR
STARTCHAR uni1E75
ENCODING 7797
SWIDTH 556 0
DWIDTH 14 0
BBX 12 18 3 -4
BITMAP
3030
3030
3030
6060
6060
6060
6060
C0C0
C0C0
C0C0
C1C0
C780
FD80
7980
0000
3880
6D80
4700
ENDCHAR
STARTCHAR uni1E76
ENCODING 7798
SWIDTH 722 0
DWIDTH 18 0
BBX 17 24 3 -5
BITMAP
180180
180180
180180
180180
300300
300300
300300
300300
600600
600600
600600
600C00
C00C00
C01C00
C01800
E03800
607000
7FE000
1F8000
000000
030000
078000
0CC000
186000
ENDCHAR
STARTCHAR uni1E77
ENCODING 7799
SWIDTH 556 0
DWIDTH 14 0
BBX 12 19 3 -5
BITMAP
3030
3030
3030
6060
6060
6060
6060
C0C0
C0C0
C0C0
C1C0
C780
FD80
7980
0000
0C00
1E00
3300
6180
ENDCHAR
STARTCHAR uni1E78
ENCODING 7800
SWIDTH 722 0
DWIDTH 18 0
BBX 17 28 3 0
BITMAP
003000
006000
00C000
018000
000000
038800
06D800
047000
000000
180180
180180
180180
180180
300300
300300
300300
300300
600600
600600
600600
600C00
C00C00
C01C00
C01800
E03800
607000
7FE000
1F8000
ENDCHAR
STARTCHAR uni1E79
ENCODING 7801
SWIDTH 556 0
DWIDTH 14 0
BBX 12 23 3 0
BITMAP
0180
0300
0600
0C00
0000
1C40
36C0
2380
0000
3030
3030
3030
6060
6060
6060
6060
C0C0
C0C0
C0C0
C1C0
C780
FD80
7980
ENDCHAR
STARTCHAR uni1E7A
ENCODING 7802
SWIDTH 722 0
DWIDTH 18 0
BBX 17 25 3 0
BITMAP
033000
033000
000000
03F000
03F000
000000
180180
180180
180180
180180
300300
300300
300300
300300
600600
600600
600600
600C00
C00C00
C01C00
C01800
E03800
607000
7FE000
1F8000
ENDCHAR
STARTCHAR uni1E7B
ENCODING 7803
SWIDTH 556 0
DWIDTH 14 0
BBX 12 20 3 0
BITMAP
0CC0
0CC0
0000
0FC0
0FC0
0000
3030
3030
3030
6060
6060
6060
6060
C0C0
C0C0
C0C0
C1C0
C780
FD80
7980
ENDCHAR
STARTCHAR uni1E7C
ENCODING 7804
SWIDTH 667 0
DWIDTH 17 0
BBX 15 23 5 0
BITMAP
0E20
1B60
11C0
0000
C006
C006
C00C
C00C
C018
C038
C030
C070
C060
E0C0
61C0
6180
6380
6300
6700
6600
6C00
6C00
7800
ENDCHAR
STARTCHAR uni1E7D
ENCODING 7805
SWIDTH 500 0
DWIDTH 13 0
BBX 11 18 4 0
BITMAP
3880
6D80
4700
0000
C060
C060
C0C0
C0C0
C180
C180
C300
C300
6600
6600
6C00
7C00
7800
7000
ENDCHAR
STARTCHAR uni1E7E
ENCODING 7806
SWIDTH 667 0
DWIDTH 17 0
BBX 15 22 5 -3
BITMAP
C006
C006
C00C
C00C
C018
C038
C030
C070
C060
E0C0
61C0
6180
6380
6300
6700
6600
6C00
6C00
7800
0000
0C00
0C00
ENDCHAR
STARTCHAR uni1E7F
ENCODING 7807
SWIDTH 500 0
DWIDTH 13 0
BBX 11 17 4 -3
BITMAP
C060
C060
C0C0
C0C0
C180
C180
C300
C300
6600
6600
6C00
7C00
7800
7000
0000
1800
1800
ENDCHAR
STARTCHAR Wgrave
ENCODING 7808
SWIDTH 944 0
DWIDTH 22 0
BBX 20 24 5 0
BITMAP
018000
00C000
006000
003000
000000
C06030
C06030
C0E060
C0E060
C1E0C0
C1E0C0
C36180
C36180
C76380
C66300
CE6700
CC6600
DC6E00
D86C00
D86C00
703800
703800
603000
603000
ENDCHAR
STARTCHAR wgrave
ENCODING 7809
SWIDTH 722 0
DWIDTH 18 0
BBX 17 19 3 0
BITMAP
060000
030000
018000
00C000
000000
C0C180
C1C180
C3C300
C3C300
C6C600
C6C600
CCCC00
CCCC00
D8D800
78D800
707800
707000
606000
606000
ENDCHAR
STARTCHAR Wacute
ENCODING 7810
SWIDTH 944 0
DWIDTH 22 0
BBX 20 24 5 0
BITMAP
001800
003000
006000
00C000
000000
C06030
C06030
C0E060
C0E060
C1E0C0
C1E0C0
C36180
C36180
C76380
C66300
CE6700
CC6600
DC6E00
D86C00
D86C00
703800
703800
603000
603000
ENDCHAR
STARTCHAR wacute
ENCODING 7811
SWIDTH 722 0
DWIDTH 18 0
BBX 17 19 3 0
BITMAP
003000
006000
00C000
018000
000000
C0C180
C1C180
C3C300
C3C300
C6C600
C6C600
CCCC00
CCCC00
D8D800
78D800
707800
707000
606000
606000
ENDCHAR
STARTCHAR Wdieresis
ENCODING 7812
SWIDTH 944 0
DWIDTH 22 0
BBX 20 22 5 0
BITMAP
019800
019800
000000
C06030
C06030
C0E060
C0E060
C1E0C0
C1E0C0
C36180
C36180
C76380
C66300
CE6700
CC6600
DC6E00
D86C00
D86C00
703800
703800
603000
603000
ENDCHAR
STARTCHAR wdieresis
ENCODING 7813
SWIDTH 722 0
DWIDTH 18 0
BBX 17 17 3 0
BITMAP
066000
066000
000000
C0C180
C1C180
C3C300
C3C300
C6C600
C6C600
CCCC00
CCCC00
D8D800
78D800
707800
707000
606000
606000
ENDCHAR
STARTCHAR uni1E86
ENCODING 7814
SWIDTH 944 0
DWIDTH 22 0
BBX 20 22 5 0
BITMAP
006000
006000
000000
C06030
C06030
C0E060
C0E060
C1E0C0
C1E0C0
C36180
C36180
C76380
C66300
CE6700
CC6600
DC6E00
D86C00
D86C00
703800
703800
603000
603000
ENDCHAR
STARTCHAR uni1E87
ENCODING 7815
SWIDTH 722 0
DWIDTH 18 0
BBX 17 17 3 0
BITMAP
018000
018000
000000
C0C180
C1C180
C3C300
C3C300
C6C600
C6C600
CCCC00
CCCC00
D8D800
78D800
707800
707000
606000
606000
ENDCHAR
STARTCHAR uni1E88
ENCODING 7816
SWIDTH 944 0
DWIDTH 22 0
BBX 20 22 5 -3
BITMAP
C06030
C06030
C0E060
C0E060
C1E0C0
C1E0C0
C36180
C36180
C76380
C66300
CE6700
CC6600
DC6E00
D86C00
D86C00
703800
703800
603000
603000
000000
018000
018000
ENDCHAR
STARTCHAR uni1E89
ENCODING 7817
SWIDTH 722 0
DWIDTH 18 0
BBX 17 17 3 -3
BITMAP
C0C180
C1C180
C3C300
C3C300
C6C600
C6C600
CCCC00
CCCC00
D8D800
78D800
707800
707000
606000
606000
000000
030000
030000
ENDCHAR
STARTCHAR uni1E8A
ENCODING 7818
SWIDTH 667 0
DWIDTH 17 0
BBX 19 22 1 0
BITMAP
003000
003000
000000
0C0060
0E00E0
0601C0
070380
030700
018E00
01DC00
00F800
00F000
00E000
01F000
03B000
073800
0E1800
1C1C00
380C00
700E00
E00600
C00600
ENDCHAR
STARTCHAR uni1E8B
ENCODING 7819
SWIDTH 500 0
DWIDTH 12 0
BBX 14 17 1 0
BITMAP
0180
0180
0000
180C
181C
0C38
0C70
06E0
07C0
0380
0700
0F80
1D80
38C0
70C0
E060
C060
ENDCHAR
STARTCHAR uni1E8C
ENCODING 7820
SWIDTH 667 0
DWIDTH 17 0
BBX 19 22 1 0
BITMAP
00CC00
00CC00
000000
0C0060
0E00E0
0601C0
070380
030700
018E00
01DC00
00F800
00F000
00E000
01F000
03B000
073800
0E1800
1C1C00
380C00
700E00
E00600
C00600
ENDCHAR
STARTCHAR uni1E8D
ENCODING 7821
SWIDTH 500 0
DWIDTH 12 0
BBX 14 17 1 0
BITMAP
0660
0660
0000
180C
181C
0C38
0C70
06E0
07C0
0380
0700
0F80
1D80
38C0
70C0
E060
C060
ENDCHAR
STARTCHAR uni1E8E
ENCODING 7822
SWIDTH 667 0
DWIDTH 16 0
BBX 14 22 6 0
BITMAP
0300
0300
0000
C00C
C01C
C038
6070
6060
60C0
3180
3300
3700
3600
1C00
1800
1800
1800
3000
3000
3000
6000
6000
ENDCHAR
STARTCHAR uni1E8F
ENCODING 7823
SWIDTH 500 0
DWIDTH 13 0
BBX 14 22 1 -5
BITMAP
0180
0180
0000
300C
300C
301C
3818
1830
1870
1860
0CE0
0CC0
0D80
0780
0700
0700
0600
0C00
1C00
3800
F000
E000
ENDCHAR
STARTCHAR uni1E90
ENCODING 7824
SWIDTH 611 0
DWIDTH 15 0
BBX 17 24 1 0
BITMAP
003000
007800
00CC00
018600
000000
0FFF80
0FFF80
000380
000700
000E00
001C00
003800
007000
00E000
01C000
038000
070000
0E0000
1C0000
380000
700000
E00000
FFF800
FFF800
ENDCHAR
STARTCHAR uni1E91
ENCODING 7825
SWIDTH 500 0
DWIDTH 12 0
BBX 13 19 1 0
BITMAP
0180
03C0
0660
0C30
0000
1FF8
1FF8
0030
0060
00C0
0180
0300
0600
0C00
1800
3000
6000
FFC0
FFC0
ENDCHAR
STARTCHAR uni1E92
ENCODING 7826
SWIDTH 611 0
DWIDTH 15 0
BBX 17 22 1 -3
BITMAP
0FFF80
0FFF80
000380
000700
000E00
001C00
003800
007000
00E000
01C000
038000
070000
0E0000
1C0000
380000
700000
E00000
FFF800
FFF800
000000
060000
060000
ENDCHAR
STARTCHAR uni1E93
ENCODING 7827
SWIDTH 500 0
DWIDTH 12 0
BBX 13 17 1 -3
BITMAP
1FF8
1FF8
0030
0060
00C0
0180
0300
0600
0C00
1800
3000
6000
FFC0
FFC0
0000
0C00
0C00
ENDCHAR
STARTCHAR uni1E94
ENCODING 7828
SWIDTH 611 0
DWIDTH 15 0
BBX 17 22 1 -3
BITMAP
0FFF80
0FFF80
000380
000700
000E00
001C00
003800
007000
00E000
01C000
038000
070000
0E0000
1C0000
380000
700000
E00000
FFF800
FFF800
000000
1F8000
1F8000
ENDCHAR
STARTCHAR uni1E95
ENCODING 7829
SWIDTH 500 0
DWIDTH 12 0
BBX 13 17 1 -3
BITMAP
1FF8
1FF8
0030
0060
00C0
0180
0300
0600
0C00
1800
3000
6000
FFC0
FFC0
0000
3F00
3F00
ENDCHAR
STARTCHAR uni1E96
ENCODING 7830
SWIDTH 556 0
DWIDTH 13 0
BBX 12 22 2 -3
BITMAP
0C00
0C00
0C00
0C00
1800
19C0
1BF0
1E30
3C30
3830
3030
3030
6060
6060
6060
6060
C0C0
C0C0
C0C0
0000
1F80
1F80
ENDCHAR
STARTCHAR uni1E97
ENCODING 7831
SWIDTH 278 0
DWIDTH 8 0
BBX 7 21 3 0
BITMAP
66
66
00
0C
0C
0C
18
7E
7E
18
18
30
30
30
60
60
60
C0
C0
F0
70
ENDCHAR
STARTCHAR uni1E98
ENCODING 7832
SWIDTH 722 0
DWIDTH 18 0
BBX 17 20 3 0
BITMAP
018000
03C000
024000
03C000
018000
000000
C0C180
C1C180
C3C300
C3C300
C6C600
C6C600
CCCC00
CCCC00
D8D800
78D800
707800
707000
606000
606000
ENDCHAR
STARTCHAR uni1E99
ENCODING 7833
SWIDTH 500 0
DWIDTH 13 0
BBX 14 25 1 -5
BITMAP
0180
03C0
0240
03C0
0180
0000
300C
300C
301C
3818
1830
1870
1860
0CE0
0CC0
0D80
0780
0700
0700
0600
0C00
1C00
3800
F000
E000
ENDCHAR
STARTCHAR uni1EA0
ENCODING 7840
SWIDTH 667 0
DWIDTH 17 0
BBX 15 22 1 -3
BITMAP
0030
0070
0070
00F8
00D8
0198
0198
0318
0718
060C
0C0C
0FFC
1FFC
180C
3006
7006
6006
E006
E006
0000
0300
0300
ENDCHAR
STARTCHAR uni1EA1
ENCODING 7841
SWIDTH 556 0
DWIDTH 13 0
BBX 11 17 2 -3
BITMAP
07C0
1FE0
3860
3060
00E0
07C0
1FC0
78C0
6180
C180
C380
C780
FDC0
78C0
0000
0C00
0C00
ENDCHAR
STARTCHAR uni1EA4
ENCODING 7844
SWIDTH 667 0
DWIDTH 17 0
BBX 15 29 1 0
BITMAP
0018
0030
0060
00C0
0000
001C
003C
0066
00C6
0000
0030
0070
0070
00F8
00D8
0198
0198
0318
0718
060C
0C0C
0FFC
1FFC
180C
3006
7006
6006
E006
E006
ENDCHAR
STARTCHAR uni1EA5
ENCODING 7845
SWIDTH 556 0
DWIDTH 13 0
BBX 11 24 2 0
BITMAP
00C0
0180
0300
0600
0000
01C0
03C0
0660
0C60
0000
07C0
1FE0
3860
3060
00E0
07C0
1FC0
78C0
61C0
C180
C380
C780
FDC0
78C0
ENDCHAR
STARTCHAR uni1EA6
ENCODING 7846
SWIDTH 667 0
DWIDTH 17 0
BBX 15 29 1 0
BITMAP
0180
00C0
0060
0030
0000
001C
003C
0066
00C6
0000
0030
0070
0070
00F8
00D8
0198
0198
0318
0718
060C
0C0C
0FFC
1FFC
180C
3006
7006
6006
E006
E006
ENDCHAR
STARTCHAR uni1EA7
ENCODING 7847
SWIDTH 556 0
DWIDTH 13 0
BBX 11 24 2 0
BITMAP
0C00
0600
0300
0180
0000
01C0
03C0
0660
0C60
0000
07C0
1FE0
3860
3060
00E0
07C0
1FC0
78C0
61C0
C180
C380
C780
FDC0
78C0
ENDCHAR
STARTCHAR uni1EAA
ENCODING 7850
SWIDTH 667 0
DWIDTH 17 0
BBX 15 28 1 0
BITMAP
01C4
036C
0238
0000
001C
003C
0066
00C6
0000
0030
0070
0070
00F8
00D8
0198
0198
0318
0718
060C
0C0C
0FFC
1FFC
180C
3006
7006
6006
E006
E006
ENDCHAR
STARTCHAR uni1EAB
ENCODING 7851
SWIDTH 556 0
DWIDTH 13 0
BBX 11 23 2 0
BITMAP
0E20
1B60
11C0
0000
01C0
03C0
0660
0C60
0000
07C0
1FE0
3860
3060
00E0
07C0
1FC0
78C0
61C0
C180
C380
C780
FDC0
78C0
ENDCHAR
STARTCHAR uni1EAC
ENCODING 7852
SWIDTH 667 0
DWIDTH 17 0
BBX 15 27 1 -3
BITMAP
00C0
01E0
0330
0618
0000
0030
0070
0070
00F8
00D8
0198
0198
0318
0718
060C
0C0C
0FFC
1FFC
180C
3006
7006
6006
E006
E006
0000
0300
0300
ENDCHAR
STARTCHAR uni1EAD
ENCODING 7853
SWIDTH 556 0
DWIDTH 13 0
BBX 11 22 2 -3
BITMAP
0300
0780
0CC0
1860
0000
07C0
1FE0
3860
3060
00E0
07C0
1FC0
78C0
6180
C180
C380
C780
FDC0
78C0
0000
0C00
0C00
ENDCHAR
STARTCHAR uni1EAE
ENCODING 7854
SWIDTH 667 0
DWIDTH 17 0
BBX 15 29 1 0
BITMAP
0030
0060
00C0
0180
0000
0204
030C
01F8
00F0
0000
0030
0070
0070
00F8
00D8
0198
0198
0318
0718
060C
0C0C
0FFC
1FFC
180C
3006
7006
6006
E006
E006
ENDCHAR
STARTCHAR uni1EAF
ENCODING 7855
SWIDTH 556 0
DWIDTH 13 0
BBX 11 24 2 0
BITMAP
0180
0300
0600
0C00
0000
2040
30C0
1F80
0F00
0000
07C0
1FE0
3860
3060
00E0
07C0
1FC0
78C0
6180
C180
C380
C780
FDC0
78C0
ENDCHAR
STARTCHAR uni1EB0
ENCODING 7856
SWIDTH 667 0
DWIDTH 17 0
BBX 15 29 1 0
BITMAP
0300
0180
00C0
0060
0000
0204
030C
01F8
00F0
0000
0030
0070
0070
00F8
00D8
0198
0198
0318
0718
060C
0C0C
0FFC
1FFC
180C
3006
7006
6006
E006
E006
ENDCHAR
STARTCHAR uni1EB1
ENCODING 7857
SWIDTH 556 0
DWIDTH 13 0
BBX 11 24 2 0
BITMAP
1800
0C00
0600
0300
0000
2040
30C0
1F80
0F00
0000
07C0
1FE0
3860
3060
00E0
07C0
1FC0
78C0
6180
C180
C380
C780
FDC0
78C0
ENDCHAR
STARTCHAR uni1EB4
ENCODING 7860
SWIDTH 667 0
DWIDTH 17 0
BBX 15 28 1 0
BITMAP
0388
06D8
0470
0000
0204
030C
01F8
00F0
0000
0030
0070
0070
00F8
00D8
0198
0198
0318
0718
060C
0C0C
0FFC
1FFC
180C
3006
7006
6006
E006
E006
ENDCHAR
STARTCHAR uni1EB5
ENCODING 7861
SWIDTH 556 0
DWIDTH 13 0
BBX 11 23 2 0
BITMAP
1C40
36C0
2380
0000
2040
30C0
1F80
0F00
0000
07C0
1FE0
3860
3060
00E0
07C0
1FC0
78C0
6180
C180
C380
C780
FDC0
78C0
ENDCHAR
STARTCHAR uni1EB6
ENCODING 7862
SWIDTH 667 0
DWIDTH 17 0
BBX 15 27 1 -3
BITMAP
0408
0618
03F0
01E0
0000
0030
0070
0070
00F8
00D8
0198
0198
0318
0718
060C
0C0C
0FFC
1FFC
180C
3006
7006
6006
E006
E006
0000
0300
0300
ENDCHAR
STARTCHAR uni1EB7
ENCODING 7863
SWIDTH 556 0
DWIDTH 13 0
BBX 11 22 2 -3
BITMAP
1020
1860
0FC0
0780
0000
07C0
1FE0
3860
3060
00E0
07C0
1FC0
78C0
6180
C180
C380
C780
FDC0
78C0
0000
0C00
0C00
ENDCHAR
STARTCHAR uni1EB8
ENCODING 7864
SWIDTH 667 0
DWIDTH 16 0
BBX 16 22 2 -3
BITMAP
0FFF
0FFF
0C00
0C00
1800
1800
1800
1800
3FF8
3FF8
3000
3000
6000
6000
6000
6000
C000
FFF0
FFF0
0000
0600
0600
ENDCHAR
STARTCHAR uni1EB9
ENCODING 7865
SWIDTH 556 0
DWIDTH 13 0
BBX 12 17 2 -3
BITMAP
03C0
0FE0
1C70
3830
7030
6070
FFE0
FFE0
C000
C000
C0C0
E1C0
7F80
3E00
0000
0C00
0C00
ENDCHAR
STARTCHAR uni1EBC
ENCODING 7868
SWIDTH 667 0
DWIDTH 16 0
BBX 16 23 2 0
BITMAP
0710
0DB0
08E0
0000
0FFF
0FFF
0C00
0C00
1800
1800
1800
1800
3FF8
3FF8
3000
3000
6000
6000
6000
6000
C000
FFF0
FFF0
ENDCHAR
STARTCHAR uni1EBD
ENCODING 7869
SWIDTH 556 0
DWIDTH 13 0
BBX 12 18 2 0
BITMAP
0E20
1B60
11C0
0000
03C0
0FE0
1C70
3830
7030
6070
FFE0
FFE0
C000
C000
C0C0
E1C0
7F80
3E00
ENDCHAR
STARTCHAR uni1EBE
ENCODING 7870
SWIDTH 667 0
DWIDTH 16 0
BBX 16 29 2 0
BITMAP
0018
0030
0060
00C0
0000
0038
0078
00CC
018C
0000
0FFF
0FFF
0C00
0C00
1800
1800
1800
1800
3FF8
3FF8
3000
3000
6000
6000
6000
6000
C000
FFF0
FFF0
ENDCHAR
STARTCHAR uni1EBF
ENCODING 7871
SWIDTH 556 0
DWIDTH 13 0
BBX 12 24 2 0
BITMAP
0060
00C0
0180
0300
0000
00E0
01E0
0330
0630
0000
03C0
0FE0
1C70
3030
7030
6070
FFE0
FFE0
C000
C000
C0C0
E1C0
7F80
3E00
ENDCHAR
STARTCHAR uni1EC0
ENCODING 7872
SWIDTH 667 0
DWIDTH 16 0
BBX 16 29 2 0
BITMAP
0300
0180
00C0
0060
0000
0038
0078
00CC
018C
0000
0FFF
0FFF
0C00
0C00
1800
1800
1800
1800
3FF8
3FF8
3000
3000
6000
6000
6000
6000
C000
FFF0
FFF0
ENDCHAR
STARTCHAR uni1EC1
ENCODING 7873
SWIDTH 556 0
DWIDTH 13 0
BBX 12 24 2 0
BITMAP
0600
0300
0180
00C0
0000
00E0
01E0
0330
0630
0000
03C0
0FE0
1C70
3030
7030
6070
FFE0
FFE0
C000
C000
C0C0
E1C0
7F80
3E00
ENDCHAR
STARTCHAR uni1EC4
ENCODING 7876
SWIDTH 667 0
DWIDTH 16 0
BBX 16 28 2 0
BITMAP
0388
06D8
0470
0000
0038
0078
00CC
018C
0000
0FFF
0FFF
0C00
0C00
1800
1800
1800
1800
3FF8
3FF8
3000
3000
6000
6000
6000
6000
C000
FFF0
FFF0
ENDCHAR
STARTCHAR uni1EC5
ENCODING 7877
SWIDTH 556 0
DWIDTH 13 0
BBX 12 23 2 0
BITMAP
0710
0DB0
08E0
0000
00E0
01E0
0330
0630
0000
03C0
0FE0
1C70
3030
7030
6070
FFE0
FFE0
C000
C000
C0C0
E1C0
7F80
3E00
ENDCHAR
STARTCHAR uni1EC6
ENCODING 7878
SWIDTH 667 0
DWIDTH 16 0
BBX 16 27 2 -3
BITMAP
0180
03C0
0660
0C30
0000
0FFF
0FFF
0C00
0C00
1800
1800
1800
1800
3FF8
3FF8
3000
3000
6000
6000
6000
6000
C000
FFF0
FFF0
0000
0600
0600
ENDCHAR
STARTCHAR uni1EC7
ENCODING 7879
SWIDTH 556 0
DWIDTH 13 0
BBX 12 22 2 -3
BITMAP
0300
0780
0CC0
1860
0000
03C0
0FE0
1C70
3830
7030
6070
FFE0
FFE0
C000
C000
C0C0
E1C0
7F80
3E00
0000
0C00
0C00
ENDCHAR
STARTCHAR uni1ECA
ENCODING 7882
SWIDTH 278 0
DWIDTH 8 0
BBX 6 22 3 -3
BITMAP
0C
0C
0C
0C
18
18
18
18
30
30
30
30
60
60
60
60
C0
C0
C0
00
60
60
ENDCHAR
STARTCHAR uni1ECB
ENCODING 7883
SWIDTH 222 0
DWIDTH 6 0
BBX 6 22 2 -3
BITMAP
0C
0C
0C
00
00
18
18
18
30
30
30
30
60
60
60
60
C0
C0
C0
00
60
60
ENDCHAR
STARTCHAR uni1ECC
ENCODING 7884
SWIDTH 778 0
DWIDTH 18 0
BBX 18 22 2 -3
BITMAP
00FC00
03FF00
078780
0E0180
1C01C0
3800C0
3000C0
7000C0
6001C0
600180
E00180
C00380
C00300
C00700
E00E00
601C00
787800
3FF000
0FC000
000000
018000
018000
ENDCHAR
STARTCHAR uni1ECD
ENCODING 7885
SWIDTH 556 0
DWIDTH 13 0
BBX 12 17 2 -3
BITMAP
07C0
0FE0
1C70
3030
7030
6030
E030
C070
C060
C0E0
C0C0
E380
7F00
3E00
0000
0C00
0C00
ENDCHAR
STARTCHAR uni1ED0
ENCODING 7888
SWIDTH 778 0
DWIDTH 18 0
BBX 18 29 2 0
BITMAP
000C00
001800
003000
006000
000000
000E00
001E00
003300
006300
000000
00FC00
03FF00
078780
0E0180
1C01C0
3800C0
3000C0
7000C0
6001C0
600180
E00180
C00380
C00300
C00700
E00E00
601C00
787800
3FF000
0FC000
ENDCHAR
STARTCHAR uni1ED1
ENCODING 7889
SWIDTH 556 0
DWIDTH 13 0
BBX 12 24 2 0
BITMAP
0060
00C0
0180
0300
0000
00E0
01E0
0330
0630
0000
07C0
0FE0
1C70
3030
7030
6030
E030
C070
C060
C0E0
C0C0
E380
7F00
3E00
ENDCHAR
STARTCHAR uni1ED2
ENCODING 7890
SWIDTH 778 0
DWIDTH 18 0
BBX 18 29 2 0
BITMAP
00C000
006000
003000
001800
000000
000E00
001E00
003300
006300
000000
00FC00
03FF00
078780
0E0180
1C01C0
3800C0
3000C0
7000C0
6001C0
600180
E00180
C00380
C00300
C00700
E00E00
601C00
787800
3FF000
0FC000
ENDCHAR
STARTCHAR uni1ED3
ENCODING 7891
SWIDTH 556 0
DWIDTH 13 0
BBX 12 24 2 0
BITMAP
0600
0300
0180
00C0
0000
00E0
01E0
0330
0630
0000
07C0
0FE0
1C70
3030
7030
6030
E030
C070
C060
C0E0
C0C0
E380
7F00
3E00
ENDCHAR
STARTCHAR uni1ED6
ENCODING 7894
SWIDTH 778 0
DWIDTH 18 0
BBX 18 28 2 0
BITMAP
00E200
01B600
011C00
000000
000E00
001E00
003300
006300
000000
00FC00
03FF00
078780
0E0180
1C01C0
3800C0
3000C0
7000C0
6001C0
600180
E00180
C00380
C00300
C00700
E00E00
601C00
787800
3FF000
0FC000
ENDCHAR
STARTCHAR uni1ED7
ENCODING 7895
SWIDTH 556 0
DWIDTH 13 0
BBX 12 23 2 0
BITMAP
0710
0DB0
08E0
0000
00E0
01E0
0330
0630
0000
07C0
0FE0
1C70
3030
7030
6030
E030
C070
C060
C0E0
C0C0
E380
7F00
3E00
ENDCHAR
STARTCHAR uni1ED8
ENCODING 7896
SWIDTH 778 0
DWIDTH 18 0
BBX 18 27 2 -3
BITMAP
006000
00F000
019800
030C00
000000
00FC00
03FF00
078780
0E0180
1C01C0
3800C0
3000C0
7000C0
6001C0
600180
E00180
C00380
C00300
C00700
E00E00
601C00
787800
3FF000
0FC000
000000
018000
018000
ENDCHAR
STARTCHAR uni1ED9
ENCODING 7897
SWIDTH 556 0
DWIDTH 13 0
BBX 12 22 2 -3
BITMAP
0300
0780
0CC0
1860
0000
07C0
0FE0
1C70
3030
7030
6030
E030
C070
C060
C0E0
C0C0
E380
7F00
3E00
0000
0C00
0C00
ENDCHAR
STARTCHAR uni1EDA
ENCODING 7898
SWIDTH 778 0
DWIDTH 18 0
BBX 19 24 2 0
BITMAP
000C00
001800
003000
006000
000000
00FC60
03FF60
0787E0
0E01A0
1C01E0
3800C0
3000C0
7000C0
6001C0
600180
E00180
C00380
C00300
C00700
E00E00
601C00
787800
3FF000
0FC000
ENDCHAR
STARTCHAR uni1EDB
ENCODING 7899
SWIDTH 556 0
DWIDTH 13 0
BBX 14 19 2 0
BITMAP
0060
00C0
0180
0300
0000
07CC
0FEC
1C7C
3034
703C
6038
E030
C070
C060
C0E0
C0C0
E380
7F00
3E00
ENDCHAR
STARTCHAR uni1EDC
ENCODING 7900
SWIDTH 778 0
DWIDTH 18 0
BBX 19 24 2 0
BITMAP
00C000
006000
003000
001800
000000
00FC60
03FF60
0787E0
0E01A0
1C01E0
3800C0
3000C0
7000C0
6001C0
600180
E00180
C00380
C00300
C00700
E00E00
601C00
787800
3FF000
0FC000
ENDCHAR
STARTCHAR uni1EDD
ENCODING 7901
SWIDTH 556 0
DWIDTH 13 0
BBX 14 19 2 0
BITMAP
0600
0300
0180
00C0
0000
07CC
0FEC
1C7C
3034
703C
6038
E030
C070
C060
C0E0
C0C0
E380
7F00
3E00
ENDCHAR
STARTCHAR uni1EE0
ENCODING 7904
SWIDTH 778 0
DWIDTH 18 0
BBX 19 23 2 0
BITMAP
00E200
01B600
011C00
000000
00FC60
03FF60
0787E0
0E01A0
1C01E0
3800C0
3000C0
7000C0
6001C0
600180
E00180
C00380
C00300
C00700
E00E00
601C00
787800
3FF000
0FC000
ENDCHAR
STARTCHAR uni1EE1
ENCODING 7905
SWIDTH 556 0
DWIDTH 13 0
BBX 14 18 2 0
BITMAP
0710
0DB0
08E0
0000
07CC
0FEC
1C7C
3034
703C
6038
E030
C070
C060
C0E0
C0C0
E380
7F00
3E00
ENDCHAR
STARTCHAR uni1EE2
ENCODING 7906
SWIDTH 778 0
DWIDTH 18 0
BBX 19 22 2 -3
BITMAP
00FC60
03FF60
0787E0
0E01A0
1C01E0
3800C0
3000C0
7000C0
6001C0
600180
E00180
C00380
C00300
C00700
E00E00
601C00
787800
3FF000
0FC000
000000
018000
018000
ENDCHAR
STARTCHAR uni1EE3
ENCODING 7907
SWIDTH 556 0
DWIDTH 13 0
BBX 14 17 2 -3
BITMAP
07CC
0FEC
1C7C
3034
703C
6038
E030
C070
C060
C0E0
C0C0
E380
7F00
3E00
0000
0C00
0C00
ENDCHAR
STARTCHAR uni1EE4
ENCODING 7908
SWIDTH 722 0
DWIDTH 18 0
BBX 17 22 3 -3
BITMAP
180180
180180
180180
180180
300300
300300
300300
300300
600600
600600
600600
600C00
C00C00
C01C00
C01800
E03800
607000
7FE000
1F8000
000000
030000
030000
ENDCHAR
STARTCHAR uni1EE5
ENCODING 7909
SWIDTH 556 0
DWIDTH 14 0
BBX 12 17 3 -3
BITMAP
3030
3030
3030
6060
6060
6060
6060
C0C0
C0C0
C0C0
C1C0
C780
FD80
7980
0000
0C00
0C00
ENDCHAR
STARTCHAR uni1EE8
ENCODING 7912
SWIDTH 722 0
DWIDTH 18 0
BBX 18 24 3 0
BITMAP
000C00
001800
003000
006000
000000
1801C0
1801C0
1801C0
1801C0
3003C0
300380
300300
300300
600600
600600
600600
600C00
C00C00
C01C00
C01800
E03800
607000
7FE000
1F8000
ENDCHAR
STARTCHAR uni1EE9
ENCODING 7913
SWIDTH 556 0
DWIDTH 14 0
BBX 14 19 3 0
BITMAP
0060
00C0
0180
0300
0000
303C
303C
303C
6064
606C
6078
6060
C0C0
C0C0
C0C0
C1C0
C780
FD80
7980
ENDCHAR
STARTCHAR uni1EEA
ENCODING 7914
SWIDTH 722 0
DWIDTH 18 0
BBX 18 24 3 0
BITMAP
00C000
006000
003000
001800
000000
1801C0
1801C0
1801C0
1801C0
3003C0
300380
300300
300300
600600
600600
600600
600C00
C00C00
C01C00
C01800
E03800
607000
7FE000
1F8000
ENDCHAR
STARTCHAR uni1EEB
ENCODING 7915
SWIDTH 556 0
DWIDTH 14 0
BBX 14 19 3 0
BITMAP
0600
0300
0180
00C0
0000
303C
303C
303C
6064
606C
6078
6060
C0C0
C0C0
C0C0
C1C0
C780
FD80
7980
ENDCHAR
STARTCHAR uni1EEE
ENCODING 7918
SWIDTH 722 0
DWIDTH 18 0
BBX 18 23 3 0
BITMAP
00E200
01B600
011C00
000000
1801C0
1801C0
1801C0
1801C0
3003C0
300380
300300
300300
600600
600600
600600
600C00
C00C00
C01C00
C01800
E03800
607000
7FE000
1F8000
ENDCHAR
STARTCHAR uni1EEF
ENCODING 7919
SWIDTH 556 0
DWIDTH 14 0
BBX 14 18 3 0
BITMAP
0710
0DB0
08E0
0000
303C
303C
303C
6064
606C
6078
6060
C0C0
C0C0
C0C0
C1C0
C780
FD80
7980
ENDCHAR
STARTCHAR uni1EF0
ENCODING 7920
SWIDTH 722 0
DWIDTH 18 0
BBX 18 22 3 -3
BITMAP
1801C0
1801C0
1801C0
1801C0
3003C0
300380
300300
300300
600600
600600
600600
600C00
C00C00
C01C00
C01800
E03800
607000
7FE000
1F8000
000000
030000
030000
ENDCHAR
STARTCHAR uni1EF1
ENCODING 7921
SWIDTH 556 0
DWIDTH 14 0
BBX 14 17 3 -3
BITMAP
303C
303C
303C
6064
606C
6078
6060
C0C0
C0C0
C0C0
C1C0
C780
FD80
7980
0000
0600
0600
ENDCHAR
STARTCHAR Ygrave
ENCODING 7922
SWIDTH 667 0
DWIDTH 16 0
BBX 14 24 6 0
BITMAP
0C00
0600
0300
0180
0000
C00C
C01C
C038
6070
6060
60C0
3180
3300
3700
3600
1C00
1800
1800
1800
3000
3000
3000
6000
6000
ENDCHAR
STARTCHAR ygrave
ENCODING 7923
SWIDTH 500 0
DWIDTH 13 0
BBX 14 24 1 -5
BITMAP
0C00
0600
0300
0180
0000
300C
300C
301C
3818
1830
1870
1860
0CE0
0CC0
0D80
0780
0700
0700
0600
0C00
1C00
3800
F000
E000
ENDCHAR
STARTCHAR uni1EF4
ENCODING 7924
SWIDTH 667 0
DWIDTH 16 0
BBX 14 22 6 -3
BITMAP
C00C
C01C
C038
6070
6060
60C0
3180
3300
3700
3600
1C00
1800
1800
1800
3000
3000
3000
6000
6000
0000
1800
1800
ENDCHAR
STARTCHAR uni1EF5
ENCODING 7925
SWIDTH 500 0
DWIDTH 13 0
BBX 14 22 1 -8
BITMAP
300C
300C
301C
3818
1830
1870
1860
0CE0
0CC0
0D80
0780
0700
0700
0600
0C00
1C00
3800
F000
E000
0000
1800
1800
ENDCHAR
STARTCHAR uni1EF8
ENCODING 7928
SWIDTH 667 0
DWIDTH 16 0
BBX 14 23 6 0
BITMAP
0E20
1B60
11C0
0000
C00C
C01C
C038
6070
6060
60C0
3180
3300
3700
3600
1C00
1800
1800
1800
3000
3000
3000
6000
6000
ENDCHAR
STARTCHAR uni1EF9
ENCODING 7929
SWIDTH 500 0
DWIDTH 13 0
BBX 14 23 1 -5
BITMAP
0E20
1B60
11C0
0000
300C
300C
301C
3818
1830
1870
1860
0CE0
0CC0
0D80
0780
0700
0700
0600
0C00
1C00
3800
F000
E000
ENDCHAR
STARTCHAR uni2000
ENCODING 8192
SWIDTH 500 0
DWIDTH 13 0
BBX 1 1 0 0
BITMAP
00
ENDCHAR
STARTCHAR uni2001
ENCODING 8193
SWIDTH 1000 0
DWIDTH 25 0
BBX 1 1 0 0
BITMAP
00
ENDCHAR
STARTCHAR uni2002
ENCODING 8194
SWIDTH 500 0
DWIDTH 13 0
BBX 1 1 0 0
BITMAP
00
ENDCHAR
STARTCHAR uni2003
ENCODING 8195
SWIDTH 1000 0
DWIDTH 25 0
BBX 1 1 0 0
BITMAP
00
ENDCHAR
STARTCHAR uni2004
ENCODING 8196
SWIDTH 333 0
DWIDTH 8 0
BBX 1 1 0 0
BITMAP
00
ENDCHAR
STARTCHAR uni2005
ENCODING 8197
SWIDTH 250 0
DWIDTH 6 0
BBX 1 1 0 0
BITMAP
00
ENDCHAR
STARTCHAR uni2006
ENCODING 8198
SWIDTH 167 0
DWIDTH 4 0
BBX 1 1 0 0
BITMAP
00
ENDCHAR
STARTCHAR uni2007
ENCODING 8199
SWIDTH 556 0
DWIDTH 13 0
BBX 1 1 0 0
BITMAP
00
ENDCHAR
STARTCHAR uni2008
ENCODING 8200
SWIDTH 278 0
DWIDTH 6 0
BBX 1 1 0 0
BITMAP
00
ENDCHAR
STARTCHAR uni2009
ENCODING 8201
SWIDTH 200 0
DWIDTH 5 0
BBX 1 1 0 0
BITMAP
00
ENDCHAR
STARTCHAR uni200A
ENCODING 8202
SWIDTH 100 0
DWIDTH 3 0
BBX 1 1 0 0
BITMAP
00
ENDCHAR
STARTCHAR uni200B
ENCODING 8203
SWIDTH 0 0
DWIDTH 0 0
BBX 1 1 0 0
BITMAP
00
ENDCHAR
STARTCHAR uni2010
ENCODING 8208
SWIDTH 333 0
DWIDTH 8 0
BBX 7 2 2 6
BITMAP
FE
FE
ENDCHAR
STARTCHAR uni2011
ENCODING 8209
SWIDTH 333 0
DWIDTH 8 0
BBX 7 2 2 6
BITMAP
FE
FE
ENDCHAR
STARTCHAR figuredash
ENCODING 8210
SWIDTH 556 0
DWIDTH 14 0
BBX 15 2 1 6
BITMAP
FFFE
FFFE
ENDCHAR
STARTCHAR endash
ENCODING 8211
SWIDTH 556 0
DWIDTH 14 0
BBX 15 2 1 6
BITMAP
FFFE
FFFE
ENDCHAR
STARTCHAR emdash
ENCODING 8212
SWIDTH 1000 0
DWIDTH 25 0
BBX 25 2 2 6
BITMAP
FFFFFF80
FFFFFF80
ENDCHAR
STARTCHAR afii00208
ENCODING 8213
SWIDTH 1000 0
DWIDTH 25 0
BBX 25 2 2 6
BITMAP
FFFFFF80
FFFFFF80
ENDCHAR
STARTCHAR quoteleft
ENCODING 8216
SWIDTH 222 0
DWIDTH 6 0
BBX 3 6 5 13
BITMAP
60
C0
80
C0
C0
C0
ENDCHAR
STARTCHAR quoteright
ENCODING 8217
SWIDTH 222 0
DWIDTH 6 0
BBX 3 6 5 13
BITMAP
60
60
60
20
60
C0
ENDCHAR
STARTCHAR quotesinglbase
ENCODING 8218
SWIDTH 222 0
DWIDTH 6 0
BBX 3 6 2 -3
BITMAP
60
60
60
20
60
C0
ENDCHAR
STARTCHAR quotereversed
ENCODING 8219
SWIDTH 222 0
DWIDTH 6 0
BBX 3 6 5 13
BITMAP
C0
C0
C0
80
C0
60
ENDCHAR
STARTCHAR quotedblleft
ENCODING 8220
SWIDTH 333 0
DWIDTH 9 0
BBX 7 6 4 13
BITMAP
66
CC
88
CC
CC
CC
ENDCHAR
STARTCHAR quotedblright
ENCODING 8221
SWIDTH 333 0
DWIDTH 9 0
BBX 7 6 4 13
BITMAP
66
66
66
22
66
CC
ENDCHAR
STARTCHAR quotedblbase
ENCODING 8222
SWIDTH 333 0
DWIDTH 8 0
BBX 7 6 0 -3
BITMAP
66
66
66
22
66
CC
ENDCHAR
STARTCHAR uni201F
ENCODING 8223
SWIDTH 333 0
DWIDTH 9 0
BBX 7 6 4 13
BITMAP
CC
CC
CC
88
CC
66
ENDCHAR
STARTCHAR dagger
ENCODING 8224
SWIDTH 556 0
DWIDTH 14 0
BBX 12 24 4 -5
BITMAP
0300
0300
0300
0300
0600
FFF0
FFF0
0600
0C00
0C00
0C00
0C00
1800
1800
1800
1800
3000
3000
3000
3000
6000
6000
6000
6000
ENDCHAR
STARTCHAR daggerdbl
ENCODING 8225
SWIDTH 556 0
DWIDTH 14 0
BBX 15 24 1 -5
BITMAP
0060
0060
0060
0060
00C0
1FFE
1FFE
00C0
0180
0180
0180
0180
0300
0300
0300
0300
0600
FFF0
FFF0
0600
0C00
0C00
0C00
0C00
ENDCHAR
STARTCHAR bullet
ENCODING 8226
SWIDTH 350 0
DWIDTH 8 0
BBX 5 5 3 6
BITMAP
38
78
F8
F0
E0
ENDCHAR
STARTCHAR ellipsis
ENCODING 8230
SWIDTH 1000 0
DWIDTH 25 0
BBX 18 3 3 0
BITMAP
C0C0C0
C0C0C0
C0C0C0
ENDCHAR
STARTCHAR perthousand
ENCODING 8240
SWIDTH 1000 0
DWIDTH 23 0
BBX 21 18 2 0
BITMAP
070200
0F8600
198C00
319800
333000
3E6000
1C4000
00C000
018000
030000
060000
0C7070
08F8F8
199998
331B18
633330
C3E3E0
81C1C0
ENDCHAR
STARTCHAR guilsinglleft
ENCODING 8249
SWIDTH 333 0
DWIDTH 8 0
BBX 6 8 2 3
BITMAP
0C
18
30
60
C0
60
30
18
ENDCHAR
STARTCHAR guilsinglright
ENCODING 8250
SWIDTH 333 0
DWIDTH 8 0
BBX 6 8 3 3
BITMAP
60
30
18
0C
18
30
60
C0
ENDCHAR
STARTCHAR fraction
ENCODING 8260
SWIDTH 167 0
DWIDTH 9 0
BBX 14 19 0 0
BITMAP
000C
000C
0018
0030
0060
0060
00C0
0180
0180
0300
0600
0600
0C00
1800
3000
3000
6000
C000
C000
ENDCHAR
STARTCHAR oneinferior
ENCODING 8321
SWIDTH 333 0
DWIDTH 7 0
BBX 4 10 4 -5
BITMAP
30
70
E0
20
60
60
40
40
C0
C0
ENDCHAR
STARTCHAR twoinferior
ENCODING 8322
SWIDTH 333 0
DWIDTH 7 0
BBX 7 10 2 -5
BITMAP
3C
66
46
06
0C
38
60
C0
FC
FC
ENDCHAR
STARTCHAR threeinferior
ENCODING 8323
SWIDTH 333 0
DWIDTH 7 0
BBX 8 10 2 -5
BITMAP
1E
33
03
06
1C
06
06
C6
CC
78
ENDCHAR
STARTCHAR uni20A5
ENCODING 8357
SWIDTH 833 0
DWIDTH 20 0
BBX 18 19 2 -2
BITMAP
000600
000C00
000800
19CF80
1FFFC0
1C78C0
3870C0
3060C0
3060C0
30E0C0
60C180
60C180
61C180
63C180
C38300
C38300
C78300
040000
0C0000
ENDCHAR
STARTCHAR uni20A6
ENCODING 8358
SWIDTH 722 0
DWIDTH 18 0
BBX 18 19 2 0
BITMAP
0E00C0
0E00C0
0E00C0
0F00C0
1B0180
1B0180
198180
1FFF80
37FF00
30C300
3FFF00
3FFF00
606600
606600
603600
603600
C01C00
C01C00
C01C00
ENDCHAR
STARTCHAR uni20A9
ENCODING 8361
SWIDTH 944 0
DWIDTH 22 0
BBX 20 19 5 0
BITMAP
C06030
C06030
C0E060
C0E060
C1E0C0
C1E0C0
C36180
C3FF80
C7FF80
C66300
CFFF00
CFFE00
DC6E00
D86C00
D86C00
703800
703800
603000
603000
ENDCHAR
STARTCHAR Euro
ENCODING 8364
SWIDTH 722 0
DWIDTH 18 0
BBX 19 19 0 0
BITMAP
003F80
00FFC0
01E0E0
038060
060060
0E0000
0C0000
7FE000
7FE000
180000
FFC000
FFC000
300000
300180
380380
180700
1E1E00
0FFC00
03F000
ENDCHAR
STARTCHAR uni20AD
ENCODING 8365
SWIDTH 667 0
DWIDTH 18 0
BBX 17 19 2 0
BITMAP
0C0380
0C0700
0C0E00
0C1C00
187000
18E000
19C000
1B8000
FFFF80
FFFF80
39C000
30C000
60E000
607000
603000
603800
C01C00
C00C00
C00E00
ENDCHAR
STARTCHAR uni2103
ENCODING 8451
SWIDTH 1102 0
DWIDTH 27 0
BBX 25 19 3 0
BITMAP
0000FE00
3C03FF00
66078380
C30E0180
C3180180
C3380000
66300000
3C700000
00600000
00600000
00E00000
00C00000
00C00000
00C00600
00E00E00
00601C00
00787800
003FF000
000FC000
ENDCHAR
STARTCHAR uni2109
ENCODING 8457
SWIDTH 991 0
DWIDTH 23 0
BBX 23 19 3 0
BITMAP
000FFE
3C0FFE
660C00
C30C00
C31800
C31800
661800
3C1800
003FF0
003FF0
003000
003000
006000
006000
006000
006000
00C000
00C000
00C000
ENDCHAR
STARTCHAR trademark
ENCODING 8482
SWIDTH 1000 0
DWIDTH 21 0
BBX 19 9 3 8
BITMAP
FF6060
FF70E0
1871E0
187BE0
18DF60
30DEC0
30CCC0
30CCC0
30CCC0
ENDCHAR
STARTCHAR uni212A
ENCODING 8490
SWIDTH 667 0
DWIDTH 18 0
BBX 17 19 2 0
BITMAP
0C0380
0C0700
0C0E00
0C1C00
187000
18E000
19C000
1B8000
3F0000
3F8000
39C000
30C000
60E000
607000
603000
603800
C01C00
C00C00
C00E00
ENDCHAR
STARTCHAR uni212B
ENCODING 8491
SWIDTH 667 0
DWIDTH 17 0
BBX 15 23 1 0
BITMAP
0038
0048
0048
0070
0000
0070
0070
00F8
00D8
0198
0198
0318
0718
060C
0C0C
0FFC
1FFC
180C
3006
7006
6006
E006
E006
ENDCHAR
STARTCHAR uni2132
ENCODING 8498
SWIDTH 611 0
DWIDTH 14 0
BBX 15 19 2 0
BITMAP
0006
0006
0006
000C
000C
000C
000C
0018
0018
1FF8
1FF8
0030
0030
0030
0030
0060
0060
FFE0
FFE0
ENDCHAR
STARTCHAR minus
ENCODING 8722
SWIDTH 584 0
DWIDTH 15 0
BBX 11 2 3 6
BITMAP
FFE0
FFE0
ENDCHAR
STARTCHAR fraction
ENCODING 8725
SWIDTH 167 0
DWIDTH 9 0
BBX 14 19 0 0
BITMAP
000C
000C
0018
0030
0060
0060
00C0
0180
0180
0300
0600
0600
0C00
1800
3000
3000
6000
C000
C000
ENDCHAR
STARTCHAR periodcentered
ENCODING 8729
SWIDTH 278 0
DWIDTH 6 0
BBX 2 3 4 6
BITMAP
C0
C0
C0
ENDCHAR
STARTCHAR uni2236
ENCODING 8758
SWIDTH 278 0
DWIDTH 6 0
BBX 5 14 2 0
BITMAP
18
18
18
00
00
00
00
00
00
00
00
C0
C0
C0
ENDCHAR
STARTCHAR uni2259
ENCODING 8793
SWIDTH 584 0
DWIDTH 15 0
BBX 11 10 3 5
BITMAP
0600
0F00
1980
30C0
0000
7FE0
7FE0
0000
FFC0
FFC0
ENDCHAR
STARTCHAR uni225A
ENCODING 8794
SWIDTH 584 0
DWIDTH 15 0
BBX 11 10 3 5
BITMAP
30C0
1980
0F00
0600
0000
7FE0
7FE0
0000
FFC0
FFC0
ENDCHAR
STARTCHAR notequal
ENCODING 8800
SWIDTH 584 0
DWIDTH 15 0
BBX 11 19 3 -2
BITMAP
0060
00C0
0080
0080
0180
0300
0200
7FE0
7FE0
0C00
FFC0
FFC0
1800
3000
2000
2000
6000
4000
C000
ENDCHAR
STARTCHAR equivalence
ENCODING 8801
SWIDTH 584 0
DWIDTH 15 0
BBX 11 8 0 3
BITMAP
FFE0
FFE0
0000
FFE0
FFE0
0000
FFE0
FFE0
ENDCHAR
STARTCHAR uni2262
ENCODING 8802
SWIDTH 584 0
DWIDTH 15 0
BBX 11 19 0 -2
BITMAP
0060
00C0
0080
0080
0180
0300
FFE0
FFE0
0600
FFE0
FFE0
0800
FFE0
FFE0
2000
2000
6000
4000
C000
ENDCHAR
STARTCHAR lessequal
ENCODING 8804
SWIDTH 584 0
DWIDTH 15 0
BBX 12 13 3 0
BITMAP
0070
01E0
0780
1E00
7800
E000
F000
3C00
0F00
0380
0000
FFF0
FFF0
ENDCHAR
STARTCHAR greaterequal
ENCODING 8805
SWIDTH 584 0
DWIDTH 14 0
BBX 11 13 3 0
BITMAP
7000
3C00
0F00
03C0
00E0
01E0
0780
1E00
7800
E000
0000
FFE0
FFE0
ENDCHAR
STARTCHAR uni226E
ENCODING 8814
SWIDTH 584 0
DWIDTH 15 0
BBX 12 19 3 -1
BITMAP
0030
0060
0040
0040
00C0
01F0
01E0
0780
1F00
7E00
E400
F400
3C00
1F00
1380
1000
3000
2000
6000
ENDCHAR
STARTCHAR uni226F
ENCODING 8815
SWIDTH 584 0
DWIDTH 14 0
BBX 11 19 3 -1
BITMAP
0060
00C0
0080
0080
0180
7300
3E00
0F00
07C0
0CE0
09E0
0F80
1E00
7800
E000
2000
6000
4000
C000
ENDCHAR
STARTCHAR uni2270
ENCODING 8816
SWIDTH 584 0
DWIDTH 15 0
BBX 12 19 3 -3
BITMAP
0030
0060
0040
0070
01E0
0780
1F00
7900
E300
F600
3C00
0F00
0F80
1800
FFF0
FFF0
3000
2000
6000
ENDCHAR
STARTCHAR uni2271
ENCODING 8817
SWIDTH 584 0
DWIDTH 14 0
BBX 11 19 3 -3
BITMAP
0060
00C0
0080
7080
3D80
0F00
03C0
02E0
07E0
0F80
1E00
7800
F800
3000
FFE0
FFE0
6000
4000
C000
ENDCHAR
STARTCHAR fi
ENCODING -1
SWIDTH 500 0
DWIDTH 13 0
BBX 12 19 3 0
BITMAP
0730
0F30
0C30
0C00
1800
7E60
7E60
1860
30C0
30C0
30C0
30C0
6180
6180
6180
6180
C300
C300
C300
ENDCHAR
STARTCHAR fl
ENCODING -1
SWIDTH 500 0
DWIDTH 13 0
BBX 12 19 3 0
BITMAP
0730
0F30
0C30
0C30
1860
7E60
7E60
1860
30C0
30C0
30C0
30C0
6180
6180
6180
6180
C300
C300
C300
ENDCHAR
ENDFONT
